<svg width="180" height="60" viewBox="0 0 180 60" fill="none" xmlns="http://www.w3.org/2000/svg">
<g clip-path="url(#clip0_445_3154)">
<path d="M165.666 0.000195H14.3422C13.7906 0.000195 13.2456 0.000195 12.6955 0.003195C12.235 0.006195 11.7781 0.01491 11.3132 0.022245C10.3031 0.0340977 9.29543 0.122709 8.29888 0.28731C7.30373 0.455494 6.33976 0.772569 5.43956 1.22781C4.54046 1.6869 3.71893 2.28345 3.00477 2.9958C2.28686 3.70615 1.68842 4.52722 1.23248 5.42743C0.775271 6.32586 0.458244 7.2886 0.292343 8.28242C0.124866 9.27497 0.0347448 10.279 0.0227888 11.2854C0.00882972 11.7453 0.00735559 12.2067 0 12.6667V47.3381C0.00735559 47.8038 0.00882972 48.255 0.0227888 48.7209C0.0347485 49.7273 0.12487 50.7313 0.292343 51.7238C0.457785 52.7182 0.774831 53.6815 1.23248 54.5802C1.68821 55.4775 2.28673 56.2953 3.00477 57.0017C3.71622 57.7172 4.53828 58.3142 5.43956 58.7697C6.33975 59.2262 7.30362 59.5452 8.29888 59.7159C9.2956 59.8792 10.3032 59.9679 11.3132 59.9811C11.7781 59.9913 12.235 59.9972 12.6955 59.9972C13.2456 60.0002 13.7906 60.0002 14.3422 60.0002H165.666C166.207 60.0002 166.756 60.0002 167.296 59.9972C167.755 59.9972 168.225 59.9913 168.683 59.9811C169.691 59.9686 170.697 59.8799 171.692 59.7159C172.69 59.544 173.657 59.2251 174.562 58.7697C175.462 58.3139 176.284 57.717 176.995 57.0017C177.711 56.2925 178.311 55.4754 178.772 54.5802C179.226 53.6808 179.54 52.7176 179.703 51.7238C179.871 50.7311 179.964 49.7274 179.982 48.7209C179.988 48.255 179.988 47.8038 179.988 47.3381C180 46.7931 180 46.2512 180 45.6974V14.3044C180 13.7551 180 13.2102 179.988 12.6667C179.988 12.2067 179.988 11.7453 179.982 11.2854C179.964 10.2788 179.871 9.27505 179.703 8.28236C179.54 7.28912 179.226 6.32645 178.772 5.42737C177.843 3.62299 176.371 2.15423 174.562 1.22767C173.657 0.773546 172.69 0.456556 171.692 0.287175C170.697 0.121849 169.691 0.0332066 168.683 0.022035C168.225 0.014715 167.755 0.005925 167.296 0.003C166.756 0 166.207 0 165.666 0V0.000195Z" fill="#A6A6A6"/>
<path d="M12.7021 58.6875C12.2438 58.6875 11.7966 58.6816 11.3419 58.6714C10.3999 58.6592 9.46014 58.5774 8.53029 58.4268C7.66325 58.2779 6.82332 58.0009 6.0382 57.6049C5.26029 57.2123 4.55077 56.6974 3.93682 56.08C3.31399 55.47 2.79545 54.7624 2.40176 53.9853C2.00373 53.2032 1.72827 52.3648 1.58497 51.4995C1.43023 50.5697 1.3465 49.6295 1.33452 48.687C1.32499 48.3707 1.3125 47.3174 1.3125 47.3174V12.6665C1.3125 12.6665 1.3258 11.6294 1.3346 11.3247C1.34607 10.3837 1.42931 9.44498 1.58359 8.51659C1.72715 7.64888 2.00282 6.80812 2.40107 6.02344C2.79331 5.24692 3.30897 4.53879 3.92805 3.92652C4.54644 3.30843 5.25823 2.79091 6.03747 2.39281C6.82078 1.99814 7.65912 1.7231 8.52441 1.57691C9.45732 1.42475 10.4003 1.34249 11.3456 1.33082L12.7029 1.3125H167.288L168.662 1.33155C169.599 1.34265 170.533 1.42417 171.457 1.57543C172.331 1.72346 173.178 2.00042 173.971 2.39721C175.532 3.19948 176.802 4.46874 177.603 6.02711C177.995 6.80637 178.267 7.64026 178.408 8.50048C178.565 9.43649 178.652 10.3826 178.67 11.3313C178.674 11.7561 178.674 12.2124 178.674 12.6665C178.686 13.229 178.686 13.7644 178.686 14.3042V45.6972C178.686 46.2421 178.686 46.7739 178.674 47.31C178.674 47.7978 178.674 48.2446 178.668 48.7046C178.651 49.6363 178.565 50.5655 178.411 51.4848C178.271 52.3564 177.997 53.2013 177.599 53.9898C177.203 54.7584 176.687 55.4599 176.071 56.0683C175.457 56.689 174.746 57.2069 173.966 57.6021C173.176 58.0011 172.33 58.2791 171.457 58.4268C170.528 58.5782 169.588 58.66 168.646 58.6714C168.205 58.6816 167.744 58.6875 167.296 58.6875L165.665 58.6905L12.7021 58.6875Z" fill="black"/>
<path d="M37.2583 30.451C37.2745 29.199 37.6079 27.9714 38.2277 26.8825C38.8475 25.7936 39.7334 24.8787 40.803 24.2229C40.1235 23.2552 39.2271 22.4587 38.1849 21.8969C37.1428 21.3351 35.9836 21.0233 34.7995 20.9864C32.2736 20.722 29.8248 22.4936 28.5376 22.4936C27.2255 22.4936 25.2437 21.0126 23.1097 21.0564C21.7293 21.1009 20.384 21.5012 19.2049 22.2182C18.0258 22.9353 17.053 23.9448 16.3815 25.1482C13.4723 30.1708 15.6423 37.5524 18.429 41.6123C19.8232 43.6004 21.4527 45.821 23.5849 45.7423C25.6713 45.656 26.4505 44.4156 28.969 44.4156C31.4642 44.4156 32.1953 45.7423 34.3707 45.6922C36.6095 45.656 38.0201 43.6953 39.3654 41.6885C40.3672 40.272 41.138 38.7064 41.6494 37.0497C40.3487 36.5011 39.2387 35.5829 38.4579 34.4094C37.677 33.236 37.2598 31.8593 37.2583 30.451Z" fill="white"/>
<path d="M33.1491 18.3165C34.3698 16.8552 34.9712 14.9769 34.8256 13.0806C32.9606 13.2759 31.2379 14.1647 30.0007 15.57C29.3958 16.2565 28.9325 17.0551 28.6373 17.9203C28.3421 18.7854 28.2208 19.7001 28.2803 20.6121C29.2132 20.6216 30.136 20.42 30.9794 20.0224C31.8227 19.6248 32.5646 19.0415 33.1491 18.3165Z" fill="white"/>
<path d="M63.6308 40.7096H56.5108L54.8009 45.7443H51.7852L58.5291 27.1173H61.6624L68.4064 45.7443H65.3392L63.6308 40.7096ZM57.2482 38.3864H62.892L60.1098 30.2155H60.0319L57.2482 38.3864Z" fill="white"/>
<path d="M82.973 38.9548C82.973 43.175 80.7078 45.8864 77.2896 45.8864C76.4237 45.9316 75.5625 45.7327 74.8047 45.3125C74.0469 44.8923 73.4231 44.2678 73.0046 43.5104H72.94V50.237H70.1445V32.1638H72.8504V34.4226H72.9018C73.3395 33.6689 73.9738 33.0476 74.7374 32.6248C75.501 32.202 76.3652 31.9936 77.2382 32.0217C80.6946 32.0217 82.973 34.7463 82.973 38.9548ZM80.0997 38.9548C80.0997 36.2053 78.6748 34.3977 76.5007 34.3977C74.3649 34.3977 72.9282 36.2434 72.9282 38.9548C72.9282 41.6911 74.3649 43.5236 76.5007 43.5236C78.6748 43.5236 80.0997 41.7292 80.0997 38.9548Z" fill="white"/>
<path d="M97.9612 38.9548C97.9612 43.175 95.6961 45.8864 92.2779 45.8864C91.412 45.9316 90.5508 45.7327 89.793 45.3125C89.0352 44.8923 88.4113 44.2677 87.9929 43.5104H87.9282V50.237H85.1328V32.1638H87.8386V34.4225H87.89C88.3277 33.6688 88.9621 33.0476 89.7256 32.6248C90.4892 32.202 91.3535 31.9936 92.2264 32.0217C95.6829 32.0217 97.9612 34.7463 97.9612 38.9548ZM95.088 38.9548C95.088 36.2053 93.6631 34.3976 91.489 34.3976C89.3532 34.3976 87.9165 36.2433 87.9165 38.9548C87.9165 41.6911 89.3532 43.5236 91.489 43.5236C93.6631 43.5236 95.088 41.7292 95.088 38.9548H95.088Z" fill="white"/>
<path d="M107.869 40.5544C108.077 42.4016 109.876 43.6144 112.335 43.6144C114.691 43.6144 116.386 42.4015 116.386 40.736C116.386 39.2902 115.364 38.4245 112.943 37.8312L110.522 37.2496C107.092 36.4235 105.5 34.8239 105.5 32.2282C105.5 29.0143 108.309 26.8068 112.297 26.8068C116.244 26.8068 118.95 29.0143 119.041 32.2282H116.219C116.05 30.3693 114.509 29.2472 112.257 29.2472C110.005 29.2472 108.464 30.3825 108.464 32.0348C108.464 33.3517 109.448 34.1266 111.856 34.7198L113.914 35.2237C117.747 36.1275 119.339 37.6627 119.339 40.3873C119.339 43.8721 116.555 46.0548 112.128 46.0548C107.985 46.0548 105.188 43.9234 105.008 40.5543L107.869 40.5544Z" fill="white"/>
<path d="M125.371 28.9498V32.1637H127.961V34.3712H125.371V41.858C125.371 43.0211 125.889 43.5631 127.028 43.5631C127.335 43.5578 127.642 43.5362 127.947 43.4986V45.6929C127.436 45.7883 126.915 45.8315 126.395 45.8219C123.637 45.8219 122.562 44.7891 122.562 42.1553V34.3712H120.582V32.1637H122.562V28.9498H125.371Z" fill="white"/>
<path d="M129.461 38.9547C129.461 34.6818 131.985 31.9967 135.92 31.9967C139.868 31.9967 142.38 34.6817 142.38 38.9547C142.38 43.2394 139.882 45.9127 135.92 45.9127C131.96 45.9127 129.461 43.2394 129.461 38.9547ZM139.532 38.9547C139.532 36.0236 138.185 34.2936 135.92 34.2936C133.655 34.2936 132.309 36.0367 132.309 38.9547C132.309 41.8976 133.655 43.6144 135.92 43.6144C138.185 43.6144 139.532 41.8976 139.532 38.9547H139.532Z" fill="white"/>
<path d="M144.684 32.1636H147.35V34.4751H147.414C147.595 33.7532 148.019 33.1152 148.615 32.6684C149.212 32.2216 149.945 31.9931 150.69 32.0215C151.012 32.0204 151.334 32.0553 151.648 32.1255V34.733C151.241 34.609 150.817 34.5521 150.392 34.5645C149.986 34.5481 149.581 34.6195 149.205 34.7738C148.829 34.9281 148.491 35.1617 148.215 35.4586C147.938 35.7554 147.729 36.1085 147.602 36.4935C147.475 36.8785 147.433 37.2863 147.479 37.689V45.7442H144.684L144.684 32.1636Z" fill="white"/>
<path d="M164.535 41.7556C164.159 44.2209 161.751 45.9128 158.671 45.9128C154.709 45.9128 152.25 43.2659 152.25 39.0193C152.25 34.7595 154.722 31.9968 158.553 31.9968C162.321 31.9968 164.691 34.5779 164.691 38.6956V39.6506H155.072V39.8191C155.027 40.3189 155.09 40.8224 155.256 41.2961C155.422 41.7699 155.687 42.2031 156.033 42.5669C156.38 42.9307 156.8 43.2169 157.266 43.4063C157.732 43.5958 158.233 43.6842 158.735 43.6658C159.396 43.7275 160.059 43.5749 160.626 43.2308C161.192 42.8866 161.632 42.3692 161.88 41.7556L164.535 41.7556ZM155.085 37.7024H161.894C161.919 37.253 161.85 36.8033 161.693 36.3815C161.536 35.9597 161.292 35.5748 160.979 35.2512C160.665 34.9275 160.288 34.672 159.87 34.5007C159.453 34.3294 159.005 34.2459 158.553 34.2556C158.098 34.2529 157.647 34.3401 157.226 34.5122C156.804 34.6843 156.421 34.938 156.099 35.2584C155.777 35.5789 155.521 35.9598 155.347 36.3793C155.173 36.7988 155.084 37.2484 155.085 37.7024V37.7024Z" fill="white"/>
<path d="M55.2622 16.8801H56.4623C56.6689 16.9057 56.8786 16.8884 57.0782 16.8293C57.2777 16.7701 57.4628 16.6704 57.6218 16.5363C57.7808 16.4023 57.9102 16.2368 58.0019 16.0505C58.0936 15.8641 58.1456 15.6607 58.1546 15.4533C58.1546 14.6279 57.5317 14.0947 56.4755 14.0947C56.2639 14.0652 56.0484 14.0783 55.8419 14.1332C55.6354 14.1881 55.4421 14.2837 55.2732 14.4144C55.1044 14.5451 54.9635 14.7082 54.8589 14.894C54.7544 15.0799 54.6882 15.2848 54.6643 15.4965H53.3466C53.3693 15.1121 53.4711 14.7364 53.6457 14.3929C53.8203 14.0494 54.0639 13.7454 54.3614 13.4998C54.6589 13.2543 55.0039 13.0724 55.375 12.9656C55.746 12.8588 56.1351 12.8292 56.5181 12.8789C58.2853 12.8789 59.5295 13.8654 59.5295 15.2856C59.5337 15.7614 59.3741 16.2242 59.0773 16.5967C58.7806 16.9693 58.3646 17.2291 57.899 17.3327V17.4382C58.451 17.4626 58.9709 17.704 59.345 18.1095C59.7191 18.5151 59.9169 19.0519 59.8953 19.6025C59.8544 19.9983 59.7348 20.3821 59.5433 20.7312C59.3518 21.0803 59.0923 21.3878 58.7801 21.6356C58.4679 21.8834 58.1092 22.0666 57.7251 22.1744C57.341 22.2822 56.9391 22.3125 56.5431 22.2634C56.1463 22.3173 55.7426 22.2911 55.3562 22.1861C54.9698 22.0812 54.6085 21.8997 54.2939 21.6526C53.9793 21.4054 53.7178 21.0977 53.525 20.7476C53.3323 20.3975 53.2122 20.0123 53.1719 19.615H54.5101C54.5909 20.4712 55.3797 21.0235 56.5431 21.0235C57.7065 21.0235 58.466 20.4031 58.466 19.5286C58.466 18.6416 57.7506 18.0952 56.5005 18.0952H55.2622V16.8801Z" fill="white"/>
<path d="M61.4141 20.1362C61.4141 18.9204 62.3233 18.2195 63.9333 18.1199L65.7681 18.0144V17.4314C65.7681 16.718 65.2965 16.3152 64.3814 16.3152C63.6351 16.3152 63.1195 16.5884 62.9697 17.0659H61.6755C61.8121 15.9058 62.908 15.1616 64.4445 15.1616C66.1426 15.1616 67.1004 16.0046 67.1004 17.4314V22.0464H65.8121V21.0972H65.7064C65.4917 21.4377 65.1902 21.7152 64.8328 21.9015C64.4754 22.0879 64.0747 22.1762 63.6719 22.1577C63.3875 22.1872 63.1001 22.1569 62.8282 22.0689C62.5563 21.9808 62.3059 21.8369 62.0932 21.6465C61.8805 21.456 61.7101 21.2232 61.5932 20.9631C61.4762 20.703 61.4152 20.4213 61.4141 20.1362ZM65.7681 19.5591V18.9944L64.1139 19.0998C63.1812 19.1621 62.7581 19.4785 62.7581 20.074C62.7581 20.6819 63.2869 21.0356 64.0141 21.0356C64.2272 21.0571 64.4424 21.0357 64.647 20.9726C64.8516 20.9094 65.0413 20.8059 65.205 20.6681C65.3686 20.5304 65.5028 20.3612 65.5995 20.1707C65.6963 19.9801 65.7536 19.7721 65.7681 19.5591Z" fill="white"/>
<path d="M70.6492 16.4141V22.0464H69.3125V15.292H73.7723V16.414L70.6492 16.4141Z" fill="white"/>
<path d="M81.8722 18.6667C81.8722 20.8127 80.7837 22.1581 79.0738 22.1581C78.6541 22.1867 78.2349 22.0951 77.8656 21.8941C77.4964 21.6931 77.1923 21.3911 76.9894 21.0236H76.8836V24.2924H75.5469V15.2924H76.8337V16.4087H76.9336C77.1402 16.0283 77.4481 15.7123 77.8235 15.4956C78.1989 15.2788 78.627 15.1698 79.0606 15.1804C80.7837 15.1804 81.8722 16.5199 81.8722 18.6667ZM80.4973 18.6667C80.4973 17.2399 79.8201 16.3779 78.6875 16.3779C77.5624 16.3779 76.8587 17.2582 76.8587 18.6725C76.8587 20.0803 77.5623 20.9614 78.6816 20.9614C79.8201 20.9614 80.4973 20.0993 80.4973 18.6667Z" fill="white"/>
<path d="M83.6553 24.4656V23.3179C83.8 23.3362 83.9457 23.3445 84.0915 23.3428C84.3763 23.3638 84.6589 23.2792 84.885 23.1053C85.1111 22.9313 85.2648 22.6802 85.3166 22.4001L85.4165 22.0713L82.9648 15.292H84.4206L86.1188 20.657H86.2245L87.9167 15.292H89.3343L86.8092 22.3254C86.2304 23.969 85.5899 24.4964 84.2091 24.4964C84.0975 24.4963 83.7802 24.4839 83.6553 24.4656Z" fill="white"/>
<path d="M90.375 20.1298H91.7059C91.8366 20.7253 92.3963 21.0358 93.1792 21.0358C94.0694 21.0358 94.6159 20.6447 94.6159 20.0368C94.6159 19.3857 94.1252 19.0751 93.1792 19.0751H92.1657V18.0395H93.1616C93.9695 18.0395 94.3808 17.7297 94.3808 17.165C94.3808 16.6691 93.9828 16.2905 93.1616 16.2905C92.4139 16.2905 91.8675 16.6069 91.7807 17.1401H90.4925C90.5888 16.5274 90.9224 15.9769 91.4216 15.6069C91.9207 15.237 92.5455 15.0771 93.1616 15.1618C94.7716 15.1618 95.6926 15.8877 95.6926 17.0288C95.7001 17.3465 95.598 17.6572 95.4034 17.9089C95.2087 18.1606 94.9333 18.3381 94.6232 18.4116V18.5171C94.9924 18.5645 95.3313 18.7455 95.5755 19.0257C95.8198 19.3058 95.9524 19.6656 95.9482 20.0368C95.9482 21.3208 94.8524 22.1704 93.1792 22.1704C91.7 22.1703 90.4984 21.4943 90.375 20.1298Z" fill="white"/>
<path d="M97.875 22.0464V15.292H99.2V19.9378H99.3058L102.427 15.292H103.752V22.0464H102.427V17.3758H102.327L99.2 22.0464L97.875 22.0464Z" fill="white"/>
<path d="M111.049 16.4145H108.916V22.0468H107.578V16.4145H105.445V15.2925H111.049V16.4145Z" fill="white"/>
<path d="M118.25 20.2228C118.068 20.8401 117.674 21.3739 117.138 21.7311C116.601 22.0882 115.956 22.246 115.314 22.1769C114.868 22.1886 114.424 22.1034 114.014 21.9271C113.604 21.7508 113.238 21.4877 112.94 21.156C112.643 20.8243 112.421 20.4319 112.29 20.0062C112.16 19.5804 112.124 19.1315 112.185 18.6905C112.126 18.2482 112.162 17.7983 112.292 17.3713C112.422 16.9443 112.643 16.5502 112.939 16.2155C113.235 15.8809 113.6 15.6137 114.009 15.4319C114.417 15.2501 114.861 15.1579 115.308 15.1617C117.193 15.1617 118.331 16.4457 118.331 18.5667V19.0319H113.548V19.1066C113.527 19.3545 113.558 19.6041 113.64 19.8393C113.721 20.0746 113.851 20.2902 114.021 20.4725C114.19 20.6547 114.397 20.7995 114.626 20.8975C114.855 20.9955 115.103 21.0446 115.352 21.0416C115.672 21.0797 115.995 21.0222 116.282 20.8764C116.569 20.7306 116.806 20.503 116.962 20.2227L118.25 20.2228ZM113.548 18.046H116.968C116.985 17.8194 116.954 17.5919 116.878 17.3779C116.801 17.1639 116.68 16.9682 116.524 16.8034C116.367 16.6386 116.177 16.5084 115.967 16.4211C115.756 16.3337 115.53 16.2912 115.302 16.2963C115.071 16.2931 114.841 16.3363 114.627 16.4231C114.413 16.5099 114.218 16.6387 114.055 16.8018C113.891 16.9649 113.762 17.1591 113.675 17.3728C113.588 17.5865 113.545 17.8154 113.548 18.046H113.548Z" fill="white"/>
<path d="M123.918 15.292H126.972C128.297 15.292 129.074 15.9614 129.074 17.0095C129.076 17.3421 128.964 17.6652 128.755 17.9249C128.547 18.1847 128.255 18.3652 127.93 18.4362V18.5417C128.325 18.5666 128.696 18.7421 128.966 19.0319C129.235 19.3217 129.383 19.7036 129.378 20.0988C129.378 21.2773 128.489 22.0464 127.003 22.0464H123.918V15.292ZM125.243 16.3152V18.0642H126.568C127.376 18.0642 127.762 17.7544 127.762 17.1831C127.762 16.6565 127.426 16.3152 126.716 16.3152L125.243 16.3152ZM125.243 19.0442V21.0232H126.828C127.618 21.0232 128.041 20.6753 128.041 20.0366C128.041 19.3606 127.563 19.0442 126.661 19.0442L125.243 19.0442Z" fill="white"/>
</g>
<defs>
<clipPath id="clip0_445_3154">
<rect width="180" height="60" fill="white"/>
</clipPath>
</defs>
</svg>
