<svg width="420" height="800" viewBox="0 0 420 800" fill="none" xmlns="http://www.w3.org/2000/svg">
<path fill-rule="evenodd" clip-rule="evenodd" d="M-165.512 270.526L-29.5058 148.937L119.728 290.279L-13.9148 409.71L-165.512 270.526Z" fill="#005A9C"/>
<path fill-rule="evenodd" clip-rule="evenodd" d="M-88.1367 341.82L-13.5408 275.174L59.2306 344.102L-14.2042 409.71L-88.1367 341.82Z" fill="#008FCB"/>
<path fill-rule="evenodd" clip-rule="evenodd" d="M3.75161 180.6L-114.383 287.125V225.501L-29.2132 149.393L3.75161 180.6Z" fill="#0080C8"/>
<path fill-rule="evenodd" clip-rule="evenodd" d="M-13.6641 500.093L172.017 672.601L311.009 553.169L125.327 380.662L-13.6641 500.093Z" fill="#78D3FF"/>
<path fill-rule="evenodd" clip-rule="evenodd" d="M245.367 364.229L388.878 493.62V238.489L245.367 109.098V364.229Z" fill="#D4EDFC"/>
<path fill-rule="evenodd" clip-rule="evenodd" d="M17.1406 163.71L94.5148 233.51V95.9021L17.1406 26.1023V163.71Z" fill="#A1DAF8"/>
<path fill-rule="evenodd" clip-rule="evenodd" d="M38.5813 491.171C40.7499 491.18 42.8721 490.543 44.6786 489.342C46.4852 488.142 47.8947 486.431 48.7284 484.427C49.562 482.424 49.7823 480.218 49.3612 478.089C48.9401 475.96 47.8967 474.004 46.3633 472.469C44.8298 470.934 42.8754 469.89 40.7481 469.469C38.6207 469.047 36.4163 469.268 34.4144 470.102C32.4124 470.937 30.7031 472.347 29.5034 474.155C28.3037 475.963 27.6677 478.087 27.6759 480.257C27.6868 483.148 28.8393 485.918 30.8821 487.963C32.9249 490.007 35.6924 491.16 38.5813 491.171V491.171Z" fill="#0080C8"/>
<path fill-rule="evenodd" clip-rule="evenodd" d="M118.857 98.1013C120.89 98.1013 122.876 97.4988 124.566 96.3697C126.256 95.2407 127.575 93.6359 128.354 91.7578C129.134 89.8797 129.34 87.8125 128.946 85.8173C128.553 83.8221 127.577 81.9883 126.143 80.5474C124.709 79.1064 122.881 78.123 120.889 77.7212C118.897 77.3195 116.831 77.5173 114.951 78.2899C113.071 79.0624 111.462 80.3752 110.327 82.0621C109.192 83.7491 108.582 85.7347 108.574 87.7684C108.574 90.5017 109.656 93.1236 111.583 95.0603C113.511 96.9969 116.126 98.0903 118.857 98.1013V98.1013Z" fill="#0080C8"/>
<path d="M118.027 411.702L307.896 588.069V258.326C244.316 199.232 180.736 140.194 117.156 81.2118V410.956L117.944 411.702H118.027ZM302.921 576.699L122.174 408.798V92.5822L302.921 260.525V576.699V576.699Z" fill="#0080C8"/>
<path d="M-20.9643 532.96L166.376 706.961L309.141 584.21C246.058 525.642 182.934 467.033 119.769 408.383L-22.9961 531.092L-20.9643 532.96V532.96ZM166.5 700.404L-15.5738 531.3L119.644 415.105L301.594 584.21L166.417 700.404H166.5Z" fill="#0080C8"/>
<path fill-rule="evenodd" clip-rule="evenodd" d="M119.729 421.994C121.763 421.994 123.751 421.39 125.442 420.259C127.133 419.129 128.451 417.521 129.229 415.641C130.008 413.76 130.211 411.691 129.814 409.695C129.418 407.698 128.438 405.864 127 404.425C125.562 402.986 123.73 402.006 121.735 401.609C119.74 401.212 117.672 401.415 115.793 402.194C113.914 402.973 112.308 404.292 111.178 405.985C110.048 407.677 109.445 409.667 109.445 411.702C109.445 414.432 110.529 417.05 112.457 418.98C114.386 420.91 117.001 421.994 119.729 421.994V421.994Z" fill="#0080C8"/>
<path fill-rule="evenodd" clip-rule="evenodd" d="M303.377 269.655C305.411 269.655 307.399 269.051 309.09 267.92C310.781 266.789 312.099 265.182 312.878 263.301C313.656 261.421 313.86 259.352 313.463 257.355C313.066 255.359 312.087 253.525 310.649 252.086C309.21 250.646 307.378 249.666 305.383 249.269C303.388 248.872 301.321 249.076 299.442 249.855C297.563 250.634 295.957 251.953 294.827 253.645C293.697 255.338 293.094 257.328 293.094 259.363C293.094 262.092 294.177 264.71 296.106 266.64C298.034 268.57 300.65 269.655 303.377 269.655V269.655Z" fill="#0080C8"/>
<path fill-rule="evenodd" clip-rule="evenodd" d="M166.627 714.14C168.661 714.14 170.649 713.537 172.34 712.406C174.031 711.275 175.349 709.668 176.128 707.787C176.906 705.907 177.11 703.837 176.713 701.841C176.316 699.845 175.337 698.011 173.899 696.572C172.46 695.132 170.628 694.152 168.633 693.755C166.639 693.358 164.571 693.562 162.692 694.341C160.813 695.12 159.207 696.439 158.077 698.131C156.947 699.824 156.344 701.813 156.344 703.849C156.344 706.578 157.427 709.196 159.356 711.126C161.284 713.056 163.9 714.14 166.627 714.14Z" fill="#0080C8"/>
<path d="M275.18 501.214L262.989 490.341V291.773L275.18 302.687V501.214ZM263.611 497.52L280.197 512.294V300.446L258.055 280.734V492.375L263.653 497.354L263.611 497.52Z" fill="#0080C8"/>
<path d="M238.94 468.679L226.957 457.807V259.239L239.147 270.153V468.679H238.94ZM231.186 468.43L243.916 479.759V268.119L221.773 248.076V460.006L231.186 468.306V468.43Z" fill="#0080C8"/>
<path fill-rule="evenodd" clip-rule="evenodd" d="M205.19 441.83L188.023 426.517V221.351L205.19 236.664V441.83Z" fill="white"/>
<path d="M202.7 436.311L190.509 425.397V226.87L202.7 237.784V436.311ZM190.261 432.161L207.51 447.557V235.917L185.492 215.79V427.43L190.385 431.58L190.261 432.161Z" fill="#0080C8"/>
<path fill-rule="evenodd" clip-rule="evenodd" d="M168.907 409.461L151.699 394.149V188.982L168.907 204.295V409.461Z" fill="white"/>
<path d="M166.458 403.942L154.018 393.028V194.501L166.458 205.415V403.942ZM150.121 395.975L171.392 415.022V203.382L149.25 183.629V395.269L150.121 395.975Z" fill="#0080C8"/>
<path fill-rule="evenodd" clip-rule="evenodd" d="M308.311 593.754C310.344 593.754 312.333 593.151 314.024 592.02C315.715 590.889 317.033 589.282 317.811 587.401C318.59 585.521 318.793 583.451 318.396 581.455C318 579.459 317.02 577.625 315.582 576.186C314.144 574.746 312.312 573.766 310.317 573.369C308.322 572.972 306.254 573.176 304.375 573.955C302.496 574.734 300.89 576.053 299.76 577.745C298.63 579.438 298.027 581.427 298.027 583.463C298.027 586.192 299.111 588.81 301.039 590.74C302.968 592.67 305.583 593.754 308.311 593.754V593.754Z" fill="#0080C8"/>
<path d="M38.082 487.934L53.6729 552.298L324.399 792.364L327.717 788.671L58.1512 549.6L42.8506 486.772L38.082 487.934Z" fill="#0080C8"/>
<path fill-rule="evenodd" clip-rule="evenodd" d="M326.058 800C327.938 800 329.775 799.441 331.338 798.395C332.9 797.349 334.117 795.863 334.835 794.124C335.552 792.385 335.738 790.472 335.368 788.628C334.998 786.783 334.09 785.09 332.758 783.762C331.426 782.435 329.73 781.533 327.885 781.171C326.041 780.809 324.13 781.003 322.396 781.729C320.661 782.455 319.181 783.679 318.143 785.248C317.104 786.816 316.554 788.657 316.563 790.538C316.563 791.784 316.809 793.018 317.286 794.169C317.764 795.319 318.464 796.364 319.346 797.243C320.229 798.123 321.276 798.819 322.428 799.292C323.579 799.765 324.813 800.005 326.058 800V800Z" fill="#0080C8"/>
<path d="M301.675 692.271L182.877 587.239L179.602 590.933L298.4 696.006L301.675 692.271Z" fill="#0080C8"/>
<path fill-rule="evenodd" clip-rule="evenodd" d="M300.062 702.355C301.703 702.355 303.306 701.868 304.67 700.956C306.034 700.044 307.096 698.748 307.724 697.231C308.352 695.715 308.516 694.046 308.196 692.436C307.876 690.826 307.086 689.347 305.927 688.187C304.767 687.026 303.289 686.235 301.68 685.915C300.072 685.595 298.404 685.759 296.889 686.388C295.374 687.016 294.078 688.079 293.167 689.444C292.256 690.809 291.77 692.414 291.77 694.055C291.77 696.257 292.643 698.368 294.198 699.924C295.754 701.481 297.863 702.355 300.062 702.355Z" fill="#0080C8"/>
<path fill-rule="evenodd" clip-rule="evenodd" d="M180.971 597.821C182.736 597.829 184.464 597.313 185.935 596.338C187.407 595.362 188.556 593.972 189.237 592.342C189.918 590.713 190.101 588.918 189.761 587.184C189.422 585.451 188.576 583.857 187.331 582.605C186.086 581.353 184.498 580.499 182.767 580.152C181.037 579.804 179.242 579.978 177.611 580.652C175.979 581.326 174.585 582.47 173.603 583.938C172.622 585.406 172.098 587.133 172.098 588.899C172.098 591.258 173.031 593.521 174.694 595.193C176.357 596.865 178.614 597.81 180.971 597.821V597.821Z" fill="#0080C8"/>
<path d="M305.906 584.085L323.322 652.848L412.596 730.449L415.831 726.714L327.758 650.109L310.716 582.882L305.906 584.085Z" fill="#0080C8"/>
<path fill-rule="evenodd" clip-rule="evenodd" d="M410.109 737.047C411.987 737.047 413.823 736.49 415.384 735.446C416.946 734.402 418.163 732.917 418.882 731.181C419.6 729.445 419.788 727.534 419.422 725.69C419.056 723.847 418.151 722.154 416.823 720.825C415.495 719.496 413.803 718.591 411.961 718.224C410.119 717.857 408.21 718.045 406.475 718.765C404.74 719.484 403.257 720.702 402.214 722.265C401.17 723.827 400.613 725.665 400.613 727.544C400.613 730.065 401.614 732.482 403.394 734.264C405.175 736.046 407.591 737.047 410.109 737.047Z" fill="#0080C8"/>
</svg>
