<svg width="420" height="801" viewBox="0 0 420 801" fill="none" xmlns="http://www.w3.org/2000/svg">
<path fill-rule="evenodd" clip-rule="evenodd" d="M547.973 512.225L396.266 383.161V663.969L547.973 800.8V512.225Z" fill="#B4DCFF"/>
<path fill-rule="evenodd" clip-rule="evenodd" d="M396.266 191.913L547.973 55.0815V324.84L396.266 461.671V191.913Z" fill="#009C95"/>
<path fill-rule="evenodd" clip-rule="evenodd" d="M317.027 188.174V248.324L394.894 318.567V258.418L317.027 188.174Z" fill="#0080C8"/>
<path fill-rule="evenodd" clip-rule="evenodd" d="M468.736 258.418L396.266 193.034V319.772L440.221 359.442L468.736 333.729V258.418Z" fill="#005A9C"/>
<path fill-rule="evenodd" clip-rule="evenodd" d="M396.266 383.535L547.973 264.607V397.16L396.266 533.991V383.535Z" fill="#0080C8"/>
<path fill-rule="evenodd" clip-rule="evenodd" d="M547.973 393.297L396.266 256.465V383.203L547.973 520.034V393.297Z" fill="#78D3FF"/>
<path fill-rule="evenodd" clip-rule="evenodd" d="M396.637 262.489L244.93 125.657V395.457L396.637 532.288V262.489Z" fill="#005A9C"/>
<path fill-rule="evenodd" clip-rule="evenodd" d="M243.396 384.407L77.8672 235.114V373.399L243.396 522.693V384.407Z" fill="#009C95"/>
<path d="M212.722 249.861L364.139 109.166V177.831C313.39 224.909 262.655 271.987 211.934 319.066V250.567L212.722 249.861ZM359.158 120.465L216.914 252.602V307.808L359.158 175.671V120.465Z" fill="#0080C8"/>
<path d="M289.012 132.096L170.095 237.233L166.816 233.536L285.733 128.399L289.012 132.096Z" fill="#0080C8"/>
<path fill-rule="evenodd" clip-rule="evenodd" d="M287.391 122.043C289.033 122.043 290.638 122.53 292.003 123.443C293.368 124.356 294.432 125.654 295.061 127.172C295.689 128.69 295.853 130.36 295.533 131.972C295.213 133.584 294.422 135.064 293.261 136.226C292.1 137.388 290.621 138.179 289.011 138.499C287.4 138.82 285.731 138.655 284.214 138.027C282.698 137.398 281.401 136.333 280.489 134.967C279.577 133.6 279.09 131.994 279.09 130.351C279.09 128.148 279.964 126.035 281.521 124.477C283.078 122.919 285.19 122.043 287.391 122.043Z" fill="#0080C8"/>
<path fill-rule="evenodd" clip-rule="evenodd" d="M168.187 226.681C169.954 226.673 171.683 227.19 173.156 228.166C174.629 229.143 175.78 230.535 176.461 232.166C177.143 233.797 177.326 235.594 176.986 237.329C176.646 239.064 175.8 240.66 174.553 241.913C173.307 243.166 171.717 244.021 169.985 244.369C168.253 244.717 166.456 244.542 164.823 243.868C163.19 243.193 161.794 242.048 160.812 240.579C159.829 239.109 159.305 237.381 159.305 235.612C159.305 233.251 160.239 230.986 161.904 229.312C163.568 227.638 165.828 226.692 168.187 226.681Z" fill="#0080C8"/>
<path d="M242.233 483.479L369.741 368.955C369.326 447.714 368.939 526.486 368.579 605.273L240.738 720.795C240.987 641.897 241.278 563.041 241.61 484.227L242.44 483.479H242.233ZM364.719 380.087L246.383 486.429L245.553 709.579L363.598 603.072L364.719 380.087Z" fill="#78D3FF"/>
<path d="M187.402 631.111L249.621 577.691L269.378 499.181L322.092 458.597L325.122 462.502L273.778 502.047L254.062 580.391L190.64 634.891L187.402 631.111Z" fill="#0080C8"/>
<path fill-rule="evenodd" clip-rule="evenodd" d="M320.017 452.2C321.897 452.2 323.734 452.758 325.298 453.803C326.861 454.848 328.079 456.334 328.798 458.072C329.518 459.81 329.706 461.723 329.339 463.568C328.972 465.414 328.067 467.108 326.738 468.439C325.409 469.769 323.715 470.675 321.871 471.042C320.027 471.409 318.116 471.221 316.379 470.501C314.643 469.781 313.158 468.562 312.114 466.997C311.069 465.433 310.512 463.594 310.512 461.712C310.506 460.462 310.748 459.222 311.224 458.066C311.7 456.909 312.4 455.858 313.284 454.974C314.167 454.089 315.217 453.389 316.373 452.913C317.529 452.437 318.767 452.194 320.017 452.2Z" fill="#0080C8"/>
<path fill-rule="evenodd" clip-rule="evenodd" d="M302.544 522.153C304.422 522.153 306.258 522.709 307.82 523.753C309.383 524.796 310.601 526.279 311.322 528.015C312.042 529.751 312.233 531.662 311.869 533.506C311.506 535.35 310.605 537.045 309.28 538.377C307.955 539.709 306.265 540.618 304.424 540.99C302.583 541.362 300.673 541.179 298.935 540.465C297.198 539.752 295.71 538.539 294.661 536.98C293.612 535.421 293.047 533.586 293.039 531.707C293.039 530.459 293.285 529.224 293.763 528.073C294.242 526.921 294.942 525.875 295.826 524.995C296.709 524.115 297.757 523.418 298.91 522.945C300.063 522.471 301.298 522.23 302.544 522.236V522.153Z" fill="#0080C8"/>
<path fill-rule="evenodd" clip-rule="evenodd" d="M131.908 421.17L0 302.2V536.774L131.908 655.702V421.17Z" fill="#D4EDFC"/>
<path fill-rule="evenodd" clip-rule="evenodd" d="M101.773 555.301L190.556 475.213V633.105L101.773 713.235V555.301Z" fill="#0080C8"/>
<path fill-rule="evenodd" clip-rule="evenodd" d="M69.3984 533.95L131.908 477.539V655.702L120.701 645.608L69.3984 599.333V533.95Z" fill="#78D3FF"/>
<path d="M102.605 709.164L301.879 530.876L305.2 534.531L105.885 712.861L102.605 709.164Z" fill="#0080C8"/>
<path d="M104.803 709.33L120.742 721.792L200.476 648.973L239.825 686.234L336.867 599.125L340.146 602.822L239.742 693.005L200.393 655.702L120.95 728.23L101.773 713.235L104.803 709.33Z" fill="#0080C8"/>
<path fill-rule="evenodd" clip-rule="evenodd" d="M335.167 594.016C337.05 594.008 338.894 594.56 340.463 595.602C342.032 596.644 343.257 598.129 343.982 599.869C344.706 601.609 344.898 603.525 344.533 605.374C344.167 607.223 343.261 608.922 341.929 610.255C340.597 611.588 338.9 612.495 337.052 612.86C335.205 613.226 333.29 613.034 331.552 612.309C329.813 611.584 328.329 610.358 327.288 608.787C326.247 607.217 325.695 605.372 325.703 603.487C325.703 600.975 326.7 598.566 328.475 596.79C330.25 595.014 332.657 594.016 335.167 594.016Z" fill="#0080C8"/>
</svg>
