<svg width="282" height="260" viewBox="0 0 282 260" fill="none" xmlns="http://www.w3.org/2000/svg">
<path d="M34.5047 -63.3817L-95.4241 -180.08C-95.0012 -99.8261 -94.6064 -19.5581 -94.2399 60.724L36.0273 178.438C35.7736 98.0432 35.4775 17.6906 35.1391 -62.6198L34.2933 -63.3817H34.5047ZM-90.3065 -168.736L30.2753 -60.3764L31.1212 167.01L-89.1645 58.4807L-90.3065 -168.736V-168.736Z" fill="#78D3FF"/>
<path d="M90.375 87.0521L26.9755 32.6182L6.84326 -47.3818L-46.8708 -88.7363L-49.9583 -84.7575L2.36005 -44.4612L22.45 35.3695L87.076 90.9039L90.375 87.0521Z" fill="#0080C8"/>
<path fill-rule="evenodd" clip-rule="evenodd" d="M146.924 -126.874L281.336 -248.101V-9.0747L146.924 112.11V-126.874Z" fill="#D4EDFC"/>
<path fill-rule="evenodd" clip-rule="evenodd" d="M177.629 9.80372L87.1609 -71.8047V89.0842L177.629 170.735V9.80372Z" fill="#0080C8"/>
<path fill-rule="evenodd" clip-rule="evenodd" d="M210.621 -11.9531L146.926 -69.4346V112.11L158.345 101.825L210.621 54.6712V-11.9531Z" fill="#78D3FF"/>
<path d="M176.785 166.587L-26.2709 -15.0854L-29.6545 -11.3606L173.444 170.354L176.785 166.587Z" fill="#0080C8"/>
<path d="M174.541 166.756L158.3 179.455L77.0525 105.254L36.9573 143.222L-61.9274 54.46L-65.2687 58.2272L37.0418 150.121L77.1371 112.111L158.089 186.016L177.629 170.735L174.541 166.756Z" fill="#0080C8"/>
</svg>
