<svg width="765" height="519" viewBox="0 0 765 519" fill="none" xmlns="http://www.w3.org/2000/svg">
<path fill-rule="evenodd" clip-rule="evenodd" d="M558.372 479.911L403.785 348.397V634.535L558.372 773.964V479.911Z" fill="#B4DCFF"/>
<path fill-rule="evenodd" clip-rule="evenodd" d="M559.43 499.043L714.016 359.657V634.535L559.43 773.964V499.043Z" fill="#005A9C"/>
<path fill-rule="evenodd" clip-rule="evenodd" d="M843.945 171.212L713.086 53.2012V285.878L843.945 403.847V171.212Z" fill="#003263"/>
<path fill-rule="evenodd" clip-rule="evenodd" d="M583.41 170.662L714.227 52.6514V285.329L583.41 403.339V170.662Z" fill="#0080C8"/>
<path fill-rule="evenodd" clip-rule="evenodd" d="M867.587 224.842L713 85.4131V360.291L867.587 499.72V224.842Z" fill="#78D3FF"/>
<path fill-rule="evenodd" clip-rule="evenodd" d="M403.785 153.519L558.372 14.0903V288.969L403.785 428.397V153.519Z" fill="#FAFAFA"/>
<path fill-rule="evenodd" clip-rule="evenodd" d="M559.727 224.842L714.355 85.4131V360.291L559.727 499.72V224.842Z" fill="#FAFAFA"/>
<path fill-rule="evenodd" clip-rule="evenodd" d="M714.355 361.096L868.984 221.667V496.545L714.355 635.974V361.096Z" fill="#008FCB"/>
<path fill-rule="evenodd" clip-rule="evenodd" d="M449.887 325.413L477.632 350.429V300.397L449.887 325.413Z" fill="#0080C8"/>
<path fill-rule="evenodd" clip-rule="evenodd" d="M323.047 149.709V211L402.391 282.577V221.286L323.047 149.709Z" fill="#0080C8"/>
<path fill-rule="evenodd" clip-rule="evenodd" d="M477.631 221.286L403.785 154.662V283.805L448.575 324.228L477.631 298.027V221.286Z" fill="#005A9C"/>
<path fill-rule="evenodd" clip-rule="evenodd" d="M403.785 348.778L558.372 227.593V362.662L403.785 502.091V348.778Z" fill="#0080C8"/>
<path fill-rule="evenodd" clip-rule="evenodd" d="M558.372 358.725L403.785 219.297V348.44L558.372 487.868V358.725Z" fill="#78D3FF"/>
<path fill-rule="evenodd" clip-rule="evenodd" d="M748.614 206.344L733.727 193.096V137.138L748.614 150.429V206.344Z" fill="#FAFAFA"/>
<path fill-rule="evenodd" clip-rule="evenodd" d="M581.762 290.535L596.607 277.244V221.286L581.762 234.577V290.535Z" fill="#78D3FF"/>
<path fill-rule="evenodd" clip-rule="evenodd" d="M613.27 262.471L628.157 249.18V193.265L613.27 206.513V262.471Z" fill="#78D3FF"/>
<path fill-rule="evenodd" clip-rule="evenodd" d="M644.57 234.408L659.458 221.117V165.371L644.57 178.662V234.577V234.408Z" fill="#78D3FF"/>
<path fill-rule="evenodd" clip-rule="evenodd" d="M675.953 206.344L690.841 193.096V137.138C685.878 141.569 680.916 145.999 675.953 150.429V206.344Z" fill="#78D3FF"/>
<path fill-rule="evenodd" clip-rule="evenodd" d="M628.879 281.857H798.48V361.222H628.879V281.857Z" fill="#78D3FF"/>
<path fill-rule="evenodd" clip-rule="evenodd" d="M714.352 361.222H630.82L714.352 285.921V361.222Z" fill="#B4DCFF"/>
<path fill-rule="evenodd" clip-rule="evenodd" d="M798.477 361.222H714.945L798.477 285.921V361.222Z" fill="#D3D3D3"/>
<path fill-rule="evenodd" clip-rule="evenodd" d="M714.945 283.551H798.477L714.945 358.852V283.551Z" fill="#EDF8F3"/>
<path fill-rule="evenodd" clip-rule="evenodd" d="M557.398 505.815L714.946 361.223H557.398V505.815Z" fill="#FAFAFA"/>
<path fill-rule="evenodd" clip-rule="evenodd" d="M870.25 505.815L712.703 361.223H870.25V505.815Z" fill="#78D3FF"/>
<path fill-rule="evenodd" clip-rule="evenodd" d="M404.165 225.434L249.578 86.0059V360.926L404.165 500.355V225.434Z" fill="#005A9C"/>
<path fill-rule="evenodd" clip-rule="evenodd" d="M248.014 349.667L79.3438 197.54V338.45L248.014 490.577V349.667Z" fill="#FAFAFA"/>
<path d="M216.761 212.567L371.051 69.2017V139.17C319.339 187.142 267.641 235.113 215.957 283.085V213.286L216.761 212.567ZM365.976 80.7149L221.032 215.36V271.614L365.976 136.969V80.7149Z" fill="#0080C8"/>
<path d="M294.496 92.5665L173.322 199.699L169.98 195.932L291.154 88.7993L294.496 92.5665Z" fill="#0080C8"/>
<path fill-rule="evenodd" clip-rule="evenodd" d="M292.85 82.3232C294.523 82.3232 296.158 82.8197 297.549 83.7499C298.94 84.6801 300.024 86.0023 300.664 87.5492C301.305 89.0961 301.472 90.7982 301.146 92.4404C300.819 94.0826 300.014 95.591 298.831 96.7749C297.648 97.9589 296.141 98.7651 294.5 99.0918C292.859 99.4184 291.158 99.2507 289.612 98.61C288.067 97.9693 286.746 96.8842 285.816 95.492C284.887 94.0999 284.391 92.4632 284.391 90.7888C284.391 88.5436 285.282 86.3904 286.868 84.8028C288.455 83.2151 290.606 82.3232 292.85 82.3232Z" fill="#0080C8"/>
<path fill-rule="evenodd" clip-rule="evenodd" d="M171.379 188.947C173.179 188.939 174.942 189.466 176.443 190.46C177.944 191.455 179.116 192.874 179.81 194.536C180.505 196.198 180.691 198.029 180.345 199.797C179.999 201.565 179.136 203.191 177.866 204.468C176.596 205.745 174.976 206.616 173.211 206.97C171.446 207.325 169.615 207.147 167.951 206.46C166.287 205.772 164.865 204.606 163.864 203.108C162.863 201.611 162.328 199.85 162.328 198.048C162.328 195.642 163.28 193.333 164.977 191.628C166.673 189.922 168.975 188.959 171.379 188.947Z" fill="#0080C8"/>
<path d="M246.831 450.619L376.76 333.921C376.337 414.175 375.942 494.443 375.576 574.725L245.309 692.439C245.562 612.044 245.858 531.692 246.197 451.381L247.043 450.619H246.831ZM371.642 345.265L251.061 453.625L250.215 681.011L370.5 572.482L371.642 345.265Z" fill="#78D3FF"/>
<path d="M190.961 601.053L254.36 546.619L274.493 466.619L328.207 425.265L331.294 429.243L278.976 469.54L258.886 549.371L194.26 604.905L190.961 601.053Z" fill="#0080C8"/>
<path fill-rule="evenodd" clip-rule="evenodd" d="M326.092 418.746C328.007 418.746 329.88 419.315 331.473 420.38C333.066 421.445 334.307 422.959 335.04 424.73C335.773 426.501 335.965 428.45 335.591 430.33C335.217 432.211 334.295 433.938 332.94 435.293C331.586 436.649 329.86 437.572 327.981 437.946C326.103 438.32 324.155 438.128 322.385 437.395C320.616 436.661 319.103 435.419 318.039 433.824C316.974 432.23 316.406 430.356 316.406 428.439C316.401 427.165 316.647 425.902 317.132 424.723C317.617 423.545 318.33 422.474 319.231 421.573C320.131 420.672 321.201 419.958 322.379 419.473C323.556 418.988 324.818 418.741 326.092 418.746Z" fill="#0080C8"/>
<path fill-rule="evenodd" clip-rule="evenodd" d="M308.287 490.027C310.201 490.027 312.072 490.594 313.664 491.658C315.255 492.721 316.497 494.232 317.231 496.001C317.965 497.77 318.16 499.716 317.789 501.596C317.419 503.475 316.501 505.202 315.15 506.559C313.8 507.916 312.078 508.843 310.202 509.222C308.326 509.6 306.38 509.415 304.61 508.687C302.839 507.96 301.324 506.724 300.254 505.136C299.185 503.547 298.61 501.678 298.602 499.762C298.602 498.491 298.852 497.233 299.34 496.059C299.827 494.886 300.541 493.82 301.441 492.923C302.341 492.026 303.409 491.316 304.584 490.834C305.759 490.351 307.017 490.106 308.287 490.111V490.027Z" fill="#0080C8"/>
<path fill-rule="evenodd" clip-rule="evenodd" d="M134.412 387.127L0 265.9V504.926L134.412 626.112V387.127Z" fill="#D4EDFC"/>
<path fill-rule="evenodd" clip-rule="evenodd" d="M103.707 523.805L194.175 442.196V603.085L103.707 684.736V523.805Z" fill="#0080C8"/>
<path fill-rule="evenodd" clip-rule="evenodd" d="M70.7188 502.048L134.414 444.566V626.111L122.995 615.826L70.7188 568.672V502.048Z" fill="#78D3FF"/>
<path d="M104.555 680.587L307.611 498.916L310.994 502.64L107.896 684.355L104.555 680.587Z" fill="#0080C8"/>
</svg>
