<svg width="285" height="424" viewBox="0 0 285 424" fill="none" xmlns="http://www.w3.org/2000/svg">
<path fill-rule="evenodd" clip-rule="evenodd" d="M114.562 318.954L38.4829 250.85V343.578L114.562 411.682V318.954Z" fill="#D4EDFC"/>
<path fill-rule="evenodd" clip-rule="evenodd" d="M49.4805 267.459L24.9337 244.694V290.341L49.4805 313.107V267.459Z" fill="#78D3FF"/>
<path fill-rule="evenodd" clip-rule="evenodd" d="M54.5156 272.145L38.4867 257.239V302.886L54.5156 317.792V272.145Z" fill="#A1DAF8"/>
<path fill-rule="evenodd" clip-rule="evenodd" d="M67.9854 352.561C67.3482 352.561 66.7253 352.75 66.196 353.105C65.6667 353.46 65.255 353.964 65.0129 354.553C64.7709 355.143 64.7096 355.791 64.8368 356.415C64.9639 357.04 65.2738 357.612 65.7271 358.06C66.1804 358.508 66.7566 358.811 67.3825 358.931C68.0084 359.05 68.6557 358.981 69.2422 358.732C69.8287 358.483 70.3279 358.065 70.6763 357.531C71.0247 356.998 71.2067 356.373 71.199 355.735C71.199 355.315 71.1155 354.899 70.9536 354.511C70.7916 354.124 70.5543 353.772 70.2554 353.477C69.9565 353.181 69.6019 352.948 69.2122 352.791C68.8225 352.634 68.4055 352.555 67.9854 352.561Z" fill="#0077C8"/>
<path d="M30.1998 303.738L37.4787 330.066L67.9492 356.006" stroke="#0077C8" stroke-width="1.39383" stroke-miterlimit="22.93"/>
<path fill-rule="evenodd" clip-rule="evenodd" d="M30.2002 300.563C29.563 300.563 28.9403 300.753 28.411 301.107C27.8817 301.462 27.4698 301.966 27.2278 302.556C26.9857 303.145 26.9244 303.793 27.0516 304.418C27.1788 305.042 27.4887 305.615 27.942 306.063C28.3953 306.51 28.9715 306.813 29.5974 306.933C30.2233 307.053 30.8706 306.983 31.457 306.734C32.0435 306.485 32.5427 306.067 32.8911 305.534C33.2395 305 33.4215 304.375 33.4138 303.738C33.4036 302.892 33.0606 302.085 32.459 301.49C31.8575 300.896 31.0458 300.563 30.2002 300.563Z" fill="#0077C8"/>
<path d="M45.7613 363.363L84.7109 397.782" stroke="#0077C8" stroke-width="1.85843" stroke-miterlimit="22.93"/>
<path fill-rule="evenodd" clip-rule="evenodd" d="M45.7625 360.691C45.054 360.691 44.3744 360.973 43.8734 361.474C43.3724 361.975 43.091 362.654 43.091 363.363C43.0909 364.075 43.3711 364.759 43.8711 365.266C44.371 365.773 45.0504 366.063 45.7625 366.073C46.4782 366.063 47.1617 365.774 47.6678 365.268C48.1739 364.762 48.4626 364.079 48.4727 363.363C48.4625 362.651 48.1725 361.971 47.6653 361.471C47.1581 360.972 46.4746 360.691 45.7625 360.691Z" fill="#0077C8"/>
<path fill-rule="evenodd" clip-rule="evenodd" d="M84.8306 394.917C84.247 394.91 83.6743 395.076 83.1854 395.394C82.6964 395.713 82.3133 396.17 82.0846 396.707C81.856 397.244 81.7921 397.837 81.9012 398.41C82.0104 398.983 82.2874 399.511 82.6974 399.927C83.1073 400.342 83.6316 400.626 84.2034 400.743C84.7752 400.86 85.3688 400.804 85.9087 400.582C86.4487 400.36 86.9106 399.983 87.2356 399.499C87.5607 399.014 87.7343 398.444 87.7344 397.86C87.7344 397.086 87.4297 396.344 86.8863 395.793C86.3428 395.242 85.6042 394.928 84.8306 394.917Z" fill="#0077C8"/>
<path fill-rule="evenodd" clip-rule="evenodd" d="M255.535 88.0434L210.623 47.5837V127.342L255.535 167.801V88.0434Z" fill="#78D3FF"/>
<path fill-rule="evenodd" clip-rule="evenodd" d="M100.701 71.8984L156.531 21.6045V120.76L100.701 171.054V71.8984Z" fill="#ECECEC"/>
<path fill-rule="evenodd" clip-rule="evenodd" d="M211.859 176.745L156.029 126.451V225.645L211.859 275.939V176.745Z" fill="#78D3FF"/>
<path fill-rule="evenodd" clip-rule="evenodd" d="M212.169 220.341L267.961 170.047V269.202L212.169 319.496V220.341Z" fill="#0077C8"/>
<path d="M122.078 326.659L115.419 301.609L11.5013 205.938" stroke="#0077C8" stroke-width="1.39383" stroke-miterlimit="22.93"/>
<path fill-rule="evenodd" clip-rule="evenodd" d="M79.097 196.839C78.3313 196.839 77.5827 197.066 76.946 197.492C76.3093 197.917 75.8131 198.522 75.5201 199.229C75.227 199.937 75.1503 200.715 75.2997 201.466C75.4491 202.217 75.8179 202.907 76.3593 203.449C76.9008 203.99 77.5907 204.359 78.3418 204.508C79.0928 204.658 79.8712 204.581 80.5787 204.288C81.2862 203.995 81.8909 203.499 82.3163 202.862C82.7417 202.225 82.9688 201.477 82.9688 200.711C82.9688 199.684 82.5609 198.699 81.8348 197.973C81.1087 197.247 80.1239 196.839 79.097 196.839Z" fill="#004C97"/>
<path fill-rule="evenodd" clip-rule="evenodd" d="M11.6165 201.563C10.8508 201.563 10.1022 201.79 9.46551 202.216C8.82881 202.641 8.33253 203.246 8.03948 203.953C7.74644 204.661 7.66985 205.439 7.81924 206.19C7.96863 206.941 8.33739 207.631 8.87887 208.172C9.42034 208.714 10.1101 209.083 10.8612 209.232C11.6122 209.381 12.3908 209.305 13.0982 209.012C13.8057 208.719 14.4104 208.222 14.8358 207.586C15.2613 206.949 15.4883 206.2 15.4883 205.435C15.4883 204.408 15.0803 203.423 14.3542 202.697C13.6281 201.971 12.6434 201.563 11.6165 201.563Z" fill="#0077C8"/>
<path fill-rule="evenodd" clip-rule="evenodd" d="M122.23 323.871C121.464 323.871 120.715 324.098 120.079 324.524C119.442 324.949 118.946 325.554 118.653 326.261C118.36 326.969 118.283 327.747 118.432 328.498C118.582 329.249 118.951 329.939 119.492 330.481C120.034 331.022 120.723 331.391 121.474 331.54C122.225 331.69 123.004 331.613 123.712 331.32C124.419 331.027 125.024 330.531 125.449 329.894C125.874 329.257 126.102 328.509 126.102 327.743C126.102 326.716 125.694 325.731 124.968 325.005C124.241 324.279 123.257 323.871 122.23 323.871Z" fill="#0077C8"/>
<path d="M59.2734 249.96L47.1936 208.648L31.2807 194.71L23.3825 163.349L2.55249 147.359" stroke="#0077C8" stroke-width="1.39383" stroke-miterlimit="22.93"/>
<path d="M35.3872 140.428L44.0211 171.634L80.1445 202.453" stroke="#004C97" stroke-width="1.39383" stroke-miterlimit="22.93"/>
<path fill-rule="evenodd" clip-rule="evenodd" d="M3.87045 143.99C3.10469 143.99 2.35612 144.217 1.71942 144.643C1.08271 145.068 0.586434 145.673 0.293391 146.38C0.000348568 147.088 -0.0762434 147.866 0.0731487 148.617C0.22254 149.368 0.5913 150.058 1.13277 150.6C1.67424 151.141 2.36403 151.51 3.11508 151.659C3.86612 151.809 4.64466 151.732 5.35213 151.439C6.05959 151.146 6.6643 150.65 7.08973 150.013C7.51516 149.376 7.74219 148.628 7.74219 147.862C7.74219 146.835 7.33422 145.85 6.60813 145.124C5.88203 144.398 4.8973 143.99 3.87045 143.99Z" fill="#0077C8"/>
<path fill-rule="evenodd" clip-rule="evenodd" d="M35.347 136.905C34.5813 136.905 33.8327 137.132 33.196 137.557C32.5593 137.982 32.063 138.587 31.77 139.295C31.4769 140.002 31.4002 140.781 31.5496 141.532C31.699 142.283 32.0677 142.973 32.6092 143.514C33.1507 144.055 33.8406 144.424 34.5916 144.574C35.3427 144.723 36.1212 144.646 36.8287 144.353C37.5362 144.06 38.1407 143.564 38.5662 142.927C38.9916 142.291 39.2188 141.542 39.2188 140.776C39.2188 139.749 38.8108 138.765 38.0847 138.039C37.3586 137.312 36.3739 136.905 35.347 136.905Z" fill="#004C97"/>
<path d="M122.232 19.3975L176.32 67.0973M145.463 66.2455L95.3622 19.7846V40.7694L145.463 87.2303V66.2455Z" stroke="#0077C8" stroke-width="1.39383" stroke-miterlimit="22.93"/>
<path fill-rule="evenodd" clip-rule="evenodd" d="M122.345 15.2549C121.526 15.2549 120.725 15.4979 120.044 15.9531C119.363 16.4083 118.832 17.0553 118.518 17.8123C118.205 18.5693 118.122 19.4022 118.282 20.2059C118.442 21.0095 118.837 21.7477 119.416 22.327C119.995 22.9064 120.734 23.301 121.537 23.4608C122.341 23.6207 123.174 23.5386 123.931 23.2251C124.688 22.9115 125.335 22.3805 125.79 21.6992C126.245 21.018 126.488 20.217 126.488 19.3977C126.488 18.2989 126.052 17.2452 125.275 16.4683C124.498 15.6914 123.444 15.2549 122.345 15.2549Z" fill="#0077C8"/>
<path fill-rule="evenodd" clip-rule="evenodd" d="M177.056 63.6125C176.158 63.6125 175.281 63.8792 174.535 64.3787C173.789 64.8782 173.209 65.5879 172.867 66.4179C172.525 67.2479 172.438 68.1607 172.616 69.0405C172.794 69.9202 173.229 70.7273 173.867 71.3593C174.504 71.9912 175.315 72.4196 176.196 72.59C177.077 72.7604 177.989 72.6651 178.816 72.3163C179.643 71.9675 180.348 71.3809 180.841 70.6308C181.334 69.8808 181.593 69.0012 181.586 68.1037C181.586 67.5106 181.468 66.9234 181.24 66.376C181.012 65.8285 180.678 65.3317 180.257 64.9142C179.835 64.4966 179.336 64.1666 178.786 63.9432C178.237 63.7197 177.649 63.6074 177.056 63.6125Z" fill="#0077C8"/>
<path fill-rule="evenodd" clip-rule="evenodd" d="M284.884 154.637L254.723 181.778V145.771L285 118.669L284.884 127.961V154.637Z" fill="#009893"/>
<path fill-rule="evenodd" clip-rule="evenodd" d="M267.459 107.247C266.364 107.247 265.294 107.572 264.383 108.18C263.473 108.789 262.763 109.653 262.344 110.665C261.925 111.677 261.816 112.79 262.029 113.864C262.243 114.938 262.77 115.924 263.545 116.699C264.319 117.473 265.305 118 266.379 118.214C267.453 118.428 268.567 118.318 269.578 117.899C270.59 117.48 271.455 116.77 272.063 115.86C272.671 114.949 272.996 113.879 272.996 112.784C272.996 112.057 272.853 111.337 272.575 110.665C272.296 109.993 271.889 109.383 271.374 108.869C270.86 108.355 270.25 107.947 269.578 107.669C268.906 107.39 268.186 107.247 267.459 107.247Z" fill="#0077C8"/>
<path d="M267.617 114.178L254.608 59.8958L191.886 4.68481" stroke="#0077C8" stroke-width="1.39383" stroke-miterlimit="22.93"/>
<path fill-rule="evenodd" clip-rule="evenodd" d="M193.201 0.000135436C192.105 -0.00753363 191.03 0.310652 190.115 0.914339C189.199 1.51803 188.484 2.38001 188.059 3.39099C187.634 4.40197 187.518 5.5164 187.728 6.59293C187.937 7.66947 188.461 8.6596 189.234 9.43778C190.007 10.216 190.993 10.7471 192.068 10.9639C193.143 11.1807 194.258 11.0734 195.272 10.6555C196.286 10.2376 197.153 9.52798 197.763 8.61667C198.373 7.70536 198.699 6.6334 198.699 5.53672C198.689 4.08173 198.107 2.68921 197.078 1.66035C196.049 0.631486 194.656 0.0490008 193.201 0.0388611V0.000135436Z" fill="#0077C8"/>
<path fill-rule="evenodd" clip-rule="evenodd" d="M188.205 330.453L180.229 322.4C177.558 319.728 174.925 317.018 172.215 314.347C171.634 313.766 171.131 314.347 171.131 315.431V327.666C171.125 328.839 171.506 329.982 172.215 330.918C174.925 333.589 177.558 336.3 180.229 338.971L188.205 347.024C188.825 347.605 189.328 347.024 189.328 345.979V333.744C189.331 332.553 188.936 331.394 188.205 330.453Z" fill="#0080C8"/>
<path fill-rule="evenodd" clip-rule="evenodd" d="M190.878 330.763C198.621 326.001 206.365 321.122 214.108 316.36C214.999 315.818 215.734 316.36 215.734 317.56V329.834C215.725 330.441 215.574 331.038 215.291 331.576C215.009 332.114 214.603 332.578 214.108 332.931C206.365 337.693 198.621 342.572 190.878 347.334C190.521 347.505 190.131 347.594 189.736 347.594C189.34 347.594 188.95 347.505 188.593 347.334C189.019 347.334 189.329 346.985 189.329 346.056V333.821C189.332 332.63 188.937 331.472 188.206 330.53L187.935 330.221C189.794 331.537 190.607 330.801 190.878 330.647V330.763Z" fill="#005A9C"/>
<path fill-rule="evenodd" clip-rule="evenodd" d="M188.205 284.844L180.229 276.791C177.558 274.119 174.925 271.409 172.215 268.738C171.634 268.157 171.131 268.738 171.131 269.822V282.056C171.125 283.23 171.506 284.373 172.215 285.309C174.925 287.98 177.558 290.69 180.229 293.362L188.205 301.415C188.825 302.035 189.328 301.415 189.328 300.37V288.174C189.331 286.982 188.936 285.824 188.205 284.883V284.844Z" fill="#ECECEC"/>
<path fill-rule="evenodd" clip-rule="evenodd" d="M190.878 284.96C198.621 280.198 206.365 275.358 214.108 270.596C214.999 270.054 215.734 270.596 215.734 271.757V284.031C215.732 284.645 215.583 285.25 215.3 285.795C215.017 286.34 214.609 286.81 214.108 287.167C206.365 291.929 198.621 296.769 190.878 301.531C190.524 301.711 190.133 301.805 189.736 301.805C189.339 301.805 188.947 301.711 188.593 301.531C189.019 301.531 189.329 301.182 189.329 300.253V288.173C189.332 286.982 188.937 285.824 188.206 284.882L187.935 284.611C189.794 285.889 190.607 285.153 190.878 284.999V284.96Z" fill="#C6C6C6"/>
<path fill-rule="evenodd" clip-rule="evenodd" d="M188.205 301.182L180.229 293.129C177.558 290.458 174.925 287.747 172.215 285.076C171.634 284.456 171.131 285.076 171.131 286.16V311.714C171.131 312.886 171.511 314.027 172.215 314.966L180.229 323.019L188.205 331.072C188.824 331.692 189.328 331.072 189.328 330.027V304.473C189.341 303.292 188.944 302.143 188.205 301.221V301.182Z" fill="white"/>
<path fill-rule="evenodd" clip-rule="evenodd" d="M190.878 301.299C198.621 296.498 206.365 291.658 214.108 286.896C214.999 286.354 215.734 286.896 215.734 288.096V313.65C215.732 314.264 215.583 314.869 215.3 315.414C215.017 315.959 214.609 316.43 214.108 316.786C206.365 321.548 198.621 326.388 190.878 331.15C190.524 331.33 190.133 331.424 189.736 331.424C189.339 331.424 188.947 331.33 188.593 331.15C189.019 331.15 189.329 330.763 189.329 329.834V304.28C189.342 303.099 188.945 301.95 188.206 301.028L187.935 300.718C189.794 301.957 190.607 301.299 190.878 301.144V301.299Z" fill="#C6C6C6"/>
<path d="M188.786 300.602L172.796 284.496C172.602 284.299 172.362 284.153 172.099 284.07C171.947 284.002 171.782 283.968 171.615 283.968C171.448 283.968 171.284 284.002 171.131 284.07C170.89 284.242 170.691 284.467 170.55 284.728C170.382 285.159 170.303 285.62 170.318 286.083V311.636C170.32 312.348 170.438 313.054 170.666 313.727C170.857 314.369 171.202 314.954 171.673 315.431L177.365 321.2L187.663 331.537C187.85 331.752 188.091 331.912 188.36 332.002C188.673 332.117 189.016 332.117 189.328 332.002C189.557 331.826 189.742 331.601 189.87 331.344C190.043 330.927 190.122 330.478 190.103 330.027V304.474C190.087 303.761 189.956 303.054 189.715 302.383C189.531 301.735 189.2 301.139 188.747 300.641L188.786 300.602ZM182.243 296.304L187.663 301.725C187.917 302.065 188.113 302.444 188.244 302.848C188.409 303.361 188.501 303.896 188.515 304.435V330.182L178.526 320.116L172.796 314.385C172.532 314.052 172.335 313.671 172.215 313.263C172.05 312.762 171.959 312.241 171.944 311.714V285.928L182.243 296.304Z" fill="#C6C6C6"/>
<path fill-rule="evenodd" clip-rule="evenodd" d="M210.471 353.684L202.495 345.63C199.824 342.959 197.191 340.249 194.481 337.577C193.9 336.996 193.397 337.577 193.397 338.661V350.896C193.391 352.07 193.772 353.213 194.481 354.148C197.191 356.82 199.824 359.53 202.495 362.201L210.471 370.255C211.09 370.835 211.594 370.255 211.594 369.209V356.975C211.597 355.783 211.202 354.625 210.471 353.684Z" fill="#0080C8"/>
<path fill-rule="evenodd" clip-rule="evenodd" d="M212.944 353.993C220.688 349.231 228.431 344.352 236.175 339.59C237.065 339.048 237.801 339.59 237.801 340.79V353.064C237.792 353.671 237.64 354.269 237.357 354.807C237.075 355.345 236.67 355.809 236.175 356.161C228.431 360.923 220.688 365.802 212.944 370.564C212.588 370.736 212.197 370.825 211.802 370.825C211.406 370.825 211.016 370.736 210.66 370.564C211.086 370.564 211.395 370.216 211.395 369.286V357.052C211.399 355.86 211.003 354.702 210.273 353.761L210.002 353.451C211.86 354.767 212.673 354.032 212.944 353.877V353.993Z" fill="#005A9C"/>
<path fill-rule="evenodd" clip-rule="evenodd" d="M210.471 308.075L202.495 300.021C199.824 297.35 197.191 294.64 194.481 291.968C193.9 291.387 193.397 291.968 193.397 293.052V305.287C193.391 306.461 193.772 307.604 194.481 308.539C197.191 311.211 199.824 313.921 202.495 316.592L210.471 324.646C211.09 325.265 211.594 324.646 211.594 323.6V311.404C211.597 310.213 211.202 309.054 210.471 308.113V308.075Z" fill="#ECECEC"/>
<path fill-rule="evenodd" clip-rule="evenodd" d="M212.944 308.19C220.688 303.428 228.431 298.588 236.175 293.826C237.065 293.284 237.801 293.826 237.801 294.988V307.261C237.798 307.875 237.649 308.48 237.366 309.025C237.083 309.571 236.675 310.041 236.175 310.397C228.431 315.159 220.688 319.999 212.944 324.761C212.59 324.942 212.199 325.035 211.802 325.035C211.405 325.035 211.014 324.942 210.66 324.761C211.086 324.761 211.395 324.413 211.395 323.484V311.404C211.399 310.212 211.003 309.054 210.273 308.113L210.002 307.842C211.86 309.12 212.673 308.384 212.944 308.229V308.19Z" fill="#C6C6C6"/>
<path fill-rule="evenodd" clip-rule="evenodd" d="M210.471 324.413L202.495 316.36C199.823 313.688 197.191 310.978 194.48 308.306C193.9 307.687 193.396 308.306 193.396 309.391V334.944C193.396 336.117 193.777 337.258 194.48 338.196C197.191 340.868 199.823 343.539 202.495 346.249L210.471 354.264C211.09 354.883 211.593 354.264 211.593 353.219V327.665C211.606 326.484 211.21 325.335 210.471 324.413Z" fill="white"/>
<path fill-rule="evenodd" clip-rule="evenodd" d="M212.944 324.529C220.688 319.728 228.431 314.888 236.175 310.126C237.065 309.584 237.801 310.126 237.801 311.326V336.88C237.798 337.494 237.649 338.099 237.366 338.644C237.083 339.19 236.675 339.66 236.175 340.016C228.431 344.778 220.688 349.618 212.944 354.38C212.59 354.56 212.199 354.654 211.802 354.654C211.405 354.654 211.014 354.56 210.66 354.38C211.086 354.38 211.395 353.993 211.395 353.064V327.51C211.408 326.329 211.012 325.18 210.273 324.258L210.002 323.948C211.86 325.187 212.673 324.529 212.944 324.374V324.529Z" fill="#C6C6C6"/>
<path d="M211.475 323.019L195.484 306.951C195.298 306.737 195.057 306.576 194.787 306.487C194.635 306.419 194.47 306.385 194.303 306.385C194.137 306.385 193.972 306.419 193.82 306.487C193.56 306.638 193.356 306.869 193.239 307.145C193.066 307.562 192.987 308.011 193.006 308.461V334.015C193.005 334.726 193.123 335.433 193.355 336.105C193.576 336.745 193.918 337.337 194.362 337.848L200.053 343.578L210.352 353.993C210.55 354.184 210.788 354.329 211.049 354.419C211.201 354.486 211.366 354.521 211.533 354.521C211.699 354.521 211.864 354.486 212.017 354.419C212.244 354.259 212.43 354.046 212.559 353.799C212.728 353.382 212.807 352.933 212.791 352.483V326.891C212.775 326.168 212.658 325.451 212.443 324.761C212.221 324.122 211.88 323.53 211.436 323.019H211.475ZM204.931 318.76L210.352 324.181C210.616 324.499 210.813 324.868 210.933 325.265C211.095 325.792 211.186 326.339 211.204 326.891V352.638L201.215 342.571L195.484 336.802C195.22 336.483 195.023 336.115 194.904 335.718C194.738 335.205 194.647 334.67 194.633 334.131V308.384L204.931 318.76Z" fill="#C6C6C6"/>
<path d="M193.006 295.646V304.009C193.008 304.733 193.126 305.452 193.354 306.138C193.574 306.767 193.917 307.346 194.361 307.842L200.052 313.611L210.351 323.948C210.528 324.165 210.774 324.315 211.048 324.374C211.2 324.441 211.365 324.476 211.532 324.476C211.699 324.476 211.863 324.441 212.016 324.374C212.243 324.214 212.429 324.002 212.558 323.755C212.73 323.338 212.809 322.889 212.79 322.438V314.966L211.784 314.153L211.241 313.611V322.671L201.252 312.604C199.355 310.668 197.381 308.732 195.522 306.874C195.268 306.534 195.072 306.155 194.941 305.751C194.773 305.238 194.682 304.703 194.67 304.164V297.388L193.044 295.801L193.006 295.646Z" fill="#C6C6C6"/>
<path d="M170.979 273.964V282.366C170.981 283.077 171.099 283.783 171.327 284.457C171.517 285.099 171.863 285.684 172.334 286.16L178.103 292.045L188.402 302.383C188.588 302.597 188.829 302.758 189.099 302.848C189.411 302.963 189.754 302.963 190.067 302.848C190.286 302.663 190.469 302.44 190.609 302.189C190.781 301.773 190.86 301.323 190.841 300.873V293.4C190.485 293.156 190.148 292.884 189.834 292.587L189.292 292.045V301.105L179.303 291.039C177.406 289.142 175.431 287.167 173.573 285.309C173.309 284.975 173.112 284.594 172.992 284.186C172.827 283.685 172.736 283.164 172.721 282.637V275.823L171.095 274.235L170.979 273.964Z" fill="#C6C6C6"/>
<path fill-rule="evenodd" clip-rule="evenodd" d="M205.203 173.609L179.146 190.025L177.869 188.244C178.016 187.682 178.251 187.146 178.566 186.657L174.229 182.243C174.055 182.03 173.805 181.892 173.532 181.856L200.635 165.285L205.203 173.609Z" fill="#C6C6C6" stroke="#C6C6C6" stroke-width="1.81972" stroke-linecap="round" stroke-linejoin="round"/>
<path d="M238.852 256.58C237.884 251.469 234.089 207.641 234.012 201.137" stroke="#C6C6C6" stroke-width="1.81972" stroke-linecap="round" stroke-linejoin="round"/>
<path fill-rule="evenodd" clip-rule="evenodd" d="M228.432 191.806L218.327 181.662L208.222 171.479C206.17 169.427 204.35 170.318 203.924 173.686C202.221 184.759 200.556 195.833 198.852 206.867C197.149 217.901 195.484 228.975 193.819 240.009C193.493 242.82 193.757 245.668 194.594 248.372C195.21 250.922 196.432 253.286 198.155 255.264C204.892 262.039 211.59 268.815 218.327 275.552L238.731 295.917C240.164 297.35 241.403 297.427 242.255 296.111C243.247 294.026 243.533 291.674 243.068 289.412C241.364 274.971 239.699 260.491 237.996 246.088C236.292 231.685 234.627 217.243 232.962 202.802C232.585 198.766 231.007 194.936 228.432 191.806Z" fill="#005A9C"/>
<path d="M229.284 191.38L209.074 170.86C208.603 170.382 208.053 169.989 207.448 169.699C206.86 169.486 206.216 169.486 205.628 169.699C204.999 169.973 204.481 170.45 204.157 171.054C203.721 171.861 203.433 172.739 203.305 173.648L193.2 239.971C193.043 241.334 193.043 242.711 193.2 244.075C193.338 245.637 193.637 247.181 194.09 248.682C194.487 250.128 195.032 251.529 195.716 252.863C196.26 254.001 196.979 255.046 197.846 255.961L238.228 296.537C238.542 296.845 238.879 297.129 239.235 297.388C239.738 297.759 240.352 297.95 240.977 297.93C241.291 297.933 241.602 297.869 241.889 297.742C242.176 297.615 242.433 297.429 242.642 297.195C242.839 297.029 243.008 296.833 243.145 296.614C243.709 295.67 244.053 294.612 244.152 293.517C244.304 292.114 244.304 290.699 244.152 289.297L234.046 202.686C233.78 200.433 233.234 198.222 232.42 196.104C231.77 194.3 230.77 192.642 229.478 191.225L229.284 191.38ZM219.915 184.566L227.968 192.658C229.109 193.882 229.98 195.334 230.523 196.917C231.293 198.897 231.813 200.965 232.072 203.073L242.138 289.645C242.296 290.931 242.296 292.231 242.138 293.517C242.082 294.333 241.844 295.127 241.441 295.84L241.17 296.149C241.122 296.219 241.059 296.276 240.985 296.316C240.911 296.356 240.829 296.379 240.745 296.382C240.465 296.313 240.219 296.148 240.048 295.917C239.782 295.751 239.535 295.556 239.312 295.336L198.93 254.761C198.188 253.985 197.573 253.096 197.11 252.128C196.505 250.884 196.013 249.588 195.639 248.256C195.243 246.861 194.959 245.437 194.787 243.997C194.633 242.711 194.633 241.411 194.787 240.125L204.892 173.803C204.959 173.114 205.156 172.443 205.473 171.828C205.612 171.61 205.797 171.425 206.015 171.286C206.191 171.23 206.381 171.23 206.557 171.286C206.947 171.483 207.3 171.745 207.602 172.06L219.721 184.295L219.915 184.566Z" fill="#005A9C"/>
<path d="M212.559 271.99C211.552 266.879 207.758 223.051 207.68 216.546" stroke="#C6C6C6" stroke-width="1.81972" stroke-linecap="round" stroke-linejoin="round"/>
<path fill-rule="evenodd" clip-rule="evenodd" d="M171.789 228.51C170.434 237.338 169.079 246.126 167.917 254.954L165.362 252.36C164.016 250.481 163.261 248.243 163.194 245.933C162.536 237.376 161.877 228.82 161.219 220.186C161.182 219.644 161.182 219.101 161.219 218.56C160.964 217.635 160.964 216.658 161.219 215.733C164.897 205.241 168.537 194.71 172.215 184.14C172.757 182.63 173.183 180.926 174.383 182.088L178.797 186.502C178.34 187.257 178.049 188.102 177.945 188.98C175.932 202.066 173.944 215.127 171.983 228.162L171.789 228.51Z" fill="white"/>
<path d="M170.86 228.626L166.988 253.096L165.711 251.818C165.148 251.168 164.738 250.401 164.51 249.572C164.115 248.396 163.881 247.172 163.814 245.933L161.839 220.186V219.295V218.676C161.86 218.587 161.86 218.494 161.839 218.405C161.802 217.98 161.802 217.552 161.839 217.127C161.795 216.793 161.795 216.455 161.839 216.12C165.711 205.473 169.312 194.826 172.951 184.179C173.107 183.638 173.328 183.118 173.609 182.63L177.481 186.502C177.481 186.695 178.565 188.515 178.488 188.747C178.322 189.251 178.206 189.77 178.139 190.296L170.899 227.697C170.847 227.874 170.847 228.062 170.899 228.239L170.86 228.626ZM172.719 228.626V228.278L178.681 189.134C178.736 188.727 178.827 188.326 178.952 187.934C179.042 187.646 179.172 187.372 179.339 187.121C179.478 186.96 179.555 186.754 179.555 186.54C179.555 186.327 179.478 186.121 179.339 185.96L174.964 181.546C173.958 180.578 173.183 180.655 172.486 181.546C171.967 182.207 171.597 182.973 171.402 183.791C167.763 194.439 164.007 205.086 160.29 215.733C160.126 216.233 160.047 216.756 160.058 217.282C160.003 217.823 160.003 218.367 160.058 218.908C160.058 219.45 160.058 219.953 160.058 220.534L162.033 246.281C162.14 247.601 162.413 248.902 162.846 250.153C163.145 251.25 163.703 252.259 164.472 253.096L166.95 255.612C167.085 255.78 167.278 255.891 167.492 255.922C167.733 255.955 167.977 255.893 168.173 255.748C168.368 255.603 168.499 255.388 168.537 255.148L172.409 228.704L172.719 228.626Z" fill="#C6C6C6"/>
<path fill-rule="evenodd" clip-rule="evenodd" d="M215.193 315.508L243.418 296.847C243.482 296.86 243.548 296.86 243.612 296.847L244.967 291.387C245.004 291.316 245.023 291.236 245.023 291.155C245.023 291.074 245.004 290.995 244.967 290.923C244.872 290.851 244.756 290.812 244.638 290.812C244.519 290.812 244.403 290.851 244.308 290.923L219.839 306.023L220.033 304.28L217.671 305.558V306.991C217.843 308.353 217.843 309.732 217.671 311.095C217.568 312.152 217.224 313.172 216.664 314.076L216.2 314.657C215.76 315.107 215.164 315.371 214.535 315.392C214.575 315.434 214.623 315.468 214.676 315.491C214.729 315.514 214.786 315.526 214.844 315.526C214.902 315.526 214.96 315.514 215.013 315.491C215.066 315.468 215.114 315.434 215.154 315.392L215.193 315.508Z" fill="#005A9C"/>
<path fill-rule="evenodd" clip-rule="evenodd" d="M206.053 169.505L177.324 189.948L176.782 191.109L175.969 196.413L176.473 192.968C176.976 189.599 180.035 188.593 182.125 190.645C188.824 197.459 195.599 204.196 202.297 210.971C203.982 212.925 205.188 215.245 205.82 217.747L208.26 215.037L233 199.124L228.857 192.193L206.053 169.66V169.505Z" fill="#005A9C"/>
<path fill-rule="evenodd" clip-rule="evenodd" d="M195.87 198.853L205.201 208.377C205.285 208.479 205.392 208.56 205.513 208.614C205.634 208.668 205.766 208.693 205.898 208.687C206.134 208.687 206.361 208.593 206.528 208.426C206.695 208.259 206.788 208.032 206.788 207.796V200.672C206.793 200.555 206.771 200.439 206.724 200.331C206.677 200.224 206.606 200.129 206.517 200.053L198.425 191.961L187.507 180.926C187.423 180.824 187.316 180.743 187.195 180.689C187.074 180.635 186.943 180.611 186.81 180.617C186.577 180.626 186.356 180.723 186.191 180.888C186.026 181.053 185.929 181.274 185.92 181.507V188.631C185.915 188.748 185.937 188.865 185.984 188.972C186.031 189.079 186.102 189.175 186.191 189.251L195.715 198.853H195.87Z" fill="#DADADA"/>
<path fill-rule="evenodd" clip-rule="evenodd" d="M206.554 208.532L228.081 194.903C228.206 194.818 228.307 194.702 228.375 194.566C228.442 194.431 228.475 194.28 228.468 194.129V187.044C228.473 186.924 228.454 186.804 228.412 186.691C228.369 186.579 228.304 186.476 228.221 186.389C228.138 186.302 228.038 186.233 227.927 186.186C227.817 186.139 227.698 186.114 227.577 186.115C227.412 186.075 227.239 186.075 227.074 186.115L205.547 199.782C205.42 199.859 205.315 199.967 205.241 200.096C205.166 200.224 205.125 200.369 205.121 200.517V207.641C205.121 207.762 205.145 207.881 205.193 207.991C205.24 208.102 205.309 208.202 205.396 208.285C205.483 208.368 205.585 208.433 205.698 208.476C205.81 208.518 205.93 208.537 206.05 208.532C206.214 208.588 206.391 208.588 206.554 208.532Z" fill="#C6C6C6"/>
<path fill-rule="evenodd" clip-rule="evenodd" d="M181.972 167.762V168.769C182.016 172.761 183.377 176.626 185.844 179.765C189.225 183.12 192.593 186.528 195.949 189.986L206.093 200.091C207.603 201.64 208.919 201.176 209.5 199.201C208.595 189.533 206.407 180.028 202.996 170.937C198.896 159.967 193.708 149.435 187.509 139.499C184.151 148.199 182.737 157.529 183.366 166.833C183.133 168.072 182.785 168.382 182.204 167.724L181.972 167.762Z" fill="white" stroke="#C6C6C6" stroke-width="1.81972" stroke-linecap="round" stroke-linejoin="round"/>
<path fill-rule="evenodd" clip-rule="evenodd" d="M213.639 164.743C219.06 192.813 215.459 204.583 209.574 200.246C208.755 190.23 206.54 180.378 202.992 170.976C198.893 160.006 193.704 149.473 187.505 139.538C184.148 148.238 182.734 157.567 183.362 166.872C182.936 169.311 181.891 168.111 180.149 163.349C177.361 144.455 177.903 133.73 181.659 131.175C177.98 133.149 173.915 127.651 170.043 114.836C168.959 108.486 170.043 107.092 172.947 110.151C174.38 112.551 175.309 112.397 175.774 109.725C178.445 105.544 181.117 104.692 183.788 107.015C186.46 109.338 189.208 114.758 191.957 123.663C197.389 128.502 201.878 134.304 205.199 140.776C209.151 148.299 211.932 156.381 213.446 164.743H213.639Z" fill="#0080C8" stroke="#0080C8" stroke-width="1.81972" stroke-linecap="round" stroke-linejoin="round"/>
<path fill-rule="evenodd" clip-rule="evenodd" d="M240.357 184.411C243.686 179.533 243.299 166.627 239.195 145.694C234.523 127.909 227.464 115.391 218.017 108.138L192.308 124.089C197.577 128.829 201.945 134.482 205.201 140.776C209.092 148.164 211.834 156.102 213.332 164.317C214.559 169.309 215.336 174.401 215.655 179.533C216.662 189.831 215.887 196.452 214.145 199.395C214.145 199.975 213.874 200.556 213.719 201.098L240.163 184.411H240.357Z" fill="#005A9C" stroke="#005A9C" stroke-width="0.929217" stroke-linecap="round" stroke-linejoin="round"/>
<path fill-rule="evenodd" clip-rule="evenodd" d="M175.079 111.235C174.934 111.405 174.747 111.533 174.536 111.608C174.325 111.683 174.099 111.701 173.879 111.661C173.402 111.224 172.996 110.715 172.679 110.151C171.479 108.835 170.549 108.331 170.007 108.602L169.736 108.292C189.147 97.4774 198 92.4571 196.296 93.2314C197.502 93.2319 198.687 93.5383 199.742 94.1219L189.327 100.51C185.03 103.143 182.281 104.769 181.119 105.427C181.011 105.503 180.929 105.612 180.887 105.737C180.385 105.702 179.882 105.782 179.416 105.969C178.254 106.322 177.223 107.01 176.451 107.947C175.68 108.884 175.202 110.028 175.079 111.235Z" fill="#005A9C"/>
<path d="M192.079 123.973L218.252 108.486C218.344 108.444 218.418 108.37 218.461 108.277C218.503 108.185 218.512 108.081 218.484 107.983C217.443 103.755 215.855 99.6811 213.76 95.8642C212.346 93.1679 210.199 90.9264 207.566 89.3984C207.494 89.361 207.414 89.3416 207.333 89.3416C207.252 89.3416 207.173 89.361 207.101 89.3984C199.667 94.0445 193.743 97.6968 189.33 100.355C185.032 102.988 182.283 104.614 181.122 105.272C181.013 105.348 180.932 105.457 180.889 105.582C181.884 105.705 182.81 106.154 183.522 106.86C186.232 109.183 188.943 114.603 191.691 123.508L192.079 123.818V123.973Z" fill="#004C97"/>
<path fill-rule="evenodd" clip-rule="evenodd" d="M192.851 201.563C191.148 199.898 189.289 198.001 187.47 196.104C185.65 194.207 183.869 192.232 182.165 190.761C181.712 190.272 181.157 189.889 180.539 189.638C179.938 189.425 179.282 189.425 178.681 189.638C178.066 189.894 177.55 190.343 177.209 190.916C176.778 191.708 176.502 192.575 176.396 193.471C175.545 198.853 174.848 204.428 174.151 210.003C173.454 215.579 172.757 221.309 171.905 226.69L166.872 258.942C166.71 260.228 166.71 261.528 166.872 262.814C167.015 264.325 167.314 265.817 167.762 267.266C168.16 268.7 168.705 270.088 169.389 271.409C169.942 272.506 170.66 273.511 171.518 274.39L211.9 313.921L212.907 314.734C213.416 315.095 214.026 315.284 214.649 315.276C215.278 315.255 215.875 314.991 216.314 314.54L216.779 313.959C217.338 313.056 217.683 312.036 217.785 310.978C217.957 309.616 217.957 308.237 217.785 306.874L207.68 222.548C207.289 219.368 206.602 216.231 205.628 213.178C205.628 212.946 194.284 202.724 193.006 201.563H192.851Z" fill="#0080C8"/>
<path fill-rule="evenodd" clip-rule="evenodd" d="M242.948 288.754L244.419 290.264C245.619 291.465 246.394 290.264 246.587 288.212L248.562 266.453C248.562 265.911 248.562 265.369 248.562 264.904C248.792 263.95 248.792 262.955 248.562 262.001C244.922 244.113 241.257 226.213 237.566 208.3C237.374 206.001 236.63 203.783 235.398 201.834C234.314 200.711 233.191 199.588 232.068 198.504C233.72 212.83 235.398 227.181 237.101 241.558L242.096 284.534L242.948 288.754Z" fill="white"/>
<path fill-rule="evenodd" clip-rule="evenodd" d="M216.624 304.164L218.095 305.674C219.295 306.874 220.07 305.674 220.263 303.622C220.921 296.382 221.618 289.141 222.238 281.863C222.274 281.347 222.274 280.829 222.238 280.314C222.468 279.36 222.468 278.364 222.238 277.41C218.598 259.523 214.933 241.622 211.242 223.709C210.918 221.056 210.048 218.498 208.687 216.198C207.602 215.075 206.48 213.952 205.357 212.868C207.06 227.194 209.229 242.603 210.777 256.967C212.326 271.331 214.107 285.657 215.772 299.944L216.624 304.164Z" fill="white"/>
<path fill-rule="evenodd" clip-rule="evenodd" d="M222.433 278.843L210.314 219.644L209.501 217.747L205.204 212.868L231.647 197.381C231.791 197.342 231.943 197.343 232.087 197.384C232.23 197.425 232.359 197.504 232.461 197.614L235.829 200.982C236.552 201.819 237.069 202.813 237.339 203.886V204.351C237.571 205.241 237.765 206.17 237.92 207.099L249.07 261.304C240.35 267.466 231.302 273.153 221.968 278.339L222.433 278.843Z" fill="#C6C6C6"/>
<path fill-rule="evenodd" clip-rule="evenodd" d="M247.251 287.322C247.233 287.781 247.105 288.229 246.875 288.627C246.646 289.025 246.323 289.361 245.934 289.606L219.839 305.674L222.433 278.843L249.535 261.807L247.328 287.322H247.251Z" fill="#ECECEC"/>
<path fill-rule="evenodd" clip-rule="evenodd" d="M127.648 360.498V377.882L119.285 383.341L107.786 390.775V373.197L127.648 360.498Z" fill="#C6C6C6"/>
<path d="M126.759 362.085V377.572L108.678 389.187V373.7L126.759 362.085ZM128.502 377.882V360.498C128.541 360.345 128.541 360.186 128.502 360.033C128.439 359.933 128.357 359.847 128.26 359.779C128.163 359.712 128.054 359.664 127.939 359.638C127.824 359.613 127.704 359.611 127.588 359.632C127.472 359.654 127.362 359.698 127.263 359.762L107.517 372.384C107.364 372.458 107.236 372.573 107.147 372.717C107.058 372.861 107.012 373.028 107.014 373.197V390.813C106.98 390.967 106.98 391.125 107.014 391.278C107.146 391.462 107.341 391.591 107.562 391.641C107.784 391.691 108.015 391.658 108.214 391.549L128.037 378.656C128.169 378.575 128.278 378.461 128.353 378.326C128.428 378.19 128.466 378.037 128.463 377.882H128.502Z" fill="#C6C6C6"/>
<path fill-rule="evenodd" clip-rule="evenodd" d="M87.5438 354.148V371.532L95.8681 379.933L107.367 391.394V373.777L87.5438 354.148Z" fill="white"/>
<path d="M86.6505 353.993V371.377C86.6473 371.509 86.6733 371.64 86.7269 371.76C86.7805 371.881 86.8601 371.988 86.9602 372.074L95.2457 380.398L106.861 392.013C106.941 392.098 107.037 392.165 107.143 392.211C107.25 392.257 107.364 392.281 107.48 392.281C107.596 392.281 107.711 392.257 107.818 392.211C107.924 392.165 108.02 392.098 108.1 392.013C108.187 391.936 108.256 391.84 108.303 391.733C108.35 391.626 108.373 391.511 108.371 391.394V373.778C108.374 373.651 108.347 373.526 108.294 373.412C108.24 373.298 108.16 373.197 108.061 373.119L88.2765 353.528C88.104 353.365 87.8754 353.274 87.6378 353.274C87.4001 353.274 87.1715 353.365 86.9989 353.528C86.8564 353.704 86.7749 353.922 86.7666 354.148L86.6505 353.993ZM88.3927 371.029V356.122L106.474 373.971V389.11L96.4847 379.159L88.3927 371.029Z" fill="#C6C6C6"/>
<path fill-rule="evenodd" clip-rule="evenodd" d="M164.547 388.568V405.952L151.344 414.547L139.845 421.981V404.403L164.547 388.568Z" fill="#C6C6C6"/>
<path d="M163.66 390.155V405.448C155.916 410.456 148.276 415.438 140.739 420.393V404.906L163.66 390.194V390.155ZM165.441 405.952V388.529C165.457 388.375 165.457 388.219 165.441 388.064C165.301 387.878 165.099 387.747 164.872 387.698C164.644 387.648 164.406 387.682 164.202 387.793L139.577 403.629C139.438 403.705 139.321 403.816 139.24 403.953C139.158 404.089 139.114 404.244 139.113 404.403V421.981C139.073 422.146 139.073 422.319 139.113 422.484C139.252 422.671 139.457 422.799 139.687 422.842C139.916 422.886 140.154 422.841 140.352 422.716L164.976 406.687C165.112 406.618 165.227 406.513 165.309 406.383C165.391 406.254 165.436 406.105 165.441 405.952Z" fill="#C6C6C6"/>
<path fill-rule="evenodd" clip-rule="evenodd" d="M113.404 379.198V396.582L121.767 404.984L139.422 422.6V404.984L113.404 379.198Z" fill="white"/>
<path d="M112.552 379.198V396.582C112.574 396.843 112.683 397.088 112.862 397.279L121.186 405.603L138.841 423.22C138.921 423.304 139.017 423.371 139.124 423.417C139.23 423.463 139.345 423.487 139.461 423.487C139.577 423.487 139.692 423.463 139.798 423.417C139.905 423.371 140.001 423.304 140.08 423.22C140.249 423.057 140.346 422.834 140.351 422.6V404.984C140.354 404.858 140.328 404.733 140.274 404.618C140.22 404.504 140.141 404.404 140.042 404.326L114.062 378.579C113.983 378.494 113.887 378.427 113.78 378.381C113.674 378.335 113.559 378.312 113.443 378.312C113.327 378.312 113.212 378.335 113.105 378.381C112.999 378.427 112.903 378.494 112.823 378.579C112.676 378.752 112.593 378.971 112.591 379.198H112.552ZM114.294 396.234V381.328L138.532 405.332V420.471L122.386 404.364L114.294 396.234Z" fill="#C6C6C6"/>
<path d="M109.102 374.397L134.269 358.678C134.324 358.646 134.37 358.601 134.404 358.547C134.438 358.493 134.458 358.432 134.462 358.368V298.434C134.492 298.346 134.492 298.25 134.462 298.163C134.356 298.084 134.227 298.042 134.094 298.042C133.962 298.042 133.833 298.084 133.727 298.163L108.676 312.604C108.611 312.637 108.555 312.687 108.514 312.748C108.474 312.809 108.45 312.879 108.444 312.953V374.126C108.412 374.227 108.412 374.335 108.444 374.436C108.554 374.524 108.69 374.572 108.831 374.572C108.972 374.572 109.109 374.524 109.218 374.436L109.102 374.397Z" fill="#004C97"/>
<path fill-rule="evenodd" clip-rule="evenodd" d="M150.34 327.162L150.689 317.173L150.844 265.292L92.8452 220.379L87.3473 223.012L78.7132 242.216L76.2741 262.814L118.786 316.979L150.34 327.162Z" fill="white"/>
<path fill-rule="evenodd" clip-rule="evenodd" d="M117.662 207.641L87.7723 220.689L92.9604 221.347L98.7293 225.761L124.012 213.952L117.662 207.641Z" fill="#DADADA"/>
<path d="M98.4968 224.445H98.2258C97.3645 223.474 96.4328 222.568 95.4381 221.735C93.8559 220.61 91.9589 220.014 90.0177 220.031C89.2036 220.017 88.3947 220.164 87.6373 220.463C86.88 220.762 86.189 221.207 85.6039 221.773V222.006C84.7521 224.29 82.3904 230.795 80.6094 234.473C79.5406 236.786 78.3384 239.036 77.0087 241.21V241.403L75.5374 254.877C76.1662 254.67 76.8446 254.67 77.4733 254.877H77.6669L79.0607 241.945C80.4089 239.762 81.6241 237.499 82.7001 235.17C84.4036 231.53 86.7654 225.064 87.6946 222.741C88.0884 222.344 88.5599 222.033 89.0795 221.826C89.5992 221.62 90.1557 221.523 90.7146 221.541C92.1048 221.527 93.4625 221.962 94.5863 222.78L96.8706 225.026L87.5397 264.943C88.1484 265.798 88.6552 266.72 89.0498 267.692C89.0498 267.692 89.0497 268.041 89.2433 268.196L98.5742 226.962L96.832 225.258L98.4968 224.445ZM88.469 265.873C87.7245 264.896 86.8519 264.023 85.8749 263.278L88.469 265.873Z" fill="#DADADA"/>
<path fill-rule="evenodd" clip-rule="evenodd" d="M117.857 209.655L93.8526 221.502L100.744 228.123L124.207 215.927L117.857 209.655Z" fill="#005A9C"/>
<path fill-rule="evenodd" clip-rule="evenodd" d="M131.021 257.2L153.051 245.585C153.195 245.511 153.318 245.4 153.406 245.264C153.494 245.129 153.546 244.972 153.555 244.81V237.841C153.535 237.581 153.415 237.339 153.22 237.165C153.025 236.992 152.77 236.901 152.509 236.912C152.318 236.867 152.12 236.867 151.929 236.912L129.898 248.527C129.756 248.6 129.637 248.711 129.555 248.848C129.473 248.985 129.431 249.142 129.434 249.301V256.387C129.439 256.514 129.469 256.639 129.522 256.754C129.575 256.87 129.651 256.974 129.744 257.06C129.838 257.146 129.947 257.213 130.067 257.257C130.186 257.301 130.313 257.321 130.44 257.316C130.631 257.36 130.83 257.36 131.021 257.316V257.2Z" fill="#C6C6C6"/>
<path fill-rule="evenodd" clip-rule="evenodd" d="M117.043 245.856L127.845 256.697C128.054 256.934 128.343 257.086 128.658 257.122C128.778 257.151 128.904 257.153 129.025 257.128C129.146 257.103 129.261 257.052 129.36 256.978C129.46 256.904 129.542 256.81 129.601 256.701C129.66 256.592 129.695 256.472 129.703 256.348V249.224C129.673 248.977 129.564 248.746 129.393 248.566C126.296 245.507 123.199 242.41 120.14 239.312C115.958 235.131 106.318 224.329 102.175 220.147C101.971 219.903 101.679 219.75 101.362 219.721C101.244 219.692 101.12 219.69 101.001 219.715C100.881 219.741 100.769 219.792 100.673 219.867C100.576 219.941 100.497 220.036 100.442 220.145C100.387 220.254 100.358 220.374 100.355 220.496V227.62C100.353 227.742 100.376 227.864 100.422 227.977C100.469 228.09 100.538 228.193 100.626 228.278L117.043 245.856Z" fill="#DADADA"/>
<path fill-rule="evenodd" clip-rule="evenodd" d="M151.693 188.438L138.181 174.887C133.689 170.344 129.172 165.827 124.63 161.335C121.919 158.587 119.674 159.593 119.674 163.581V193.393C119.898 197.914 121.644 202.226 124.63 205.628L138.181 219.141L151.693 232.692C154.442 235.441 156.688 234.473 156.688 230.485V200.634C156.475 196.115 154.711 191.808 151.693 188.438Z" fill="white"/>
<path fill-rule="evenodd" clip-rule="evenodd" d="M129.935 141.822C122.501 139.267 117.274 151.308 117.274 158.354C117.274 165.401 117.274 160.406 117.274 161.491L138.065 182.282L158.973 202.996C158.973 202.028 158.973 206.867 158.973 200.014C157.524 185.388 153.237 171.185 146.351 158.2L129.857 141.706L129.935 141.822Z" fill="#005A9C"/>
<path d="M128.618 140.118C124.165 139.576 103.335 152.353 98.5728 154.947C99.7068 154.513 100.931 154.367 102.135 154.521C102.714 154.595 103.284 154.724 103.838 154.908H104.264C109.878 160.561 115.531 166.253 121.223 171.867L132.528 165.711L145.15 158.819L147.667 157.425C142.517 152.314 137.368 147.126 132.18 141.938C130.708 140.467 130.708 140.157 128.54 139.886L128.618 140.118ZM154.868 173.919C153.078 168.303 150.704 162.892 147.783 157.773C150.523 163.031 152.916 168.463 154.945 174.035L154.868 173.919Z" fill="#005A9C"/>
<path fill-rule="evenodd" clip-rule="evenodd" d="M147.67 157.619L121.187 172.021C124.738 178.39 127.544 185.145 129.55 192.154C131.967 199.432 133.513 206.97 134.158 214.611V214.92C150.767 204.389 160.602 198.853 160.602 198.853C159.031 184.357 154.638 170.31 147.67 157.502V157.619Z" fill="#004C97"/>
<path fill-rule="evenodd" clip-rule="evenodd" d="M129.394 249.456H129.2L130.362 221.076L132.878 219.721V223.128C132.905 223.362 133.012 223.579 133.182 223.741C133.352 223.904 133.573 224.002 133.807 224.019C133.983 224.078 134.174 224.078 134.349 224.019L158.277 210.739V230.562C158.337 231.76 158.07 232.951 157.502 234.008C157.1 234.675 156.466 235.171 155.721 235.402C150.572 238.267 135.317 245.894 129.587 249.03H129.394V249.456ZM132.878 216.004L132.375 215.501L132.878 215.811V216.004ZM131.717 214.843L123.547 206.635C121.861 204.859 120.545 202.767 119.676 200.479C118.718 198.235 118.192 195.831 118.127 193.393V168.924L121.224 172.021V193.587C121.3 195.683 121.773 197.746 122.618 199.665C123.331 201.552 124.395 203.286 125.754 204.776L133.807 212.829L132.026 213.836C131.879 213.896 131.759 214.008 131.687 214.151C131.616 214.293 131.599 214.456 131.639 214.61L131.717 214.843Z" fill="#DADADA"/>
<path fill-rule="evenodd" clip-rule="evenodd" d="M160.445 197.536L132.026 213.836C131.946 213.902 131.88 213.984 131.836 214.078C131.791 214.172 131.768 214.274 131.768 214.378C131.768 214.482 131.791 214.585 131.836 214.679C131.88 214.772 131.946 214.855 132.026 214.92C132.085 215.028 132.182 215.111 132.298 215.153L133.033 215.617V222.78C133.06 223.014 133.167 223.23 133.337 223.393C133.507 223.556 133.728 223.654 133.962 223.67C134.138 223.729 134.328 223.729 134.504 223.67L163.62 208.183C163.723 208.124 163.808 208.04 163.869 207.938C163.93 207.837 163.964 207.721 163.968 207.603L164.82 199.859C164.824 199.675 164.775 199.493 164.679 199.335C164.583 199.177 164.444 199.05 164.278 198.969L161.606 197.652C161.461 197.563 161.293 197.516 161.123 197.516C160.952 197.516 160.784 197.563 160.639 197.652L160.445 197.536Z" fill="#0080C8"/>
<path fill-rule="evenodd" clip-rule="evenodd" d="M178.102 302.615L150.806 317.289C146.663 289.103 149.451 284.689 136.287 263.317L160.02 251.702C171.636 270.247 172.913 282.676 178.102 302.654V302.615Z" fill="#C6C6C6"/>
<path d="M177.557 302.383L151.152 316.554C150.223 310.243 149.681 305.171 149.178 300.834C147.551 286.122 146.816 279.656 136.943 263.511L159.864 252.244C167.292 264.345 172.399 277.724 174.925 291.697C175.738 295.027 176.551 298.55 177.557 302.383ZM150.997 317.87L178.1 303.041C178.197 302.993 178.277 302.913 178.326 302.816C178.375 302.718 178.39 302.607 178.371 302.499C177.364 298.627 176.473 294.756 175.66 291.465C172.292 277.333 169.698 266.376 160.173 251.392C160.094 251.319 159.991 251.278 159.883 251.278C159.775 251.278 159.671 251.319 159.593 251.392L135.82 263.007C135.744 263.093 135.702 263.203 135.702 263.317C135.702 263.431 135.744 263.542 135.82 263.627C145.848 279.927 146.545 286.315 148.21 301.028C148.713 305.558 149.294 310.862 150.262 317.405C150.319 317.512 150.416 317.592 150.532 317.628C150.648 317.664 150.773 317.654 150.881 317.599L150.997 317.87Z" fill="#C6C6C6"/>
<path d="M150.998 333.937L178.41 317.676C178.468 317.638 178.516 317.587 178.55 317.526C178.584 317.465 178.602 317.397 178.604 317.328V302.692C178.643 302.593 178.643 302.482 178.604 302.383C178.497 302.304 178.368 302.262 178.236 302.262C178.103 302.262 177.975 302.304 177.868 302.383L150.766 317.366C150.698 317.396 150.64 317.445 150.599 317.506C150.557 317.568 150.535 317.641 150.534 317.715L150.34 333.666C150.295 333.778 150.295 333.903 150.34 334.015C150.444 334.1 150.574 334.146 150.708 334.146C150.842 334.146 150.972 334.1 151.076 334.015L150.998 333.937Z" fill="#ECECEC"/>
<path d="M140.313 405.449L165.48 389.962C165.538 389.924 165.586 389.872 165.62 389.812C165.653 389.751 165.672 389.683 165.673 389.613V327.665C165.703 327.578 165.703 327.482 165.673 327.394C165.567 327.316 165.438 327.273 165.305 327.273C165.173 327.273 165.044 327.316 164.938 327.394L139.887 341.836C139.829 341.874 139.781 341.925 139.747 341.986C139.714 342.047 139.695 342.115 139.694 342.184L139.5 405.255C139.467 405.369 139.467 405.49 139.5 405.604C139.613 405.685 139.748 405.729 139.887 405.729C140.027 405.729 140.162 405.685 140.275 405.604L140.313 405.449Z" fill="#004C97"/>
<path fill-rule="evenodd" clip-rule="evenodd" d="M154.56 360.265L179.61 344.391C180.182 344.235 180.669 343.859 180.965 343.346C181.343 342.646 181.517 341.855 181.469 341.062V317.56C181.422 316.112 181.121 314.683 180.578 313.34L151.114 330.569C150.996 330.652 150.913 330.777 150.882 330.918L149.062 360.536C149.062 360.536 149.062 360.536 149.062 360.73C149.114 360.856 149.208 360.96 149.328 361.024C149.448 361.087 149.587 361.107 149.72 361.078L154.095 360.575L154.56 360.265Z" fill="#9D9C9C"/>
<path d="M139.38 322.012L139.612 322.942H141.664L141.432 322.012C140.774 319.418 139.264 307.455 137.831 295.143C136.36 282.172 135.005 268.854 134.966 265.524V264.633L132.875 264.362V265.292C132.875 268.66 134.269 282.095 135.779 295.065C137.212 307.416 138.76 319.457 139.419 322.167L139.38 322.012Z" fill="#DADADA"/>
<path d="M149.253 325.845L141.509 318.102C141.003 317.586 140.397 317.177 139.728 316.902C139.09 316.671 138.392 316.671 137.754 316.902C137.193 317.059 136.711 317.417 136.399 317.908C136.047 318.603 135.874 319.375 135.895 320.154V343.694C135.937 345.172 136.252 346.629 136.825 347.992C137.373 349.431 138.202 350.747 139.264 351.864L147.007 359.607C147.499 360.132 148.092 360.554 148.75 360.846C149.401 361.073 150.111 361.073 150.763 360.846C151.312 360.687 151.782 360.328 152.079 359.839C152.467 359.142 152.654 358.352 152.621 357.555V334.015C152.566 332.535 152.238 331.078 151.653 329.717C151.09 328.285 150.263 326.972 149.214 325.845H149.253Z" fill="#6F6F6E"/>
<path fill-rule="evenodd" clip-rule="evenodd" d="M89.0502 266.608L78.7126 256.27C78.2266 255.748 77.632 255.338 76.9704 255.07C76.3318 254.843 75.6343 254.843 74.9958 255.07C74.7108 255.143 74.4437 255.274 74.2107 255.453C73.9778 255.633 73.7838 255.858 73.6406 256.115C73.2856 256.809 73.1125 257.582 73.1374 258.361V281.862C73.1742 283.353 73.4893 284.824 74.0666 286.199C74.6297 287.631 75.4572 288.944 76.5058 290.071L86.8046 300.369C87.3101 300.897 87.9155 301.318 88.5856 301.608C89.2275 301.816 89.9183 301.816 90.5602 301.608C91.1172 301.423 91.5948 301.055 91.9152 300.563C92.2751 299.857 92.4484 299.071 92.4186 298.279V274.777C92.2643 271.749 91.0753 268.865 89.0502 266.608Z" fill="#6F6F6E"/>
<path fill-rule="evenodd" clip-rule="evenodd" d="M125.212 202.995L111.7 189.444L98.149 175.893C95.4388 173.144 93.1545 174.112 93.1545 178.1V207.951C93.3858 212.466 95.1473 216.767 98.149 220.147C102.679 224.677 107.17 229.207 111.7 233.698L125.212 247.249C127.961 249.998 130.207 249.03 130.207 245.043V215.037C129.959 210.572 128.198 206.325 125.212 202.995Z" fill="white"/>
<path d="M125.948 202.26L98.8461 175.157C98.182 174.473 97.3936 173.921 96.523 173.531C95.821 173.286 95.0568 173.286 94.3548 173.531C93.7006 173.734 93.1473 174.176 92.8062 174.77C92.283 175.757 92.0419 176.869 92.1093 177.984V207.835C92.1862 210.205 92.698 212.541 93.6192 214.727C94.5215 216.952 95.835 218.988 97.4909 220.728L124.593 247.83C125.272 248.514 126.073 249.066 126.955 249.456C127.657 249.701 128.421 249.701 129.123 249.456C129.75 249.243 130.284 248.818 130.633 248.256C131.165 247.257 131.419 246.134 131.369 245.004V215.153C131.294 212.778 130.768 210.439 129.82 208.261C128.932 206.028 127.617 203.989 125.948 202.26ZM117.74 196.607L124.477 203.382C125.909 204.904 127.027 206.694 127.768 208.648C128.607 210.624 129.079 212.736 129.162 214.882V244.733C129.226 245.589 129.052 246.447 128.658 247.211C128.54 247.435 128.349 247.612 128.116 247.714C127.89 247.785 127.646 247.785 127.42 247.714C126.861 247.455 126.361 247.087 125.948 246.63L98.8461 219.528C97.4139 218.006 96.2956 216.216 95.5551 214.262C94.7124 212.274 94.2401 210.148 94.1613 207.99V178.177C94.1155 177.322 94.2887 176.469 94.6646 175.7C94.7873 175.464 94.9949 175.284 95.2454 175.196C95.459 175.125 95.6898 175.125 95.9035 175.196C96.4619 175.455 96.9624 175.824 97.3748 176.28L117.701 196.607H117.74Z" fill="#DADADA"/>
<path fill-rule="evenodd" clip-rule="evenodd" d="M103.839 154.909C103.285 154.725 102.715 154.595 102.135 154.521C100.654 154.39 99.1642 154.641 97.8081 155.251C96.4521 155.861 95.2757 156.81 94.392 158.006C91.1376 162.168 89.2691 167.246 89.049 172.525C89.0013 173.402 89.0013 174.281 89.049 175.158C89.0297 175.441 89.0297 175.726 89.049 176.01H89.2425C89.5136 177.055 89.9782 177.403 90.5203 177.481H90.7526L130.98 217.94C130.98 218.831 130.98 219.567 132.567 219.76H132.761L133.845 220.844L134.039 218.25C134.058 218.005 134.058 217.759 134.039 217.515C134.086 216.625 134.086 215.733 134.039 214.843C133.429 207.22 131.922 199.695 129.547 192.426C127.541 185.416 124.735 178.661 121.184 172.293C115.532 166.679 109.879 160.987 104.265 155.334H103.839V154.909Z" fill="#0080C8"/>
<path fill-rule="evenodd" clip-rule="evenodd" d="M134.347 213.488L91.2545 170.395C90.9858 170.114 90.654 169.902 90.2866 169.776C89.8647 169.603 89.3921 169.603 88.9702 169.776C88.7847 169.819 88.6099 169.899 88.4567 170.012C88.3036 170.126 88.1753 170.269 88.0797 170.434C87.8697 170.741 87.7614 171.107 87.77 171.479V176.241C87.7974 176.778 87.9288 177.304 88.1571 177.79C88.3608 178.32 88.663 178.806 89.0476 179.223L132.14 222.935C132.404 223.212 132.72 223.436 133.069 223.593C133.508 223.746 133.986 223.746 134.424 223.593C134.792 223.491 135.109 223.256 135.315 222.935C135.495 222.616 135.589 222.255 135.586 221.889V216.469C135.578 215.934 135.459 215.407 135.237 214.92C135.025 214.395 134.724 213.911 134.347 213.488Z" fill="#005A9C"/>
<path d="M99.8114 227.232L93.8489 221.502L97.7594 252.437L106.703 261.42L100.354 227.62L99.8114 227.232Z" fill="#0080C8"/>
<path fill-rule="evenodd" clip-rule="evenodd" d="M87.037 287.67L86.8433 287.477V352.677L95.8258 361.737L108.215 374.049V320.231L112.281 324.336V377.998L126.103 391.859L139.383 405.216V351.593V317.134L132.065 309.778C130.207 298.989 128.361 288.212 126.529 277.449L126.18 277.062L97.1034 247.985L91.6056 269.279L86.9208 264.633V287.864L87.037 287.67Z" fill="#0080C8"/>
<path fill-rule="evenodd" clip-rule="evenodd" d="M136.284 263.317L129.779 256.813L118.164 271.487L124.979 278.301C128.85 273.268 132.722 268.622 136.594 263.627L136.284 263.317Z" fill="#0080C8"/>
<path fill-rule="evenodd" clip-rule="evenodd" d="M153.939 245.198L129.973 257.045L136.323 263.356L160.289 251.508L153.939 245.198Z" fill="#005A9C"/>
<path fill-rule="evenodd" clip-rule="evenodd" d="M180.848 313.108L151.848 330.066L150.338 327.162L178.796 310.978L180.848 313.108Z" fill="#878787"/>
</svg>
