<svg width="331" height="800" viewBox="0 0 331 800" fill="none" xmlns="http://www.w3.org/2000/svg">
<path fill-rule="evenodd" clip-rule="evenodd" d="M13.0117 187.986V248.076L-64.8549 318.249V258.16L13.0117 187.986Z" fill="#0080C8"/>
<path fill-rule="evenodd" clip-rule="evenodd" d="M-66.5976 262.226L85.1094 125.531V395.061L-66.5976 531.756V262.226Z" fill="#005A9C"/>
<path fill-rule="evenodd" clip-rule="evenodd" d="M86.6431 384.023L252.172 234.879V373.026L86.6431 522.17V384.023Z" fill="#009C95"/>
<path d="M117.317 249.611L-34.0996 109.057V177.653C16.6492 224.684 67.3843 271.715 118.105 318.746V250.316L117.317 249.611ZM-29.1189 120.344L113.125 252.35V307.501L-29.1189 175.495V120.344Z" fill="#0080C8"/>
<path d="M41.0269 131.964L159.944 236.996L163.223 233.302L44.3059 128.271L41.0269 131.964Z" fill="#0080C8"/>
<path fill-rule="evenodd" clip-rule="evenodd" d="M42.644 121.922C41.0021 121.922 39.3972 122.409 38.0321 123.321C36.6669 124.233 35.6029 125.529 34.9746 127.045C34.3463 128.562 34.1819 130.231 34.5022 131.841C34.8225 133.451 35.6131 134.929 36.774 136.09C37.935 137.251 39.4142 138.041 41.0245 138.362C42.6348 138.682 44.3039 138.517 45.8208 137.889C47.3376 137.261 48.6342 136.197 49.5463 134.832C50.4585 133.468 50.9453 131.863 50.9453 130.221C50.9453 128.02 50.0707 125.909 48.5139 124.353C46.9571 122.796 44.8456 121.922 42.644 121.922Z" fill="#0080C8"/>
<path fill-rule="evenodd" clip-rule="evenodd" d="M161.852 226.455C160.085 226.447 158.356 226.963 156.883 227.939C155.41 228.914 154.26 230.304 153.578 231.934C152.896 233.564 152.713 235.359 153.053 237.092C153.393 238.826 154.239 240.419 155.486 241.671C156.732 242.923 158.322 243.777 160.054 244.125C161.786 244.472 163.583 244.298 165.216 243.624C166.849 242.95 168.245 241.806 169.227 240.338C170.21 238.87 170.734 237.144 170.734 235.377C170.734 233.018 169.8 230.755 168.135 229.083C166.471 227.411 164.212 226.466 161.852 226.455Z" fill="#0080C8"/>
<path d="M87.8065 482.996L-39.7021 368.586C-39.287 447.266 -38.8996 525.96 -38.5399 604.668L89.3008 720.075C89.0517 641.256 88.7612 562.479 88.4291 483.743L87.599 482.996H87.8065ZM-34.6797 379.707L83.6559 485.942L84.486 708.87L-33.5591 602.469L-34.6797 379.707Z" fill="#78D3FF"/>
<path d="M142.637 630.48L80.4182 577.114L60.661 498.682L7.94745 458.139L4.91743 462.039L56.2613 501.546L75.9769 579.811L139.399 634.257L142.637 630.48Z" fill="#0080C8"/>
<path fill-rule="evenodd" clip-rule="evenodd" d="M10.0222 451.748C8.14226 451.748 6.3046 452.306 4.7415 453.35C3.17841 454.394 1.96012 455.878 1.2407 457.615C0.521288 459.351 0.333075 461.262 0.699827 463.105C1.06658 464.949 1.97185 466.642 3.30115 467.971C4.63046 469.3 6.32409 470.205 8.16788 470.572C10.0117 470.938 11.9228 470.75 13.6597 470.031C15.3965 469.312 16.8809 468.094 17.9253 466.531C18.9698 464.968 19.5273 463.131 19.5273 461.251C19.5327 460.002 19.2907 458.764 18.8149 457.608C18.3392 456.453 17.6393 455.403 16.7556 454.519C15.8718 453.636 14.8218 452.936 13.6661 452.46C12.5104 451.985 11.2719 451.743 10.0222 451.748Z" fill="#0080C8"/>
<path fill-rule="evenodd" clip-rule="evenodd" d="M27.495 521.631C25.6168 521.631 23.7808 522.187 22.2186 523.23C20.6564 524.272 19.4381 525.754 18.7175 527.488C17.9969 529.222 17.8062 531.13 18.1697 532.973C18.5331 534.815 19.4342 536.508 20.7594 537.839C22.0845 539.17 23.7743 540.078 25.6154 540.449C27.4564 540.821 29.3662 540.638 31.1037 539.925C32.8412 539.213 34.3286 538.001 35.378 536.444C36.4274 534.886 36.9918 533.053 37 531.175C37 529.929 36.7539 528.696 36.2757 527.545C35.7975 526.394 35.0967 525.349 34.2135 524.47C33.3304 523.591 32.2823 522.895 31.1293 522.422C29.9763 521.949 28.7412 521.708 27.495 521.714V521.631Z" fill="#0080C8"/>
<path fill-rule="evenodd" clip-rule="evenodd" d="M198.131 420.749L330.039 301.898V536.238L198.131 655.047V420.749Z" fill="#D4EDFC"/>
<path fill-rule="evenodd" clip-rule="evenodd" d="M228.266 554.747L139.483 474.738V632.472L228.266 712.522V554.747Z" fill="#0080C8"/>
<path fill-rule="evenodd" clip-rule="evenodd" d="M260.641 533.416L198.132 477.062V655.047L209.338 644.963L260.641 598.734V533.416Z" fill="#78D3FF"/>
<path d="M227.434 708.455L28.1599 530.346L24.8394 533.997L224.155 712.149L227.434 708.455Z" fill="#0080C8"/>
<path d="M225.236 708.621L209.297 721.07L129.563 648.324L90.2143 685.548L-6.8284 598.526L-10.1074 602.22L90.2973 692.312L129.646 655.047L209.09 727.502L228.266 712.522L225.236 708.621Z" fill="#0080C8"/>
<path fill-rule="evenodd" clip-rule="evenodd" d="M-5.12769 593.423C-7.01112 593.415 -8.85451 593.966 -10.424 595.007C-11.9934 596.048 -13.2181 597.532 -13.9427 599.27C-14.6672 601.008 -14.8589 602.922 -14.4935 604.77C-14.1281 606.617 -13.222 608.314 -11.8902 609.646C-10.5584 610.977 -8.86093 611.883 -7.01328 612.248C-5.16562 612.614 -3.25107 612.422 -1.51257 611.698C0.225938 610.973 1.71002 609.749 2.75129 608.18C3.79255 606.611 4.34405 604.768 4.33585 602.885C4.33585 600.375 3.33878 597.969 1.56402 596.194C-0.210735 594.42 -2.6178 593.423 -5.12769 593.423Z" fill="#0080C8"/>
</svg>
