<svg width="331" height="795" viewBox="0 0 331 795" fill="none" xmlns="http://www.w3.org/2000/svg">
<path fill-rule="evenodd" clip-rule="evenodd" d="M586.699 529.474L450.557 651.063L301.175 509.721L434.951 390.289L586.699 529.474Z" fill="#005A9C"/>
<path fill-rule="evenodd" clip-rule="evenodd" d="M434.703 299.906L248.836 127.398L109.706 246.83L295.573 419.337L434.703 299.906Z" fill="#78D3FF"/>
<path fill-rule="evenodd" clip-rule="evenodd" d="M175.406 435.771L31.7517 306.38V561.51L175.406 690.901V435.771Z" fill="#D4EDFC"/>
<path fill-rule="evenodd" clip-rule="evenodd" d="M403.859 636.29L326.408 566.49V704.098L403.859 773.898V636.29Z" fill="#A1DAF8"/>
<path fill-rule="evenodd" clip-rule="evenodd" d="M302.046 701.898C300.012 701.898 298.024 702.501 296.332 703.63C294.64 704.759 293.321 706.364 292.54 708.242C291.76 710.12 291.554 712.187 291.947 714.182C292.341 716.178 293.318 718.011 294.753 719.452C296.188 720.893 298.019 721.877 300.013 722.279C302.007 722.68 304.075 722.482 305.957 721.71C307.838 720.937 309.449 719.625 310.585 717.938C311.721 716.251 312.332 714.265 312.34 712.231C312.34 709.498 311.257 706.876 309.328 704.939C307.398 703.003 304.78 701.909 302.046 701.898Z" fill="#0080C8"/>
<path d="M302.878 388.298L112.819 211.931V541.674C176.463 600.768 240.106 659.806 303.75 718.788V389.044L302.961 388.298H302.878ZM117.8 223.301L298.728 391.202V707.418L117.8 539.475V223.301Z" fill="#0080C8"/>
<path d="M442.005 267.041L254.478 93.0391L111.57 215.79C174.716 274.358 237.903 332.967 301.131 391.618L444.039 268.908L442.005 267.041ZM254.353 99.5958L436.609 268.7L301.256 384.895L119.125 215.79L254.436 99.5958H254.353Z" fill="#0080C8"/>
<path fill-rule="evenodd" clip-rule="evenodd" d="M301.175 378.006C299.139 378.006 297.149 378.609 295.456 379.74C293.763 380.871 292.444 382.478 291.665 384.359C290.886 386.24 290.682 388.309 291.079 390.305C291.476 392.301 292.457 394.135 293.896 395.575C295.336 397.014 297.17 397.994 299.167 398.391C301.164 398.788 303.233 398.584 305.114 397.805C306.995 397.027 308.603 395.707 309.734 394.015C310.865 392.323 311.469 390.333 311.469 388.297C311.469 385.568 310.384 382.95 308.454 381.02C306.523 379.09 303.905 378.006 301.175 378.006Z" fill="#0080C8"/>
<path fill-rule="evenodd" clip-rule="evenodd" d="M117.339 530.346C115.303 530.346 113.313 530.949 111.62 532.08C109.928 533.211 108.608 534.818 107.829 536.699C107.05 538.579 106.846 540.649 107.243 542.645C107.641 544.641 108.621 546.475 110.06 547.914C111.5 549.354 113.334 550.334 115.331 550.731C117.328 551.128 119.397 550.924 121.278 550.145C123.159 549.366 124.767 548.047 125.898 546.355C127.029 544.662 127.633 542.673 127.633 540.637C127.633 537.908 126.548 535.29 124.618 533.36C122.688 531.43 120.069 530.346 117.339 530.346Z" fill="#0080C8"/>
<path fill-rule="evenodd" clip-rule="evenodd" d="M254.23 85.8594C252.194 85.8594 250.204 86.463 248.511 87.5938C246.818 88.7247 245.499 90.332 244.72 92.2125C243.941 94.093 243.737 96.1623 244.134 98.1587C244.531 100.155 245.511 101.989 246.951 103.428C248.391 104.867 250.225 105.848 252.221 106.245C254.218 106.642 256.288 106.438 258.169 105.659C260.05 104.88 261.657 103.561 262.789 101.869C263.92 100.176 264.523 98.1864 264.523 96.1509C264.523 93.4214 263.439 90.8037 261.508 88.8737C259.578 86.9437 256.96 85.8594 254.23 85.8594Z" fill="#0080C8"/>
<path d="M145.569 298.786L157.772 309.659V508.227L145.569 497.313V298.786ZM157.149 302.479L140.546 287.706V499.554L162.711 519.265V307.625L157.107 302.645L157.149 302.479Z" fill="#0080C8"/>
<path d="M181.84 331.32L193.835 342.193V540.761L181.632 529.847V331.32H181.84ZM189.601 331.569L176.859 320.24V531.88L199.023 551.924V339.993L189.601 331.694V331.569Z" fill="#0080C8"/>
<path fill-rule="evenodd" clip-rule="evenodd" d="M215.629 358.17L232.812 373.483V578.649L215.629 563.336V358.17Z" fill="white"/>
<path d="M218.118 363.689L230.321 374.603V573.13L218.118 562.216V363.689ZM230.571 367.839L213.304 352.443V564.084L235.344 584.21V372.57L230.446 368.42L230.571 367.839Z" fill="#0080C8"/>
<path fill-rule="evenodd" clip-rule="evenodd" d="M251.947 390.538L269.172 405.851V611.017L251.947 595.705V390.538Z" fill="white"/>
<path d="M254.396 396.058L266.848 406.972V605.498L254.396 594.584V396.058ZM270.749 404.025L249.457 384.978V596.618L271.621 616.371V404.731L270.749 404.025Z" fill="#0080C8"/>
<path fill-rule="evenodd" clip-rule="evenodd" d="M112.402 206.246C110.366 206.246 108.376 206.85 106.683 207.981C104.99 209.111 103.671 210.719 102.892 212.599C102.113 214.48 101.909 216.549 102.306 218.545C102.703 220.542 103.683 222.376 105.123 223.815C106.563 225.254 108.397 226.234 110.394 226.631C112.39 227.029 114.46 226.825 116.341 226.046C118.222 225.267 119.83 223.948 120.961 222.255C122.092 220.563 122.695 218.573 122.695 216.538C122.695 213.808 121.611 211.19 119.68 209.26C117.75 207.33 115.132 206.246 112.402 206.246Z" fill="#0080C8"/>
<path d="M382.902 312.066L367.296 247.702L96.2986 7.63574L92.9781 11.3291L362.813 250.4L378.129 313.228L382.902 312.066Z" fill="#0080C8"/>
<path fill-rule="evenodd" clip-rule="evenodd" d="M94.6355 9.10229e-05C92.7538 0.00010896 90.9145 0.558527 89.3505 1.60458C87.7865 2.65064 86.5682 4.13728 85.85 5.87616C85.1318 7.61503 84.9461 9.52789 85.3162 11.3724C85.6863 13.217 86.5957 14.9101 87.9291 16.2375C89.2626 17.5649 90.9601 18.4667 92.8066 18.8287C94.6531 19.1906 96.5657 18.9965 98.3018 18.2709C100.038 17.5452 101.519 16.3207 102.559 14.7525C103.598 13.1843 104.149 11.3429 104.141 9.46165C104.141 8.21564 103.894 6.9819 103.416 5.83126C102.938 4.68062 102.237 3.63571 101.354 2.75658C100.471 1.87745 99.4227 1.18138 98.2697 0.708337C97.1167 0.235296 95.8817 -0.00537393 94.6355 9.10229e-05Z" fill="#0080C8"/>
<path d="M119.043 107.729L237.959 212.761L241.238 209.067L122.322 103.994L119.043 107.729Z" fill="#0080C8"/>
<path fill-rule="evenodd" clip-rule="evenodd" d="M120.66 97.6445C119.018 97.6445 117.413 98.1313 116.048 99.0433C114.683 99.9553 113.619 101.251 112.99 102.768C112.362 104.285 112.198 105.953 112.518 107.563C112.838 109.173 113.629 110.652 114.79 111.813C115.951 112.974 117.43 113.764 119.04 114.084C120.651 114.405 122.32 114.24 123.836 113.612C125.353 112.984 126.65 111.92 127.562 110.555C128.474 109.19 128.961 107.586 128.961 105.944C128.961 103.743 128.086 101.632 126.53 100.075C124.973 98.5189 122.861 97.6445 120.66 97.6445Z" fill="#0080C8"/>
<path fill-rule="evenodd" clip-rule="evenodd" d="M239.868 202.179C238.101 202.171 236.372 202.687 234.899 203.662C233.426 204.638 232.275 206.028 231.594 207.658C230.912 209.287 230.729 211.082 231.069 212.816C231.408 214.549 232.255 216.143 233.501 217.395C234.748 218.647 236.338 219.501 238.07 219.848C239.802 220.196 241.598 220.022 243.231 219.348C244.865 218.674 246.261 217.53 247.243 216.062C248.225 214.594 248.75 212.867 248.75 211.101C248.75 208.742 247.815 206.479 246.151 204.807C244.486 203.135 242.227 202.19 239.868 202.179Z" fill="#0080C8"/>
<path d="M114.809 215.915L97.3759 147.152L8.01193 69.5508L4.77441 73.2856L92.9346 149.891L109.994 217.118L114.809 215.915Z" fill="#0080C8"/>
<path fill-rule="evenodd" clip-rule="evenodd" d="M10.5027 62.9521C8.62275 62.9521 6.78507 63.5095 5.22196 64.5537C3.65886 65.5979 2.44062 67.0821 1.7212 68.8185C1.00179 70.555 0.813572 72.4657 1.18033 74.3092C1.54708 76.1526 2.4523 77.8458 3.78161 79.1749C5.11092 80.5039 6.80456 81.409 8.64837 81.7757C10.4922 82.1423 12.4034 81.9542 14.1402 81.2349C15.8771 80.5156 17.3615 79.2976 18.406 77.7348C19.4504 76.1721 20.0078 74.3348 20.0078 72.4552C20.0078 69.9349 19.0064 67.5177 17.2239 65.7356C15.4413 63.9534 13.0236 62.9521 10.5027 62.9521Z" fill="#0080C8"/>
</svg>
