<svg width="360" height="646" viewBox="0 0 360 646" fill="none" xmlns="http://www.w3.org/2000/svg">
<mask id="mask0_445_4019" style="mask-type:alpha" maskUnits="userSpaceOnUse" x="0" y="0" width="360" height="646">
<rect width="360" height="646" fill="#019E97"/>
</mask>
<g mask="url(#mask0_445_4019)">
<path fill-rule="evenodd" clip-rule="evenodd" d="M344.457 611.028L253.523 533.667V701.983L344.457 784V611.028Z" fill="#B4DCFF"/>
<path fill-rule="evenodd" clip-rule="evenodd" d="M345.078 622.282L436.011 540.29V701.983L345.078 784V622.282Z" fill="#005A9C"/>
<path fill-rule="evenodd" clip-rule="evenodd" d="M359.184 429.117L436.135 359.699V496.568L359.184 565.986V429.117Z" fill="#0080C8"/>
<path fill-rule="evenodd" clip-rule="evenodd" d="M253.523 419.033L344.457 337.016V498.709L253.523 580.726V419.033Z" fill="#FAFAFA"/>
<path fill-rule="evenodd" clip-rule="evenodd" d="M345.25 460.987L436.208 378.97V540.663L345.25 622.68V460.987Z" fill="#FAFAFA"/>
<path fill-rule="evenodd" clip-rule="evenodd" d="M280.641 520.147L296.961 534.862V505.432L280.641 520.147Z" fill="#0080C8"/>
<path fill-rule="evenodd" clip-rule="evenodd" d="M206.027 416.792V452.845L252.701 494.949V458.895L206.027 416.792Z" fill="#0080C8"/>
<path fill-rule="evenodd" clip-rule="evenodd" d="M296.962 458.896L253.523 419.705V495.671L279.87 519.45L296.962 504.037V458.896Z" fill="#005A9C"/>
<path fill-rule="evenodd" clip-rule="evenodd" d="M253.523 533.891L344.457 462.605V542.058L253.523 624.074V533.891Z" fill="#0080C8"/>
<path fill-rule="evenodd" clip-rule="evenodd" d="M344.457 539.742L253.523 457.726V533.692L344.457 615.709V539.742Z" fill="#78D3FF"/>
<path fill-rule="evenodd" clip-rule="evenodd" d="M358.211 499.63L366.943 491.812V458.896L358.211 466.714V499.63Z" fill="#78D3FF"/>
<path fill-rule="evenodd" clip-rule="evenodd" d="M343.883 626.266L436.558 541.211H343.883V626.266Z" fill="#FAFAFA"/>
<path fill-rule="evenodd" clip-rule="evenodd" d="M253.746 461.336L162.812 379.319V541.037L253.746 623.054V461.336Z" fill="#005A9C"/>
<path fill-rule="evenodd" clip-rule="evenodd" d="M161.89 534.414L62.6719 444.928V527.816L161.89 617.302V534.414Z" fill="#FAFAFA"/>
<path d="M143.504 453.766L234.263 369.434V410.592C203.844 438.811 173.434 467.029 143.031 495.248V454.19L143.504 453.766ZM231.278 376.207L146.017 455.41V488.5L231.278 409.297V376.207Z" fill="#0080C8"/>
<path d="M189.232 383.178L117.954 446.197L115.988 443.981L187.267 380.962L189.232 383.178Z" fill="#0080C8"/>
<path fill-rule="evenodd" clip-rule="evenodd" d="M188.265 377.153C189.249 377.153 190.211 377.445 191.029 377.992C191.848 378.539 192.485 379.317 192.862 380.227C193.239 381.137 193.337 382.138 193.145 383.104C192.953 384.07 192.479 384.958 191.783 385.654C191.087 386.351 190.201 386.825 189.236 387.017C188.27 387.209 187.27 387.11 186.361 386.734C185.452 386.357 184.674 385.718 184.128 384.899C183.581 384.081 183.289 383.118 183.289 382.133C183.289 380.812 183.813 379.546 184.746 378.612C185.68 377.678 186.945 377.153 188.265 377.153Z" fill="#0080C8"/>
<path fill-rule="evenodd" clip-rule="evenodd" d="M116.809 439.873C117.867 439.868 118.904 440.178 119.787 440.763C120.67 441.348 121.359 442.183 121.768 443.16C122.177 444.138 122.286 445.215 122.083 446.255C121.879 447.295 121.372 448.252 120.625 449.003C119.877 449.754 118.924 450.266 117.886 450.475C116.848 450.683 115.771 450.579 114.792 450.174C113.813 449.77 112.976 449.084 112.388 448.203C111.799 447.322 111.484 446.286 111.484 445.226C111.484 443.811 112.045 442.453 113.042 441.45C114.04 440.447 115.394 439.88 116.809 439.873Z" fill="#0080C8"/>
<path d="M161.193 593.798L237.621 525.151C237.372 572.36 237.14 619.576 236.925 666.801L160.297 736.045C160.446 688.753 160.62 641.487 160.819 594.246L161.317 593.798H161.193ZM234.611 531.824L163.68 595.565L163.183 729.322L233.939 665.481L234.611 531.824Z" fill="#78D3FF"/>
<path d="M128.328 682.288L165.622 650.268L177.464 603.209L209.061 578.883L210.877 581.223L180.102 604.927L168.284 651.886L130.269 684.554L128.328 682.288Z" fill="#0080C8"/>
<path fill-rule="evenodd" clip-rule="evenodd" d="M207.818 575.049C208.945 575.049 210.047 575.383 210.984 576.01C211.921 576.636 212.651 577.527 213.082 578.569C213.513 579.611 213.626 580.757 213.406 581.863C213.186 582.969 212.644 583.985 211.847 584.783C211.05 585.58 210.035 586.123 208.93 586.343C207.825 586.563 206.679 586.45 205.638 586.019C204.597 585.587 203.707 584.856 203.081 583.918C202.455 582.981 202.121 581.878 202.121 580.751C202.118 580.001 202.263 579.258 202.548 578.565C202.833 577.872 203.253 577.242 203.783 576.712C204.312 576.181 204.942 575.762 205.634 575.476C206.327 575.191 207.069 575.046 207.818 575.049Z" fill="#0080C8"/>
<path fill-rule="evenodd" clip-rule="evenodd" d="M197.346 616.979C198.472 616.979 199.572 617.312 200.508 617.938C201.445 618.563 202.175 619.452 202.607 620.493C203.039 621.533 203.153 622.678 202.935 623.784C202.718 624.889 202.177 625.905 201.383 626.703C200.589 627.502 199.576 628.047 198.472 628.27C197.369 628.492 196.224 628.383 195.183 627.955C194.141 627.528 193.25 626.801 192.621 625.866C191.992 624.932 191.653 623.832 191.648 622.705C191.648 621.958 191.796 621.217 192.083 620.527C192.369 619.837 192.789 619.21 193.319 618.682C193.848 618.155 194.476 617.737 195.167 617.453C195.858 617.169 196.599 617.025 197.346 617.028V616.979Z" fill="#0080C8"/>
<path fill-rule="evenodd" clip-rule="evenodd" d="M95.0659 556.449L16 485.139V625.743L95.0659 697.028V556.449Z" fill="#D4EDFC"/>
<path fill-rule="evenodd" clip-rule="evenodd" d="M77.0039 636.848L130.22 588.843V683.483L77.0039 731.513V636.848Z" fill="#0080C8"/>
<path fill-rule="evenodd" clip-rule="evenodd" d="M57.5977 624.05L95.0656 590.237V697.028L88.3483 690.978L57.5977 663.241V624.05Z" fill="#78D3FF"/>
<path d="M77.5 729.073L196.945 622.207L198.935 624.398L79.4655 731.289L77.5 729.073Z" fill="#0080C8"/>
</g>
</svg>
