<svg width="67" height="480" viewBox="0 0 67 480" fill="none" xmlns="http://www.w3.org/2000/svg">
<path fill-rule="evenodd" clip-rule="evenodd" d="M-79.2157 230.414L20.1016 140.927V223.815L-79.2157 313.302V230.414Z" fill="#009C95"/>
<path fill-rule="evenodd" clip-rule="evenodd" d="M-12.3208 252.449L66.8242 181.139V321.743L-12.3208 393.028V252.449Z" fill="#D4EDFC"/>
<path fill-rule="evenodd" clip-rule="evenodd" d="M5.75781 332.848L-47.5119 284.843V379.483L5.75781 427.513V332.848Z" fill="#0080C8"/>
<path fill-rule="evenodd" clip-rule="evenodd" d="M25.1875 320.049L-12.318 286.237V393.028L-5.59386 386.978L25.1875 359.24V320.049Z" fill="#78D3FF"/>
<path d="M5.26172 425.073L-114.302 318.208L-116.295 320.399L3.2943 427.289L5.26172 425.073Z" fill="#0080C8"/>
<path d="M3.93982 425.172L-5.62333 432.642L-53.464 388.994L-77.073 411.329L-135.299 359.116L-137.266 361.332L-77.0232 415.387L-53.4141 393.028L-5.74784 436.501L5.75781 427.513L3.93982 425.172Z" fill="#0080C8"/>
</svg>
