<svg width="83" height="480" viewBox="0 0 83 480" fill="none" xmlns="http://www.w3.org/2000/svg">
<path fill-rule="evenodd" clip-rule="evenodd" d="M260.219 179.943L148.699 76.439L65.2203 148.098L176.741 251.602L260.219 179.943Z" fill="#78D3FF"/>
<path fill-rule="evenodd" clip-rule="evenodd" d="M104.648 261.463L18.4557 183.828V336.906L104.648 414.541V261.463Z" fill="#D4EDFC"/>
<path d="M181.125 232.978L67.0899 127.158V325.004C105.276 360.46 143.462 395.883 181.648 431.273V233.426L181.175 232.978H181.125ZM70.0784 133.98L178.635 234.721V424.45L70.0784 323.685V133.98Z" fill="#0080C8"/>
<path d="M264.604 160.224L152.087 55.8232L66.3429 129.474C104.23 164.615 142.143 199.78 180.08 234.97L265.824 161.345L264.604 160.224ZM152.013 59.7573L261.366 161.22L180.154 230.937L70.8755 129.474L152.063 59.7573H152.013Z" fill="#0080C8"/>
<path fill-rule="evenodd" clip-rule="evenodd" d="M69.8082 318.208C68.5867 318.208 67.3926 318.57 66.3769 319.248C65.3612 319.927 64.5696 320.891 64.1021 322.019C63.6347 323.148 63.5124 324.389 63.7507 325.587C63.989 326.785 64.5772 327.885 65.441 328.749C66.3047 329.612 67.4052 330.2 68.6033 330.439C69.8014 330.677 71.0431 330.555 72.1717 330.087C73.3003 329.62 74.2649 328.828 74.9435 327.813C75.6222 326.798 75.9844 325.604 75.9844 324.382C75.9844 322.745 75.3337 321.174 74.1755 320.016C73.0172 318.858 71.4462 318.208 69.8082 318.208Z" fill="#0080C8"/>
<path fill-rule="evenodd" clip-rule="evenodd" d="M66.8395 123.748C65.618 123.748 64.4239 124.11 63.4082 124.788C62.3926 125.467 61.6009 126.431 61.1334 127.559C60.666 128.688 60.5437 129.929 60.782 131.127C61.0203 132.325 61.6085 133.425 62.4723 134.289C63.336 135.152 64.4365 135.74 65.6346 135.979C66.8326 136.217 68.0744 136.095 69.203 135.627C70.3315 135.16 71.2961 134.369 71.9748 133.353C72.6534 132.338 73.0156 131.144 73.0156 129.922C73.0156 128.285 72.365 126.714 71.2067 125.556C70.0485 124.398 68.4775 123.748 66.8395 123.748Z" fill="#0080C8"/>
<path d="M229.141 187.239L219.777 148.621L57.1784 4.58154L55.1861 6.79754L217.087 150.24L226.277 187.937L229.141 187.239Z" fill="#0080C8"/>
<path fill-rule="evenodd" clip-rule="evenodd" d="M56.1836 5.46137e-05C55.0546 6.53761e-05 53.951 0.335116 53.0126 0.96275C52.0742 1.59038 51.3432 2.48237 50.9123 3.52569C50.4814 4.56902 50.37 5.71673 50.5921 6.82345C50.8141 7.93018 51.3597 8.94609 52.1598 9.7425C52.9599 10.5389 53.9784 11.08 55.0863 11.2972C56.1942 11.5144 57.3417 11.3979 58.3834 10.9625C59.425 10.5271 60.314 9.79243 60.9376 8.8515C61.5613 7.91057 61.8916 6.80575 61.8867 5.67699C61.8867 4.92938 61.7389 4.18914 61.452 3.49876C61.1651 2.80837 60.7446 2.18143 60.2147 1.65395C59.6848 1.12647 59.0559 0.708826 58.3642 0.425002C57.6724 0.141178 56.9314 -0.00322436 56.1836 5.46137e-05Z" fill="#0080C8"/>
<path d="M70.8271 64.6374L142.177 127.656L144.145 125.44L72.7945 62.3965L70.8271 64.6374Z" fill="#0080C8"/>
<path fill-rule="evenodd" clip-rule="evenodd" d="M71.8005 58.5867C70.8154 58.5867 69.8524 58.8787 69.0333 59.4259C68.2142 59.9731 67.5759 60.7508 67.1989 61.6608C66.8219 62.5707 66.7232 63.572 66.9154 64.5379C67.1076 65.5039 67.582 66.3912 68.2786 67.0877C68.9751 67.7841 69.8627 68.2584 70.8288 68.4505C71.795 68.6427 72.7965 68.5441 73.7066 68.1672C74.6167 67.7902 75.3945 67.152 75.9418 66.3331C76.4891 65.5141 76.7812 64.5513 76.7812 63.5664C76.7812 62.2457 76.2565 60.9791 75.3224 60.0452C74.3884 59.1113 73.1215 58.5867 71.8005 58.5867Z" fill="#0080C8"/>
<path d="M68.2891 129.549L57.8294 88.2913L4.21107 41.7305L2.26856 43.9714L55.1647 89.9346L65.4002 130.271L68.2891 129.549Z" fill="#0080C8"/>
<path fill-rule="evenodd" clip-rule="evenodd" d="M5.70317 37.7715C4.57521 37.7715 3.47261 38.1059 2.53474 38.7324C1.59688 39.359 0.865939 40.2494 0.434288 41.2913C0.00263691 42.3332 -0.110292 43.4796 0.109761 44.5857C0.329815 45.6917 0.872942 46.7077 1.67053 47.5051C2.46812 48.3025 3.4843 48.8456 4.59058 49.0656C5.69687 49.2856 6.84361 49.1727 7.88571 48.7411C8.9278 48.3096 9.81847 47.5788 10.4451 46.6411C11.0718 45.7034 11.4062 44.6011 11.4062 43.4733C11.4063 41.9611 10.8054 40.5108 9.73589 39.4415C8.66636 38.3722 7.21572 37.7715 5.70317 37.7715Z" fill="#0080C8"/>
</svg>
