<svg width="202" height="60" viewBox="0 0 202 60" fill="none" xmlns="http://www.w3.org/2000/svg">
<path d="M194.519 0H7.48148C3.34957 0 0 3.35786 0 7.5V52.5C0 56.6421 3.34957 60 7.48148 60H194.519C198.65 60 202 56.6421 202 52.5V7.5C202 3.35786 198.65 0 194.519 0Z" fill="black"/>
<path d="M194.519 1.2C196.185 1.2 197.784 1.86375 198.962 3.04523C200.141 4.22671 200.803 5.82914 200.803 7.5V52.5C200.803 54.1709 200.141 55.7733 198.962 56.9548C197.784 58.1363 196.185 58.8 194.519 58.8H7.48148C5.81474 58.8 4.21627 58.1363 3.03771 56.9548C1.85915 55.7733 1.19704 54.1709 1.19704 52.5V7.5C1.19704 5.82914 1.85915 4.22671 3.03771 3.04523C4.21627 1.86375 5.81474 1.2 7.48148 1.2H194.519ZM194.519 0H7.48148C5.49727 0 3.59433 0.790176 2.19128 2.1967C0.788225 3.60322 0 5.51088 0 7.5V52.5C0 54.4891 0.788225 56.3968 2.19128 57.8033C3.59433 59.2098 5.49727 60 7.48148 60H194.519C196.503 60 198.406 59.2098 199.809 57.8033C201.212 56.3968 202 54.4891 202 52.5V7.5C202 5.51088 201.212 3.60322 199.809 2.1967C198.406 0.790176 196.503 0 194.519 0Z" fill="#A6A6A6"/>
<path d="M101.956 32.6249C100.695 32.6279 99.4636 33.0055 98.417 33.7101C97.3705 34.4147 96.5558 35.4146 96.0761 36.5834C95.5964 37.7521 95.4732 39.0372 95.722 40.2762C95.9709 41.5152 96.5806 42.6523 97.4742 43.5439C98.3677 44.4354 99.5049 45.0413 100.742 45.285C101.979 45.5286 103.26 45.3991 104.424 44.9127C105.588 44.4263 106.581 43.605 107.279 42.5525C107.977 41.5 108.348 40.2637 108.345 38.9999C108.357 38.1568 108.2 37.3198 107.883 36.5389C107.566 35.758 107.095 35.049 106.499 34.4541C105.903 33.8593 105.193 33.3908 104.413 33.0766C103.632 32.7623 102.797 32.6087 101.956 32.6249ZM101.956 42.8699C101.183 42.9241 100.412 42.7439 99.7428 42.353C99.0735 41.962 98.5371 41.3782 98.2032 40.6775C97.8693 39.9769 97.7533 39.1917 97.8705 38.4241C97.9876 37.6565 98.3324 36.942 98.86 36.3734C99.3875 35.8049 100.074 35.4086 100.829 35.236C101.584 35.0635 102.374 35.1227 103.095 35.406C103.816 35.6893 104.436 36.1835 104.873 36.8244C105.31 37.4654 105.545 38.2234 105.547 38.9999C105.571 39.4919 105.497 39.9838 105.328 40.4465C105.16 40.9092 104.9 41.3335 104.566 41.6941C104.231 42.0548 103.828 42.3447 103.379 42.5466C102.931 42.7485 102.447 42.8585 101.956 42.8699ZM88.0104 32.6249C86.7497 32.6279 85.5181 33.0055 84.4716 33.7101C83.425 34.4147 82.6103 35.4146 82.1306 36.5834C81.6509 37.7521 81.5277 39.0372 81.7765 40.2762C82.0254 41.5152 82.6351 42.6523 83.5287 43.5439C84.4222 44.4354 85.5594 45.0413 86.7965 45.285C88.0335 45.5286 89.3149 45.3991 90.4785 44.9127C91.6421 44.4263 92.6357 43.605 93.3336 42.5525C94.0316 41.5 94.4025 40.2637 94.3995 38.9999C94.4117 38.1568 94.2546 37.3198 93.9374 36.5389C93.6203 35.758 93.1496 35.049 92.5535 34.4541C91.9573 33.8593 91.2479 33.3908 90.4674 33.0766C89.6869 32.7623 88.8513 32.6087 88.0104 32.6249ZM88.0104 42.8699C87.2376 42.9241 86.4665 42.7439 85.7973 42.353C85.128 41.962 84.5916 41.3782 84.2577 40.6775C83.9238 39.9769 83.8079 39.1917 83.925 38.4241C84.0421 37.6565 84.3869 36.942 84.9145 36.3734C85.4421 35.8049 86.1281 35.4086 86.8833 35.236C87.6385 35.0635 88.4281 35.1227 89.1493 35.406C89.8705 35.6893 90.4901 36.1835 90.9274 36.8244C91.3647 37.4654 91.5996 38.2234 91.6015 38.9999C91.6256 39.4919 91.5512 39.9838 91.3826 40.4465C91.2141 40.9092 90.9548 41.3335 90.6201 41.6941C90.2854 42.0548 89.8821 42.3447 89.4339 42.5466C88.9856 42.7485 88.5016 42.8585 88.0104 42.8699ZM71.4314 34.5899V37.2899H77.8954C77.794 38.5616 77.2667 39.7616 76.3991 40.6949C75.7507 41.3572 74.9708 41.8756 74.1099 42.2167C73.249 42.5577 72.3263 42.7138 71.4015 42.6749C69.4966 42.6749 67.6698 41.9163 66.3229 40.5661C64.9759 39.2158 64.2192 37.3844 64.2192 35.4749C64.2192 33.5653 64.9759 31.734 66.3229 30.3837C67.6698 29.0335 69.4966 28.2749 71.4015 28.2749C73.2276 28.2477 74.9909 28.9429 76.3093 30.2099L78.2096 28.3049C77.3178 27.4206 76.2589 26.7237 75.095 26.2549C73.9311 25.7862 72.6856 25.555 71.4314 25.5749C70.1012 25.523 68.7742 25.7408 67.53 26.2153C66.2858 26.6899 65.1499 27.4113 64.1905 28.3364C63.231 29.2615 62.4677 30.3713 61.9464 31.5992C61.425 32.8271 61.1562 34.1479 61.1562 35.4824C61.1562 36.8169 61.425 38.1377 61.9464 39.3656C62.4677 40.5935 63.231 41.7033 64.1905 42.6284C65.1499 43.5535 66.2858 44.2749 67.53 44.7494C68.7742 45.2239 70.1012 45.4418 71.4314 45.3899C72.7114 45.4411 73.9877 45.2204 75.1765 44.7421C76.3653 44.2639 77.4398 43.5389 78.3293 42.6149C79.9006 40.8845 80.7379 38.6087 80.6635 36.2699C80.6689 35.707 80.6238 35.1447 80.5289 34.5899H71.4314ZM139.229 36.6899C138.838 35.539 138.109 34.5341 137.136 33.8082C136.163 33.0823 134.994 32.6696 133.782 32.6249C132.964 32.6233 132.153 32.79 131.402 33.1147C130.65 33.4394 129.973 33.9152 129.412 34.5127C128.851 35.1102 128.418 35.8167 128.14 36.5885C127.863 37.3603 127.746 38.181 127.797 38.9999C127.784 40.3692 128.214 41.7058 129.021 42.8103C129.829 43.9147 130.971 44.7276 132.277 45.1276C133.584 45.5276 134.984 45.4931 136.269 45.0294C137.554 44.5657 138.656 43.6977 139.408 42.5549L137.239 41.0549C136.915 41.5953 136.456 42.0416 135.908 42.3494C135.359 42.6573 134.74 42.816 134.111 42.8099C133.463 42.8367 132.821 42.6663 132.271 42.3209C131.721 41.9756 131.288 41.4715 131.029 40.8749L139.543 37.3499L139.229 36.6899ZM130.55 38.8199C130.52 38.354 130.582 37.8866 130.735 37.4453C130.887 37.004 131.125 36.5975 131.436 36.2497C131.746 35.9018 132.123 35.6197 132.544 35.4197C132.965 35.2197 133.422 35.1058 133.887 35.0849C134.369 35.0554 134.849 35.1692 135.267 35.412C135.685 35.6548 136.022 36.0158 136.236 36.4499L130.55 38.8199ZM123.637 44.9999H126.435V26.2499H123.637V44.9999ZM119.059 34.0499H118.954C118.536 33.5727 118.02 33.1916 117.441 32.9327C116.863 32.6738 116.236 32.5432 115.602 32.5499C113.967 32.6294 112.425 33.3365 111.296 34.5248C110.166 35.713 109.537 37.2912 109.537 38.9324C109.537 40.5735 110.166 42.1518 111.296 43.34C112.425 44.5283 113.967 45.2354 115.602 45.3149C116.236 45.3276 116.866 45.1998 117.445 44.9405C118.025 44.6812 118.54 44.2969 118.954 43.8149H119.059V44.7299C119.059 47.1749 117.757 48.4799 115.662 48.4799C114.962 48.4645 114.283 48.2409 113.71 47.8377C113.137 47.4344 112.697 46.8695 112.445 46.2149L110.021 47.2199C110.469 48.3483 111.248 49.3137 112.255 49.9887C113.263 50.6636 114.451 51.0162 115.662 50.9999C118.939 50.9999 121.647 49.0649 121.647 44.3549V32.9999H119.059V34.0499ZM115.841 42.8699C114.861 42.8086 113.941 42.375 113.268 41.6574C112.596 40.9398 112.221 39.9921 112.221 39.0074C112.221 38.0227 112.596 37.075 113.268 36.3574C113.941 35.6398 114.861 35.2062 115.841 35.1449C116.321 35.1656 116.791 35.2828 117.224 35.4893C117.657 35.6959 118.044 35.9877 118.362 36.3474C118.681 36.7071 118.924 37.1272 119.077 37.5829C119.23 38.0386 119.29 38.5205 119.253 38.9999C119.294 39.4809 119.237 39.9653 119.086 40.4236C118.934 40.882 118.692 41.3048 118.373 41.6666C118.054 42.0283 117.665 42.3215 117.23 42.5283C116.795 42.7351 116.323 42.8513 115.841 42.8699ZM152.336 26.2499H145.633V44.9999H148.431V37.8899H152.336C153.134 37.9473 153.934 37.8394 154.688 37.573C155.442 37.3065 156.134 36.8872 156.719 36.3411C157.304 35.7951 157.771 35.134 158.09 34.3991C158.409 33.6643 158.574 32.8714 158.574 32.0699C158.574 31.2684 158.409 30.4755 158.09 29.7406C157.771 29.0058 157.304 28.3447 156.719 27.7986C156.134 27.2526 155.442 26.8333 154.688 26.5668C153.934 26.3003 153.134 26.1925 152.336 26.2499ZM152.336 35.2499H148.431V28.8599H152.396C152.816 28.8599 153.233 28.9429 153.621 29.1042C154.01 29.2655 154.363 29.502 154.66 29.8001C154.958 30.0981 155.193 30.452 155.354 30.8415C155.515 31.2309 155.598 31.6483 155.598 32.0699C155.598 32.4914 155.515 32.9088 155.354 33.2983C155.193 33.6878 154.958 34.0416 154.66 34.3397C154.363 34.6378 154.01 34.8742 153.621 35.0355C153.233 35.1969 152.816 35.2799 152.396 35.2799L152.336 35.2499ZM169.603 32.5649C168.584 32.5019 167.569 32.7397 166.684 33.2489C165.798 33.7581 165.081 34.5164 164.621 35.4299L167.09 36.4649C167.339 36.014 167.713 35.6452 168.168 35.4029C168.622 35.1607 169.136 35.0554 169.648 35.0999C170.003 35.0583 170.363 35.088 170.707 35.1874C171.051 35.2867 171.371 35.4536 171.65 35.6784C171.928 35.9033 172.159 36.1814 172.33 36.4967C172.5 36.812 172.606 37.1581 172.641 37.5149V37.6949C171.741 37.2208 170.74 36.9736 169.723 36.9749C167.06 36.9749 164.336 38.4749 164.336 41.2049C164.363 41.7852 164.505 42.3542 164.755 42.8782C165.005 43.4022 165.358 43.8705 165.792 44.2553C166.226 44.6401 166.733 44.9335 167.282 45.1181C167.831 45.3027 168.412 45.3747 168.99 45.3299C169.692 45.3688 170.392 45.2199 171.018 44.8983C171.643 44.5767 172.173 44.0941 172.551 43.4999H172.641V44.9999H175.334V37.7849C175.334 34.4999 172.85 32.5949 169.663 32.5949L169.603 32.5649ZM169.259 42.8399C168.347 42.8399 167.075 42.3749 167.075 41.2499C167.075 39.7499 168.661 39.2399 170.067 39.2399C170.956 39.2179 171.835 39.4355 172.611 39.8699C172.517 40.6845 172.132 41.4373 171.526 41.989C170.921 42.5406 170.137 42.8535 169.319 42.8699L169.259 42.8399ZM185.15 32.9999L181.948 41.1299H181.858L178.536 32.9999H175.544L180.526 44.3699L177.683 50.6849H180.601L188.262 32.9999H185.15ZM160.012 44.9999H162.795V26.2499H160.012V44.9999Z" fill="white"/>
<path d="M15.6238 11.3096C15.1307 11.894 14.8791 12.6453 14.9205 13.4096V46.5896C14.8696 47.3552 15.1223 48.1099 15.6238 48.6896L15.7285 48.8096L34.2676 30.2246V29.7746L15.7285 11.2046L15.6238 11.3096Z" fill="url(#paint0_linear_445_3128)"/>
<path d="M40.4004 36.4196L34.2656 30.2246V29.7746L40.4004 23.5796L40.5351 23.6696L47.8819 27.8396C49.9767 29.0246 49.9767 30.9746 47.8819 32.1746L40.565 36.3446L40.4004 36.4196Z" fill="url(#paint1_linear_445_3128)"/>
<path d="M40.5832 36.33L34.2689 30L15.625 48.69C16.0478 49.0673 16.589 49.2843 17.1547 49.3035C17.7205 49.3227 18.2751 49.1428 18.7223 48.795L40.5832 36.33Z" fill="url(#paint2_linear_445_3128)"/>
<path d="M40.5832 23.6702L18.7223 11.2202C18.278 10.8676 17.7238 10.6833 17.1573 10.6997C16.5908 10.7162 16.0482 10.9324 15.625 11.3102L34.2689 30.0002L40.5832 23.6702Z" fill="url(#paint3_linear_445_3128)"/>
<path opacity="0.2" d="M40.4037 36.1948L18.7223 48.5698C18.2913 48.8959 17.766 49.0723 17.226 49.0723C16.686 49.0723 16.1608 48.8959 15.7297 48.5698L15.625 48.6748L15.7297 48.7948C16.1608 49.1209 16.686 49.2973 17.226 49.2973C17.766 49.2973 18.2913 49.1209 18.7223 48.7948L40.5832 36.3298L40.4037 36.1948Z" fill="black"/>
<path opacity="0.12" d="M15.624 48.4793C15.1434 47.8843 14.9078 47.1276 14.9656 46.3643V46.5893C14.9147 47.3548 15.1675 48.1096 15.6689 48.6893L15.7736 48.5843L15.624 48.4793Z" fill="black"/>
<path opacity="0.12" d="M47.8838 31.95L40.4023 36.195L40.537 36.33L47.8838 32.16C48.3175 31.9762 48.6937 31.6785 48.9728 31.2984C49.2519 30.9183 49.4237 30.4697 49.4699 30C49.3764 30.4269 49.1841 30.8257 48.9086 31.1644C48.6331 31.5031 48.2821 31.7722 47.8838 31.95Z" fill="black"/>
<path opacity="0.25" d="M18.7225 11.4305L47.8853 28.0505C48.2835 28.2282 48.6345 28.4973 48.91 28.836C49.1855 29.1748 49.3778 29.5736 49.4714 30.0005C49.4251 29.5307 49.2534 29.0822 48.9743 28.7021C48.6952 28.3219 48.319 28.0243 47.8853 27.8405L18.7225 11.2205C16.6426 10.0205 14.9219 11.0105 14.9219 13.4105V13.6355C14.9668 11.2355 16.6426 10.2455 18.7225 11.4305Z" fill="white"/>
<path d="M63.0103 21.4055H61.918V18.4055H62.8457C63.2631 17.9512 63.5769 17.4114 63.7656 16.8235C63.9542 16.2355 64.013 15.6135 63.938 15.0005V10.5005H69.9232V18.3905H70.9257V21.3905H69.8184V19.5005H63.0103V21.4055ZM65.0901 15.0005C65.1569 16.2054 64.8596 17.4025 64.2372 18.4355H68.7261V11.6105H65.0901V15.0005Z" fill="white" stroke="white" stroke-width="0.2" stroke-miterlimit="10"/>
<path d="M79.9182 18.3301C79.4873 18.7633 78.9754 19.1069 78.4118 19.3414C77.8483 19.5758 77.2441 19.6965 76.6339 19.6965C76.0237 19.6965 75.4195 19.5758 74.8559 19.3414C74.2923 19.1069 73.7804 18.7633 73.3495 18.3301C72.4935 17.4339 72.0156 16.241 72.0156 15.0001C72.0156 13.7593 72.4935 12.5664 73.3495 11.6701C73.7804 11.237 74.2923 10.8934 74.8559 10.6589C75.4195 10.4244 76.0237 10.3037 76.6339 10.3037C77.2441 10.3037 77.8483 10.4244 78.4118 10.6589C78.9754 10.8934 79.4873 11.237 79.9182 11.6701C80.3505 12.1081 80.691 12.6284 80.9197 13.2002C81.1484 13.7721 81.2607 14.3841 81.2499 15.0001C81.2676 15.6171 81.1585 16.231 80.9294 16.8039C80.7003 17.3768 80.3561 17.8963 79.9182 18.3301ZM74.1874 17.5801C74.5027 17.9084 74.8818 18.1683 75.3014 18.3437C75.7209 18.5192 76.1719 18.6064 76.6264 18.6001C77.0813 18.6092 77.5331 18.5231 77.953 18.3475C78.3729 18.1719 78.7517 17.9106 79.0653 17.5801C79.711 16.8768 80.0693 15.9559 80.0693 15.0001C80.0693 14.0443 79.711 13.1234 79.0653 12.4201C78.7517 12.0897 78.3729 11.8283 77.953 11.6527C77.5331 11.4771 77.0813 11.3911 76.6264 11.4001C76.1719 11.3938 75.7209 11.4811 75.3014 11.6565C74.8818 11.832 74.5027 12.0919 74.1874 12.4201C73.5513 13.1281 73.1992 14.0472 73.1992 15.0001C73.1992 15.953 73.5513 16.8721 74.1874 17.5801Z" fill="white" stroke="white" stroke-width="0.2" stroke-miterlimit="10"/>
<path d="M87.0564 19.6951C86.451 19.7046 85.8499 19.5912 85.2893 19.3618C84.7288 19.1324 84.2203 18.7916 83.7945 18.3601C82.9311 17.4556 82.4492 16.252 82.4492 15.0001C82.4492 13.7482 82.9311 12.5446 83.7945 11.6401C84.2272 11.2011 84.7455 10.856 85.3169 10.6264C85.8884 10.3967 86.5009 10.2873 87.1163 10.3051C87.7427 10.2873 88.3649 10.4132 88.9354 10.6732C89.5058 10.9331 90.0096 11.3203 90.4081 11.8051L89.6151 12.5851C89.3211 12.2062 88.9408 11.9036 88.5059 11.7026C88.0711 11.5016 87.5946 11.4082 87.1163 11.4301C86.6557 11.4183 86.1976 11.5014 85.7703 11.6743C85.3431 11.8472 84.9558 12.1061 84.6324 12.4351C83.9879 13.1449 83.6307 14.0702 83.6307 15.0301C83.6307 15.9899 83.9879 16.9153 84.6324 17.6251C84.9558 17.9541 85.3431 18.213 85.7703 18.3859C86.1976 18.5587 86.6557 18.6419 87.1163 18.6301C87.6304 18.6154 88.1351 18.4884 88.5952 18.2578C89.0552 18.0272 89.4595 17.6986 89.7797 17.2951L90.5877 18.0901C90.1778 18.5825 89.6676 18.9814 89.0914 19.2601C88.4548 19.5582 87.7589 19.707 87.0564 19.6951Z" fill="white" stroke="white" stroke-width="0.2" stroke-miterlimit="10"/>
<path d="M95.287 19.5005H94.1349V11.6105H91.6211V10.5005H97.7858V11.6105H95.287V19.5005Z" fill="white" stroke="white" stroke-width="0.2" stroke-miterlimit="10"/>
<path d="M105.716 10.5005L102.32 18.0905C102.237 18.3948 102.09 18.6775 101.888 18.9191C101.685 19.1606 101.433 19.3552 101.149 19.4893C100.864 19.6234 100.553 19.6939 100.239 19.6958C99.9244 19.6977 99.6132 19.6311 99.3269 19.5005L99.6262 18.4355C99.8093 18.5386 100.015 18.5953 100.225 18.6005C100.446 18.6116 100.666 18.554 100.853 18.4355C101.035 18.2839 101.174 18.0874 101.257 17.8655L101.586 17.1455L98.5938 10.5005H99.9554L102.17 15.6605L104.354 10.5005H105.716Z" fill="white" stroke="white" stroke-width="0.2" stroke-miterlimit="10"/>
<path d="M107.016 19.5005V10.5005H113.51V19.5005H112.357V11.6105H108.168V19.5005H107.016Z" fill="white" stroke="white" stroke-width="0.2" stroke-miterlimit="10"/>
<path d="M115.562 19.5005V10.5005H116.715V14.3555H121.204V10.5005H122.371V19.5005H121.204V15.4355H116.715V19.5005H115.562Z" fill="white" stroke="white" stroke-width="0.2" stroke-miterlimit="10"/>
<path d="M131.765 18.3301C131.333 18.7637 130.82 19.1077 130.255 19.3424C129.69 19.577 129.085 19.6978 128.473 19.6978C127.862 19.6978 127.257 19.577 126.692 19.3424C126.127 19.1077 125.614 18.7637 125.182 18.3301C124.326 17.4339 123.848 16.241 123.848 15.0001C123.848 13.7593 124.326 12.5664 125.182 11.6701C125.612 11.237 126.124 10.8934 126.688 10.6589C127.251 10.4244 127.856 10.3037 128.466 10.3037C129.076 10.3037 129.68 10.4244 130.244 10.6589C130.807 10.8934 131.319 11.237 131.75 11.6701C132.6 12.5698 133.073 13.7615 133.073 15.0001C133.073 16.2388 132.6 17.4304 131.75 18.3301H131.765ZM126.034 17.5801C126.348 17.9106 126.727 18.1719 127.147 18.3475C127.567 18.5231 128.018 18.6092 128.473 18.6001C128.928 18.6064 129.379 18.5192 129.798 18.3437C130.218 18.1683 130.597 17.9084 130.912 17.5801C131.548 16.8721 131.901 15.953 131.901 15.0001C131.901 14.0472 131.548 13.1281 130.912 12.4201C130.597 12.0919 130.218 11.832 129.798 11.6565C129.379 11.4811 128.928 11.3938 128.473 11.4001C128.018 11.3911 127.567 11.4771 127.147 11.6527C126.727 11.8283 126.348 12.0897 126.034 12.4201C125.389 13.1234 125.03 14.0443 125.03 15.0001C125.03 15.9559 125.389 16.8768 126.034 17.5801Z" fill="white" stroke="white" stroke-width="0.2" stroke-miterlimit="10"/>
<path d="M137.797 19.5006V10.5006H141.044C141.717 10.4939 142.368 10.74 142.869 11.1906C143.119 11.4081 143.319 11.6781 143.453 11.9814C143.588 12.2846 143.654 12.6138 143.647 12.9456C143.651 13.3497 143.537 13.746 143.318 14.0856C143.097 14.4077 142.792 14.6621 142.435 14.8206C142.867 14.9687 143.247 15.2397 143.528 15.6006C143.803 15.9682 143.95 16.4161 143.947 16.8756C143.954 17.2214 143.886 17.5647 143.746 17.8809C143.607 18.1972 143.399 18.4788 143.139 18.7056C142.619 19.1901 141.933 19.4536 141.223 19.4406L137.797 19.5006ZM138.949 14.3556H141.044C141.24 14.367 141.436 14.3338 141.617 14.2584C141.799 14.1831 141.961 14.0676 142.091 13.9206C142.345 13.6714 142.49 13.3317 142.495 12.9756C142.509 12.6184 142.386 12.2694 142.151 12.0006C142.025 11.8607 141.87 11.7505 141.697 11.6779C141.523 11.6053 141.336 11.5721 141.149 11.5806H138.994L138.949 14.3556ZM138.949 18.3906H141.283C141.486 18.3974 141.688 18.3593 141.874 18.2789C142.06 18.1985 142.226 18.0779 142.361 17.9256C142.619 17.649 142.763 17.2846 142.765 16.9056C142.755 16.5298 142.606 16.1712 142.346 15.9006C142.201 15.7488 142.027 15.629 141.834 15.5489C141.64 15.4688 141.432 15.4302 141.223 15.4356H138.949V18.3906Z" fill="white" stroke="white" stroke-width="0.2" stroke-miterlimit="10"/>
<defs>
<linearGradient id="paint0_linear_445_3128" x1="32.6217" y1="13.0646" x2="7.45176" y2="38.1724" gradientUnits="userSpaceOnUse">
<stop stop-color="#00A0FF"/>
<stop offset="0.01" stop-color="#00A1FF"/>
<stop offset="0.26" stop-color="#00BEFF"/>
<stop offset="0.51" stop-color="#00D2FF"/>
<stop offset="0.76" stop-color="#00DFFF"/>
<stop offset="1" stop-color="#00E3FF"/>
</linearGradient>
<linearGradient id="paint1_linear_445_3128" x1="50.6201" y1="29.9996" x2="14.4247" y2="29.9996" gradientUnits="userSpaceOnUse">
<stop stop-color="#FFE000"/>
<stop offset="0.41" stop-color="#FFBD00"/>
<stop offset="0.78" stop-color="#FFA500"/>
<stop offset="1" stop-color="#FF9C00"/>
</linearGradient>
<linearGradient id="paint2_linear_445_3128" x1="37.1567" y1="33.45" x2="3.01684" y2="67.4906" gradientUnits="userSpaceOnUse">
<stop stop-color="#FF3A44"/>
<stop offset="1" stop-color="#C31162"/>
</linearGradient>
<linearGradient id="paint3_linear_445_3128" x1="10.9266" y1="0.270199" x2="26.1666" y2="15.4725" gradientUnits="userSpaceOnUse">
<stop stop-color="#32A071"/>
<stop offset="0.07" stop-color="#2DA771"/>
<stop offset="0.48" stop-color="#15CF74"/>
<stop offset="0.8" stop-color="#06E775"/>
<stop offset="1" stop-color="#00F076"/>
</linearGradient>
</defs>
</svg>
