<svg width="127" height="480" viewBox="0 0 127 480" fill="none" xmlns="http://www.w3.org/2000/svg">
<path fill-rule="evenodd" clip-rule="evenodd" d="M145.89 230.414L46.6719 140.927V223.816L145.89 313.302V230.414Z" fill="#009C95"/>
<path d="M173.232 79.1784L101.954 142.197L99.9883 139.981L171.267 76.9624L173.232 79.1784Z" fill="#0080C8"/>
<path fill-rule="evenodd" clip-rule="evenodd" d="M100.809 135.873C101.867 135.868 102.904 136.178 103.787 136.763C104.67 137.348 105.359 138.183 105.768 139.16C106.177 140.138 106.286 141.215 106.083 142.255C105.879 143.295 105.372 144.252 104.625 145.003C103.877 145.754 102.924 146.266 101.886 146.475C100.848 146.683 99.7711 146.579 98.7922 146.174C97.8133 145.77 96.9765 145.084 96.3876 144.203C95.7988 143.322 95.4844 142.286 95.4844 141.226C95.4844 139.811 96.0445 138.453 97.0423 137.45C98.04 136.447 99.3942 135.88 100.809 135.873Z" fill="#0080C8"/>
<path d="M112.328 378.288L149.622 346.268L161.464 299.209L193.061 274.883L194.877 277.224L164.102 300.927L152.284 347.887L114.269 380.554L112.328 378.288Z" fill="#0080C8"/>
<path fill-rule="evenodd" clip-rule="evenodd" d="M79.0659 252.449L0 181.139V321.743L79.0659 393.028V252.449Z" fill="#D4EDFC"/>
<path fill-rule="evenodd" clip-rule="evenodd" d="M61.0039 332.848L114.22 284.843V379.483L61.0039 427.513V332.848Z" fill="#0080C8"/>
<path fill-rule="evenodd" clip-rule="evenodd" d="M41.5977 320.05L79.0656 286.237V393.028L72.3483 386.978L41.5977 359.24V320.05Z" fill="#78D3FF"/>
<path d="M61.5 425.073L180.945 318.207L182.935 320.398L63.4655 427.289L61.5 425.073Z" fill="#0080C8"/>
<path d="M62.8201 425.173L72.3737 432.642L120.167 388.995L143.752 411.329L201.919 359.116L203.885 361.332L143.702 415.387L120.117 393.028L72.4981 436.502L61.0039 427.513L62.8201 425.173Z" fill="#0080C8"/>
</svg>
