<svg width="127" height="480" viewBox="0 0 127 480" fill="none" xmlns="http://www.w3.org/2000/svg">
<path fill-rule="evenodd" clip-rule="evenodd" d="M-133 179.944L-21.5912 76.4395L61.8036 148.098L-49.6051 251.603L-133 179.944Z" fill="#78D3FF"/>
<path fill-rule="evenodd" clip-rule="evenodd" d="M22.4219 261.463L108.528 183.828V336.906L22.4219 414.541V261.463Z" fill="#D4EDFC"/>
<path d="M-53.9853 232.979L59.9363 127.158V325.005C21.7882 360.461 -16.3598 395.883 -54.5078 431.273V233.427L-54.0351 232.979H-53.9853ZM56.9508 133.981L-51.4974 234.721V424.451L56.9508 323.685V133.981Z" fill="#0080C8"/>
<path d="M-137.379 160.224L-24.9746 55.8232L60.6843 129.474C22.8348 164.615 -15.0395 199.78 -52.9388 234.97L-138.598 161.345L-137.379 160.224ZM-24.8999 59.7573L-134.144 161.22L-53.0134 230.937L56.1563 129.474L-24.9497 59.7573H-24.8999Z" fill="#0080C8"/>
<path fill-rule="evenodd" clip-rule="evenodd" d="M57.2247 318.207C58.445 318.207 59.6379 318.569 60.6525 319.248C61.6672 319.926 62.4581 320.891 62.9251 322.019C63.3921 323.147 63.5142 324.389 63.2761 325.587C63.0381 326.785 62.4505 327.885 61.5876 328.749C60.7247 329.612 59.6253 330.2 58.4284 330.438C57.2315 330.677 55.991 330.554 54.8636 330.087C53.7361 329.62 52.7725 328.828 52.0945 327.813C51.4165 326.797 51.0547 325.603 51.0547 324.382C51.0547 322.745 51.7047 321.174 52.8618 320.016C54.0189 318.858 55.5883 318.207 57.2247 318.207Z" fill="#0080C8"/>
<path d="M40.3064 179.272L32.9919 185.795V304.936L40.3064 298.388V179.272ZM33.3651 181.488L43.3168 172.624V299.732L30.0312 311.559V184.575L33.39 181.587L33.3651 181.488Z" fill="#0080C8"/>
<path d="M18.5657 198.792L11.3755 205.316V324.457L18.69 317.908V198.792H18.5657ZM13.9132 198.942L21.5511 192.144V319.128L8.26562 331.155V203.996L13.9132 199.016V198.942Z" fill="#0080C8"/>
<path fill-rule="evenodd" clip-rule="evenodd" d="M60.1856 123.747C61.4059 123.747 62.5988 124.109 63.6134 124.788C64.6281 125.466 65.4189 126.431 65.8859 127.559C66.3529 128.688 66.4751 129.929 66.237 131.127C65.9989 132.325 65.4113 133.425 64.5484 134.289C63.6856 135.152 62.5862 135.74 61.3893 135.979C60.1924 136.217 58.9519 136.094 57.8245 135.627C56.697 135.16 55.7334 134.368 55.0554 133.353C54.3774 132.337 54.0156 131.143 54.0156 129.922C54.0156 128.285 54.6656 126.714 55.8227 125.556C56.9798 124.398 58.5492 123.747 60.1856 123.747Z" fill="#0080C8"/>
<path d="M-101.949 187.239L-92.5947 148.621L69.8412 4.5813L71.8315 6.7973L-89.9077 150.24L-99.0881 187.936L-101.949 187.239Z" fill="#0080C8"/>
<path fill-rule="evenodd" clip-rule="evenodd" d="M70.838 5.46137e-05C71.9659 6.53761e-05 73.0684 0.335116 74.0058 0.96275C74.9433 1.59038 75.6736 2.48237 76.104 3.52569C76.5345 4.56902 76.6458 5.71673 76.424 6.82345C76.2021 7.93018 75.6571 8.94609 74.8578 9.7425C74.0585 10.5389 73.041 11.08 71.9342 11.2972C70.8274 11.5144 69.6811 11.3979 68.6404 10.9625C67.5998 10.5271 66.7118 9.79243 66.0888 8.8515C65.4657 7.91057 65.1358 6.80575 65.1407 5.67699C65.1407 4.92938 65.2883 4.18914 65.5749 3.49876C65.8615 2.80837 66.2816 2.18143 66.811 1.65395C67.3403 1.12647 67.9686 0.708826 68.6597 0.425002C69.3507 0.141178 70.091 -0.00322436 70.838 5.46137e-05Z" fill="#0080C8"/>
<path d="M56.2051 64.6374L-15.0736 127.656L-17.0391 125.44L54.2397 62.3965L56.2051 64.6374Z" fill="#0080C8"/>
<path fill-rule="evenodd" clip-rule="evenodd" d="M55.2336 58.5872C56.2177 58.5872 57.1797 58.8792 57.998 59.4264C58.8163 59.9736 59.454 60.7513 59.8306 61.6613C60.2072 62.5712 60.3058 63.5725 60.1138 64.5384C59.9218 65.5044 59.4479 66.3917 58.752 67.0882C58.0561 67.7846 57.1695 68.2589 56.2043 68.451C55.2391 68.6432 54.2386 68.5446 53.3294 68.1676C52.4202 67.7907 51.6431 67.1525 51.0964 66.3336C50.5497 65.5146 50.2578 64.5518 50.2578 63.5669C50.2578 62.2462 50.782 60.9796 51.7152 60.0457C52.6483 59.1118 53.9139 58.5872 55.2336 58.5872Z" fill="#0080C8"/>
<path d="M58.7422 129.549L69.1914 88.2913L122.756 41.7305L124.697 43.9714L71.8535 89.9346L61.6282 130.271L58.7422 129.549Z" fill="#0080C8"/>
<path fill-rule="evenodd" clip-rule="evenodd" d="M121.268 37.7717C122.395 37.7717 123.496 38.1062 124.433 38.7327C125.37 39.3592 126.1 40.2497 126.531 41.2916C126.963 42.3334 127.075 43.4799 126.856 44.5859C126.636 45.692 126.093 46.7079 125.296 47.5054C124.5 48.3028 123.484 48.8458 122.379 49.0658C121.274 49.2858 120.128 49.1729 119.087 48.7414C118.046 48.3098 117.157 47.579 116.53 46.6413C115.904 45.7037 115.57 44.6013 115.57 43.4736C115.57 41.9614 116.171 40.5111 117.239 39.4418C118.307 38.3725 119.757 37.7717 121.268 37.7717Z" fill="#0080C8"/>
</svg>
