<svg width="80" height="80" viewBox="0 0 80 80" fill="none" xmlns="http://www.w3.org/2000/svg">
<path d="M78.8281 68.8886H77.495V63.798C77.495 62.4611 76.4075 61.3734 75.0706 61.3734H74.99V53.7777C74.99 52.4408 73.9025 51.3533 72.5656 51.3533H53.697V44.243L57.1114 40.8286C57.5691 40.3709 57.5691 39.6291 57.1114 39.1714C56.6538 38.7137 55.9117 38.7137 55.4542 39.1714L53.6972 40.9284V36.2425C53.6972 35.5953 53.1725 35.0706 52.5253 35.0706C51.8781 35.0706 51.3534 35.5953 51.3534 36.2425V46.2869C44.9502 45.6936 39.9195 40.2931 39.9195 33.7375C39.9195 26.7867 45.5745 21.1317 52.5253 21.1317C59.4762 21.1317 65.1312 26.7866 65.1312 33.7375C65.1312 36.3252 64.3534 38.8111 62.8819 40.9266C61.4428 42.9955 59.4467 44.5716 57.1094 45.4844C56.5066 45.7198 56.2086 46.3994 56.4441 47.0023C56.6795 47.6052 57.3589 47.903 57.962 47.6677C60.7339 46.585 63.1005 44.7169 64.8059 42.265C66.552 39.7548 67.475 36.8061 67.475 33.7377C67.475 25.4945 60.7686 18.7881 52.5253 18.7881C44.282 18.7881 37.5758 25.4944 37.5758 33.7377C37.5758 41.5866 43.6558 48.0419 51.3534 48.6416V51.3536H37.4952C36.1583 51.3536 35.0708 52.4411 35.0708 53.778V61.3737H34.9902C33.6533 61.3737 32.5658 62.4614 32.5658 63.7983V68.8889H29.8062C29.2425 65.3444 26.1656 62.6264 22.465 62.6264C22.007 62.6264 21.5425 62.6723 21.0844 62.7631C20.7647 62.8267 20.3786 62.7019 20.0525 62.4295C19.605 62.0556 19.1275 61.7242 18.6267 61.437V53.6545C27.0156 53.052 33.657 46.0348 33.657 37.4952C33.657 34.7052 32.9306 31.9511 31.5564 29.5309C30.8064 28.2098 30.5753 26.687 30.888 25.1267C31.1077 24.0311 31.1908 22.9072 31.135 21.7861C30.9644 18.3484 29.4737 15.1052 26.9378 12.6534C24.4014 10.2012 21.1094 8.82187 17.6683 8.76953C13.9706 8.71203 10.4788 10.1108 7.84406 12.7056C5.20891 15.3008 3.75781 18.7669 3.75781 22.465C3.75781 23.4634 3.86875 24.4631 4.08766 25.4366C4.38937 26.7783 4.19734 28.1145 3.54703 29.1992C1.90438 31.9392 1.11766 35.0825 1.27188 38.2891C1.58125 44.723 5.91125 50.5353 12.0466 52.7525C12.6553 52.9725 13.3269 52.6573 13.547 52.0487C13.767 51.44 13.4519 50.7683 12.8431 50.5483C7.58672 48.6486 3.8775 43.6767 3.61281 38.1764C3.48094 35.4334 4.15312 32.7459 5.55703 30.4042C6.51828 28.8009 6.80844 26.8541 6.37406 24.9225C6.19312 24.1175 6.10125 23.2908 6.10125 22.465C6.10125 19.3997 7.30422 16.5267 9.48844 14.3756C11.6722 12.225 14.5617 11.0684 17.6323 11.1131C23.4959 11.2027 28.503 16.0427 28.7939 21.9025C28.84 22.8303 28.7712 23.7603 28.5897 24.6662C28.1705 26.7572 28.5002 28.8958 29.518 30.6884C30.6922 32.7564 31.313 35.1103 31.313 37.4953C31.313 44.742 25.7214 50.7067 18.6264 51.3036V40C18.6264 39.3528 18.1017 38.8281 17.4545 38.8281C16.8073 38.8281 16.2827 39.3528 16.2827 40V60.4666C15.4444 60.2392 14.575 60.1209 13.697 60.1209C8.61313 60.1209 4.41094 63.9584 3.82891 68.8884H1.17188C0.524687 68.8884 0 69.4131 0 70.0603C0 70.7077 0.524687 71.2322 1.17188 71.2322H78.8281C79.4753 71.2322 80 70.7077 80 70.0603C80 69.4133 79.4753 68.8886 78.8281 68.8886ZM75.1512 63.798V68.8886H53.697V63.7172H75.0706C75.115 63.7172 75.1512 63.7534 75.1512 63.798ZM53.697 61.3734V58.7072H72.6461V61.3734H53.697ZM37.495 53.697H72.5656C72.6102 53.697 72.6462 53.7331 72.6462 53.7777V56.3633H37.4144V53.7777C37.4144 53.7333 37.4505 53.697 37.495 53.697ZM37.4144 58.7072H51.3533V61.3734H37.4144V58.7072ZM34.9092 63.798C34.9092 63.7534 34.9453 63.7172 34.9898 63.7172H51.3533V68.8886H34.9092V63.798ZM21.5397 65.0619C21.8481 65.0008 22.1594 64.9698 22.4647 64.9698C24.8683 64.9698 26.8869 66.6448 27.4177 68.8886H18.6264V64.2891C19.49 64.9766 20.5459 65.2591 21.5397 65.0619ZM13.697 62.4648C14.5836 62.4648 15.4587 62.6223 16.2827 62.9227V68.8887H6.19203C6.75719 65.2548 9.90719 62.4648 13.697 62.4648Z" fill="#0080C9"/>
</svg>
