<svg width="80" height="80" viewBox="0 0 80 80" fill="none" xmlns="http://www.w3.org/2000/svg">
<path d="M17.7519 60.0109C16.6778 59.7471 15.605 59.5632 14.5347 59.4446C16.2007 58.3142 17.3333 56.1186 17.3333 53.6003C17.3333 50.2168 15.2786 48.1151 11.9714 48.1151C8.66417 48.1151 6.61016 50.2168 6.61016 53.6003C6.61016 56.1142 7.73905 58.3061 9.40005 59.4381C8.31995 59.5563 7.24635 59.7423 6.18287 60.0131C3.05601 60.8102 1.33398 62.5322 1.33398 64.8629V70.9651C1.33398 71.537 1.80206 72.0003 2.37904 72.0003C2.95602 72.0003 3.4241 71.537 3.4241 70.9651V64.8629C3.4241 63.2025 5.20729 62.3998 6.70411 62.0184C10.1359 61.1443 13.6846 61.1449 17.2485 62.0205C18.4704 62.3211 20.5197 63.0894 20.5197 64.863V70.9653C20.5197 71.5371 20.9878 72.0005 21.5648 72.0005C22.1417 72.0005 22.6098 71.5371 22.6098 70.9653V64.863C22.6097 62.5383 20.8387 60.7698 17.7519 60.0109ZM11.9715 50.1856C13.4643 50.1856 15.2434 50.7779 15.2434 53.6003C15.2434 56.086 13.7452 58.1856 11.9715 58.1856C10.1985 58.1856 8.70027 56.0858 8.70027 53.6003C8.70027 50.7781 10.4795 50.1856 11.9715 50.1856ZM45.7803 60.0109C44.7064 59.7471 43.6337 59.5631 42.5641 59.4446C44.2299 58.3142 45.3625 56.1186 45.3625 53.6004C45.3625 50.217 43.3078 48.1152 40.0006 48.1152C36.6934 48.1152 34.6386 50.217 34.6386 53.6004C34.6386 56.1142 35.7675 58.3061 37.4286 59.4381C36.349 59.5563 35.2754 59.7425 34.2121 60.0133C31.0851 60.8099 29.363 62.5323 29.363 64.8629V70.9651C29.363 71.537 29.8311 72.0003 30.4081 72.0003C30.9851 72.0003 31.4531 71.537 31.4531 70.9651V64.8629C31.4531 63.2025 33.2363 62.3995 34.7332 62.0184C38.1642 61.1446 41.7123 61.1446 45.2768 62.0205C46.4987 62.3211 48.548 63.0894 48.548 64.863V70.9653C48.548 71.5371 49.0161 72.0005 49.5931 72.0005C50.17 72.0005 50.6381 71.5371 50.6381 70.9653V64.863C50.6381 62.5383 48.8672 60.7698 45.7803 60.0109ZM40.0006 50.1856C41.4933 50.1856 43.2724 50.7779 43.2724 53.6003C43.2724 56.086 41.7743 58.1856 40.0006 58.1856C38.2269 58.1856 36.7287 56.0858 36.7287 53.6003C36.7287 50.7781 38.5078 50.1856 40.0006 50.1856ZM73.8094 60.0109C72.7353 59.7471 71.6625 59.5632 70.5925 59.4446C72.2583 58.3142 73.391 56.1186 73.391 53.6003C73.391 50.2168 71.337 48.1151 68.0298 48.1151C64.7226 48.1151 62.6678 50.2168 62.6678 53.6003C62.6678 56.1142 63.7967 58.3059 65.458 59.4381C64.3779 59.5563 63.3041 59.7423 62.2405 60.0131C59.1135 60.8102 57.3915 62.5322 57.3915 64.8627V70.965C57.3915 71.5368 57.8596 72.0002 58.4365 72.0002C59.0135 72.0002 59.4816 71.5368 59.4816 70.965V64.8627C59.4816 63.2023 61.2648 62.3996 62.7616 62.0182C66.1948 61.1441 69.7421 61.1447 73.306 62.0203C74.5279 62.3209 76.5772 63.0892 76.5772 64.8629V70.9651C76.5772 71.537 77.0453 72.0003 77.6223 72.0003C78.1992 72.0003 78.6672 71.537 78.6672 70.965V64.8627C78.6672 62.5383 76.8962 60.7698 73.8094 60.0109ZM68.0296 50.1856C69.5216 50.1856 71.3009 50.7779 71.3009 53.6003C71.3009 56.086 69.8027 58.1856 68.0296 58.1856C66.256 58.1856 64.7578 56.0858 64.7578 53.6003C64.7578 50.7781 66.5369 50.1856 68.0296 50.1856ZM34.5338 44.8675C34.5338 45.4394 35.0019 45.9028 35.5788 45.9028C36.1558 45.9028 36.6239 45.4394 36.6239 44.8675C36.6239 42.543 34.8529 40.7744 31.7661 40.0155C30.692 39.7517 29.6192 39.5679 28.5492 39.4492C30.2157 38.319 31.3485 36.1232 31.3485 33.6049C31.3485 30.2215 29.2937 28.1197 25.9865 28.1197C22.6793 28.1197 20.6245 30.2215 20.6245 33.6049C20.6245 36.1189 21.7536 38.3109 23.4152 39.4428C22.3352 39.561 21.2616 39.747 20.1986 40.0178C17.071 40.8141 15.3482 42.5364 15.3482 44.8674C15.3482 45.4392 15.8163 45.9026 16.3933 45.9026C16.9702 45.9026 17.4383 45.4392 17.4383 44.8674C17.4383 43.2067 19.2223 42.404 20.7191 42.0229C24.1501 41.148 27.6969 41.1491 31.2627 42.0253C32.4846 42.3257 34.5338 43.094 34.5338 44.8675ZM25.9864 30.1904C27.4791 30.1904 29.2582 30.7827 29.2582 33.6051C29.2582 36.0903 27.76 38.1901 25.9864 38.1901C24.2127 38.1901 22.7145 36.0903 22.7145 33.6051C22.7145 30.7827 24.4936 30.1904 25.9864 30.1904ZM62.5628 44.8675C62.5628 45.4394 63.0309 45.9028 63.6079 45.9028C64.1849 45.9028 64.653 45.4394 64.653 44.8675C64.653 42.543 62.882 40.7747 59.7944 40.0155C58.72 39.7519 57.6474 39.5679 56.5775 39.4494C58.244 38.3191 59.3768 36.1234 59.3768 33.6049C59.3768 30.2215 57.322 28.1197 54.0148 28.1197C50.7076 28.1197 48.6528 30.2215 48.6528 33.6049C48.6528 36.1189 49.7819 38.3107 51.4433 39.4428C50.3634 39.561 49.2899 39.747 48.2269 40.0179C45.0993 40.8139 43.3773 42.5362 43.3773 44.8675C43.3773 45.4394 43.8453 45.9028 44.4223 45.9028C44.9993 45.9028 45.4674 45.4394 45.4674 44.8675C45.4674 43.2068 47.2506 42.4041 48.7474 42.023C52.1792 41.1482 55.7273 41.1492 59.291 42.0254C60.5129 42.3257 62.5628 43.0943 62.5628 44.8675ZM54.0148 30.1904C55.5075 30.1904 57.2867 30.7827 57.2867 33.6051C57.2867 36.0903 55.7885 38.1901 54.0148 38.1901C52.2411 38.1901 50.7429 36.0903 50.7429 33.6051C50.7429 30.7827 52.5221 30.1904 54.0148 30.1904ZM30.4073 25.7835C30.9843 25.7835 31.4524 25.3201 31.4524 24.7483C31.4524 23.0876 33.2363 22.2849 34.7332 21.9038C38.1636 21.0292 41.7117 21.0297 45.2768 21.9062C46.4987 22.2062 48.548 22.9745 48.548 24.7483C48.548 25.3201 49.0161 25.7835 49.5931 25.7835C50.17 25.7835 50.6381 25.3201 50.6381 24.7483C50.6381 22.423 48.8672 20.6549 45.7803 19.8963C44.7061 19.6325 43.6334 19.4486 42.5634 19.33C44.2297 18.1997 45.3625 16.0041 45.3625 13.4858C45.3625 10.1024 43.3078 8.00064 40.0006 8.00064C36.6934 8.00064 34.6386 10.1024 34.6386 13.4858C34.6386 15.9998 35.7676 18.1918 37.4293 19.3237C36.3493 19.4419 35.2757 19.6279 34.2127 19.8987C31.0851 20.695 29.3623 22.4173 29.3623 24.7483C29.3624 25.3201 29.8305 25.7835 30.4073 25.7835ZM40.0006 10.071C41.4933 10.071 43.2724 10.6633 43.2724 13.4857C43.2724 15.9709 41.7743 18.0707 40.0006 18.0707C38.2269 18.0707 36.7287 15.9709 36.7287 13.4857C36.7287 10.6635 38.5078 10.071 40.0006 10.071ZM73.8094 19.8963C72.7355 19.6325 71.6625 19.4485 70.5927 19.3298C72.2583 18.1994 73.391 16.004 73.391 13.4857C73.391 10.1022 71.337 8.00049 68.0298 8.00049C64.7226 8.00049 62.6678 10.1022 62.6678 13.4857C62.6678 15.9995 63.7967 18.1912 65.4579 19.3234C64.3778 19.4416 63.304 19.6277 62.2405 19.8987C59.1135 20.6957 57.3915 22.418 57.3915 24.7483C57.3915 25.3201 57.8596 25.7835 58.4365 25.7835C59.0135 25.7835 59.4816 25.3201 59.4816 24.7483C59.4816 23.0879 61.2648 22.2852 62.7616 21.9038C66.1934 21.0289 69.7421 21.0303 73.306 21.9059C74.5279 22.2065 76.5772 22.9748 76.5772 24.7484V30.8504C76.5772 31.4222 77.0453 31.8856 77.6223 31.8856C78.1992 31.8856 78.6673 31.4222 78.6673 30.8504V24.7484C78.6672 22.4237 76.8962 20.6552 73.8094 19.8963ZM68.0296 10.071C69.5216 10.071 71.3009 10.6633 71.3009 13.4857C71.3009 15.9714 69.8027 18.071 68.0296 18.071C66.256 18.071 64.7578 15.9712 64.7578 13.4857C64.7578 10.6635 66.5369 10.071 68.0296 10.071ZM2.37904 31.8855C2.95602 31.8855 3.4241 31.4221 3.4241 30.8502V24.7483C3.4241 23.0879 5.20729 22.2852 6.70411 21.9038C10.1359 21.0289 13.6833 21.0303 17.2485 21.9059C18.4704 22.2065 20.5197 22.9748 20.5197 24.7484C20.5197 25.3203 20.9878 25.7837 21.5648 25.7837C22.1417 25.7837 22.6098 25.3203 22.6098 24.7484C22.6098 22.4239 20.8389 20.6553 17.752 19.8964C16.6777 19.6327 15.605 19.4486 14.5352 19.3301C16.201 18.1997 17.3336 16.0041 17.3336 13.486C17.3336 10.1025 15.2789 8.00079 11.9717 8.00079C8.66448 8.00079 6.61046 10.1025 6.61046 13.486C6.61046 15.9999 7.73935 18.1916 9.40035 19.3238C8.32025 19.442 7.24665 19.6282 6.18317 19.899C3.05601 20.6956 1.33398 22.418 1.33398 24.7483V30.8502C1.33398 31.4221 1.80206 31.8855 2.37904 31.8855ZM11.9715 10.071C13.4643 10.071 15.2434 10.6633 15.2434 13.4857C15.2434 15.9714 13.7452 18.071 11.9715 18.071C10.1985 18.071 8.70027 15.9712 8.70027 13.4857C8.70027 10.6635 10.4795 10.071 11.9715 10.071Z" fill="#0080C9" stroke="#0080C9" stroke-width="0.5"/>
</svg>
