<svg width="55" height="55" viewBox="0 0 55 55" fill="none" xmlns="http://www.w3.org/2000/svg">
<path fill-rule="evenodd" clip-rule="evenodd" d="M27.5 55C42.6878 55 55 42.6878 55 27.5C55 12.3122 42.6878 0 27.5 0C12.3122 0 0 12.3122 0 27.5C0 42.6878 12.3122 55 27.5 55ZM37.1809 30.0576C36.9583 29.8468 36.7355 29.6358 36.5161 29.4215C35.7683 28.6922 35.7205 28.269 36.3225 27.4292C36.6712 26.9398 37.0345 26.4607 37.3977 25.9818C37.7168 25.561 38.0358 25.1403 38.3448 24.7127C38.3682 24.6804 38.3915 24.6481 38.4149 24.6157C39.0101 23.7919 39.6072 22.9656 39.9198 21.9815C40.1259 21.3296 39.943 21.0425 39.2755 20.9287C39.1617 20.9093 39.0428 20.9075 38.9254 20.9075L34.9639 20.904C34.4757 20.8946 34.2056 21.1078 34.0334 21.5412C33.801 22.1252 33.5613 22.7097 33.2824 23.2725C32.654 24.5525 31.9507 25.7886 30.9652 26.8346C30.9511 26.8494 30.9369 26.8646 30.9226 26.8798C30.7154 27.1011 30.4835 27.3487 30.1431 27.2375C29.6885 27.0704 29.5553 26.3213 29.5624 26.0689L29.5588 21.4968C29.4701 20.8448 29.3262 20.5537 28.6782 20.4258H24.5621C24.0133 20.4258 23.7379 20.6391 23.4452 20.9818C23.2766 21.1805 23.2248 21.31 23.5729 21.376C24.2551 21.5053 24.6402 21.9479 24.7415 22.6316C24.9066 23.727 24.8942 24.8244 24.8001 25.9236C24.7717 26.2432 24.7165 26.5645 24.5904 26.8628C24.3917 27.3333 24.0701 27.4292 23.6477 27.14C23.266 26.8787 22.9979 26.5076 22.7349 26.1365C21.7476 24.7426 20.961 23.2388 20.3182 21.6582C20.1318 21.202 19.8121 20.925 19.3292 20.918C18.1396 20.8982 16.9516 20.8965 15.7635 20.9196C15.048 20.9319 14.8349 21.28 15.1263 21.9285C16.4206 24.8069 17.8608 27.6068 19.7414 30.1548C20.7072 31.4634 21.8169 32.6192 23.248 33.438C24.8711 34.3668 26.6184 34.6453 28.4595 34.5585C29.321 34.5192 29.5802 34.2937 29.6192 33.4361C29.6476 32.8483 29.7133 32.2643 30.0026 31.7369C30.2868 31.2183 30.7183 31.1195 31.2155 31.4423C31.4641 31.6037 31.6721 31.8079 31.8709 32.0249C32.0277 32.1966 32.1826 32.3699 32.3376 32.5433C32.6617 32.9059 32.9858 33.2686 33.327 33.6161C33.9571 34.2583 34.7064 34.6365 35.6458 34.5586L39.2879 34.5602C39.8738 34.5212 40.1792 33.8021 39.842 33.1487C39.604 32.6891 39.293 32.2803 38.9644 31.8843C38.4175 31.2289 37.7995 30.6435 37.1809 30.0576Z" fill="#78D3FF"/>
</svg>
