<svg width="31" height="48" viewBox="0 0 31 48" fill="none" xmlns="http://www.w3.org/2000/svg">
<path d="M6.22005 42.8141C9.01677 45.4307 12.6596 46.8025 16.4625 46.6598C24.2416 46.3735 30.41 39.7688 30.213 31.937C30.1318 28.7057 29.0027 25.6842 26.9474 23.1989C25.4928 21.4399 24.8033 19.2857 24.712 16.2139C24.5848 11.9411 23.6389 6.82608 23.5591 6.40096C23.1132 3.59953 20.6381 0.63296 15.02 0.683077C15.0026 0.683237 14.9817 0.683768 14.9639 0.684747C9.35276 0.968717 7.05848 4.0771 6.77997 6.89999C6.72555 7.32783 6.08462 12.4678 6.19107 16.0458C6.29072 19.395 5.67268 22.1472 4.45085 23.7954C0.148677 29.5989 0.834898 37.7759 6.22005 42.8141ZM8.96868 12.4578C9.0358 11.3543 9.12923 10.2799 9.2164 9.39439L21.269 9.03581C21.4022 9.89715 21.5525 10.9521 21.6843 12.0795L8.96868 12.4578ZM15.0721 3.37803C18.1297 3.35753 20.2197 4.45934 20.7887 6.3536L9.54252 6.68819C9.99786 4.76354 12.0187 3.53943 15.0721 3.37803ZM6.61608 25.4006C8.19687 23.2682 9.00268 19.9175 8.8851 15.9657C8.87736 15.7056 8.87407 15.4349 8.87453 15.1571L14.0697 15.0025L14.3977 26.0293L11.9924 28.5822C11.482 29.124 11.5073 29.9768 12.0491 30.4873C12.5907 30.9977 13.4436 30.9723 13.9541 30.4306L15.8182 28.4522L17.7966 30.3163C18.3382 30.8267 19.1912 30.8013 19.7016 30.2596C20.212 29.7178 20.1866 28.865 19.6449 28.3546L17.092 25.9491L16.764 14.9224L21.94 14.7684C22.1121 17.2304 21.8833 21.3043 24.8706 24.9165C26.5372 26.9319 27.4528 29.3829 27.5187 32.0046C27.6793 38.3886 22.6386 43.7799 16.2812 43.969C9.88632 44.1593 4.53868 39.0523 4.34788 32.6392C4.2695 30.011 5.05386 27.5078 6.61608 25.4006Z" fill="#8E8D89"/>
</svg>
