<svg width="67" height="67" viewBox="0 0 67 67" fill="none" xmlns="http://www.w3.org/2000/svg">
<g clip-path="url(#clip0_0_8185)">
<path d="M46.5972 36.0294C45.938 32.6639 44.2236 29.4887 41.6491 26.9872L42.8209 25.1468C43.0813 24.7378 43.1883 24.2312 43.0444 23.7803C42.9004 23.3294 42.6727 22.897 42.2637 22.6366L41.4458 22.1158L46.4075 14.2103C46.7004 13.7502 46.5379 13.2156 46.1289 12.9552C45.6688 12.6623 45.1342 12.8248 44.8738 13.2338L39.9121 21.1393L39.0941 20.6185C38.6851 20.3581 38.1785 20.251 37.7276 20.395C37.2767 20.539 36.8443 20.7666 36.5839 21.1756L35.4446 22.9649C31.903 21.6439 28.2495 21.4013 24.8189 22.1627C20.2168 23.1842 16.0885 25.9442 13.3542 30.2386C13.0613 30.6987 13.2238 31.2333 13.6328 31.4937L21.8124 36.7018C21.073 38.3146 20.8401 40.0344 21.2116 41.7078C21.6387 43.6323 22.8189 45.3897 24.6082 46.5289C26.3975 47.6682 28.4892 47.9941 30.4137 47.567C32.0871 47.1955 33.5469 46.2569 34.6954 44.9046L42.875 50.1127C43.3351 50.4057 43.8697 50.2431 44.1301 49.8341C46.8319 45.5909 47.5675 40.5989 46.5972 36.0294ZM38.0339 22.1707L41.2035 24.1889L40.227 25.7226C40.1759 25.69 40.1759 25.69 40.1248 25.6574C40.0225 25.5923 39.9714 25.5598 39.8692 25.4947C39.4927 25.1832 39.0326 24.8902 38.6236 24.6298C38.2472 24.3183 37.8057 24.109 37.3967 23.8486C37.2944 23.7835 37.1922 23.7184 37.0574 23.7044L38.0339 22.1707ZM30.0562 45.7587C28.5501 46.093 26.9976 45.823 25.6684 44.9767C24.2881 44.0978 23.4192 42.7542 23.1035 41.3318C22.8435 40.1604 22.9182 38.9146 23.4484 37.7434L28.305 40.8357L33.2128 43.9606C32.3573 44.8529 31.2788 45.5312 30.0562 45.7587ZM35.0399 42.8966L29.3141 39.2509L23.5884 35.6052L15.4598 30.4297C17.9103 27.0324 21.411 24.8068 25.2275 24.0036C28.7418 23.2235 32.4649 23.5824 35.8624 25.2427C35.9647 25.3078 36.1506 25.3543 36.2528 25.4194C36.6944 25.6287 37.1545 25.9217 37.5634 26.1821C38.0235 26.475 38.4325 26.7354 38.8601 27.0795C38.9623 27.1446 39.0831 27.2934 39.1854 27.3585C42.1272 29.7345 44.0275 32.9562 44.8075 36.4705C45.6618 40.3195 45.1588 44.382 43.1173 48.0396L35.0399 42.8966Z" fill="#C4C4C4"/>
<path d="M23.9758 47.635C23.5157 47.342 22.9811 47.5046 22.7207 47.9136L20.019 52.1568C19.726 52.6169 19.8886 53.1515 20.2976 53.4119C20.7577 53.7048 21.2923 53.5423 21.5527 53.1333L24.2544 48.8901C24.5474 48.43 24.4359 47.9279 23.9758 47.635Z" fill="#C4C4C4"/>
<path d="M29.1233 55.0085L29.3198 49.9605C29.3432 49.4725 28.9296 48.9936 28.4416 48.9702C27.9535 48.9468 27.4746 49.3604 27.4513 49.8485L27.2548 54.8965C27.2314 55.3845 27.645 55.8634 28.133 55.8868C28.6211 55.9101 29.1 55.4965 29.1233 55.0085Z" fill="#C4C4C4"/>
<path d="M36.5104 52.8863L34.1967 48.3955C33.969 47.9631 33.3927 47.7399 32.9278 48.0186C32.4954 48.2463 32.2722 48.8226 32.551 49.2875L34.8647 53.7783C35.0923 54.2107 35.6687 54.4339 36.1336 54.1552C36.5659 53.9275 36.7892 53.3512 36.5104 52.8863Z" fill="#C4C4C4"/>
<path d="M19.8405 39.6855C19.8639 39.1975 19.4503 38.7186 18.9623 38.6952L13.9143 38.4987C13.4262 38.4753 12.9474 38.8889 12.924 39.377C12.9006 39.865 13.3142 40.3439 13.8023 40.3673L18.8502 40.5638C19.3708 40.536 19.8172 40.1736 19.8405 39.6855Z" fill="#C4C4C4"/>
<path d="M20.876 44.1527C20.6483 43.7204 20.0395 43.5482 19.6071 43.7759L15.1163 46.0896C14.6839 46.3172 14.4607 46.8936 14.7395 47.3585C14.9671 47.7908 15.5434 48.0141 16.0083 47.7353L20.4992 45.4216C20.9315 45.1939 21.1548 44.6176 20.876 44.1527Z" fill="#C4C4C4"/>
</g>
<defs>
<clipPath id="clip0_0_8185">
<rect width="48" height="48" fill="white" transform="translate(25.7812) rotate(32.4856)"/>
</clipPath>
</defs>
</svg>
