<svg width="37" height="37" viewBox="0 0 37 37" fill="none" xmlns="http://www.w3.org/2000/svg">
<g clip-path="url(#clip0_0_8242)">
<path d="M14.3879 8.65142C12.5934 10.4194 11.3433 12.7566 10.8545 15.3476L9.25207 15.3758C8.89599 15.382 8.54224 15.5218 8.32438 15.7928C8.10651 16.0638 7.93394 16.3785 7.94019 16.7346L7.9527 17.4467L1.09879 17.6116C0.698195 17.6187 0.436601 17.9349 0.442854 18.291C0.449888 18.6916 0.766155 18.9532 1.12224 18.947L7.97615 18.7821L7.98866 19.4942C7.99491 19.8503 8.13469 20.2041 8.40567 20.4219C8.67664 20.6398 8.99135 20.8124 9.34743 20.8061L10.9053 20.7788C11.5316 23.4838 12.8639 25.8202 14.7209 27.6131C17.212 30.0182 20.5761 31.4284 24.315 31.3628C24.7156 31.3558 24.9772 31.0395 24.9709 30.6834L24.8459 23.5616C26.1336 23.3609 27.2815 22.8065 28.1561 21.9006C29.1618 20.8589 29.76 19.4236 29.7326 17.8657C29.7053 16.3078 29.0571 14.8944 28.0154 13.8887C27.1095 13.0141 25.9429 12.5003 24.6489 12.3449L24.5239 5.22313C24.5168 4.82253 24.2006 4.56094 23.8445 4.56719C20.1501 4.63207 16.7938 6.20484 14.3879 8.65142ZM9.36928 19.5145L9.32082 16.7548L10.6561 16.7314C10.6569 16.7759 10.6569 16.7759 10.6577 16.8204C10.6593 16.9094 10.6601 16.954 10.6616 17.043C10.6234 17.3998 10.6304 17.8004 10.6366 18.1565C10.5984 18.5134 10.6492 18.8687 10.6554 19.2248C10.657 19.3138 10.6585 19.4028 10.7046 19.4911L9.36928 19.5145ZM27.0526 14.8406C27.8678 15.6277 28.3317 16.6882 28.352 17.8454C28.3731 19.0472 27.9023 20.1241 27.1589 20.8941C26.5466 21.5282 25.7533 21.9873 24.8209 22.1373L24.7466 17.9088L24.6716 13.6357C25.5649 13.7981 26.4177 14.1839 27.0526 14.8406ZM23.2792 12.9478L23.3668 17.933L23.4543 22.9182L23.5786 29.9955C20.5042 29.8713 17.7219 28.629 15.6829 26.6167C13.7806 24.78 12.4913 22.3538 12.1313 19.5996C12.1297 19.5106 12.0829 19.3778 12.0813 19.2888C12.0306 18.9335 12.0235 18.5329 12.0173 18.1768C12.0102 17.7762 12.004 17.4201 12.0415 17.0187C12.0399 16.9297 12.0821 16.7954 12.0805 16.7064C12.3436 13.9412 13.5469 11.4712 15.3836 9.56896C17.3951 7.4855 20.0876 6.147 23.1557 5.91503L23.2792 12.9478Z" fill="#F4976C" fill-opacity="0.61"/>
<path d="M30.666 17.8049C30.673 18.2055 30.9893 18.4671 31.3454 18.4608L35.0398 18.3959C35.4404 18.3889 35.702 18.0726 35.6958 17.7166C35.6887 17.316 35.3725 17.0544 35.0164 17.0606L31.322 17.1255C30.9214 17.1325 30.659 17.4043 30.666 17.8049Z" fill="#F4976C" fill-opacity="0.61"/>
<path d="M33.0959 11.6622L29.9239 13.5879C29.6155 13.7714 29.4898 14.2189 29.6733 14.5273C29.8568 14.8358 30.3042 14.9615 30.6127 14.778L33.7846 12.8523C34.0931 12.6687 34.2188 12.2213 34.0353 11.9128C33.8518 11.6044 33.4043 11.4787 33.0959 11.6622Z" fill="#F4976C" fill-opacity="0.61"/>
<path d="M28.8022 7.99756L26.989 11.2352C26.8164 11.5499 26.9133 11.9934 27.2725 12.1652C27.5872 12.3378 28.0307 12.241 28.2025 11.8817L30.0157 8.64412C30.1883 8.32942 30.0914 7.88587 29.7322 7.71408C29.4175 7.54151 28.974 7.63834 28.8022 7.99756Z" fill="#F4976C" fill-opacity="0.61"/>
<path d="M27.4731 23.5601C27.1647 23.7436 27.0389 24.191 27.2225 24.4995L29.1482 27.6714C29.3317 27.9799 29.7792 28.1056 30.0876 27.9221C30.3961 27.7386 30.5218 27.2911 30.3383 26.9827L28.4125 23.8107C28.1845 23.5031 27.7816 23.3766 27.4731 23.5601Z" fill="#F4976C" fill-opacity="0.61"/>
<path d="M29.7887 21.1149C29.6161 21.4296 29.7575 21.8724 30.0722 22.045L33.3098 23.8581C33.6245 24.0307 34.0681 23.9339 34.2398 23.5747C34.4124 23.2599 34.3156 22.8164 33.9564 22.6446L30.7187 20.8314C30.404 20.6589 29.9605 20.7557 29.7887 21.1149Z" fill="#F4976C" fill-opacity="0.61"/>
</g>
<defs>
<clipPath id="clip0_0_8242">
<rect width="35.2581" height="35.2581" fill="white" transform="translate(0.753906 36.0063) rotate(-91.006)"/>
</clipPath>
</defs>
</svg>
