<svg width="21" height="21" viewBox="0 0 21 21" fill="none" xmlns="http://www.w3.org/2000/svg">
<g clip-path="url(#clip0_401_1825)">
<path d="M20.0941 14.2767C20.5245 13.7277 20.7309 13.1393 20.7045 12.5332C20.6782 11.8657 20.3795 11.3432 20.1336 11.0226C20.4191 10.3112 20.5289 9.19134 19.5759 8.32183C18.8777 7.68507 17.692 7.39962 16.0496 7.47867C14.8946 7.53137 13.9285 7.74655 13.889 7.75533H13.8846C13.665 7.79486 13.4322 7.84316 13.1951 7.89586C13.1775 7.61481 13.2258 6.91656 13.744 5.34442C14.3588 3.47365 14.3237 2.04203 13.6299 1.08469C12.9009 0.0790465 11.7371 0 11.3946 0C11.0652 0 10.7622 0.136136 10.547 0.386449C10.0596 0.952949 10.1167 1.99812 10.1782 2.48118C9.59849 4.03576 7.97365 7.84755 6.59912 8.9059C6.57277 8.92346 6.55081 8.94542 6.52885 8.96738C6.12484 9.39335 5.85257 9.85445 5.66813 10.2585C5.40903 10.1179 5.1148 10.0389 4.79861 10.0389H2.11982C1.10978 10.0389 0.292969 10.8601 0.292969 11.8657V19.0019C0.292969 20.0119 1.11417 20.8287 2.11982 20.8287H4.79861C5.18946 20.8287 5.55395 20.7058 5.85257 20.495L6.88456 20.6179C7.04265 20.6399 9.8532 20.9956 12.7384 20.9385C13.261 20.978 13.7528 21 14.2095 21C14.9956 21 15.6807 20.9385 16.2516 20.8156C17.5954 20.5301 18.5132 19.9592 18.9787 19.1205C19.3344 18.4793 19.3344 17.8425 19.2773 17.4385C20.1512 16.6481 20.3049 15.7742 20.2741 15.1593C20.2566 14.8036 20.1775 14.5006 20.0941 14.2767ZM2.11982 19.643C1.76411 19.643 1.47867 19.3532 1.47867 19.0019V11.8614C1.47867 11.5056 1.7685 11.2202 2.11982 11.2202H4.79861C5.15432 11.2202 5.43977 11.51 5.43977 11.8614V18.9975C5.43977 19.3532 5.14993 19.6386 4.79861 19.6386H2.11982V19.643ZM18.9699 13.7629C18.7854 13.9561 18.7503 14.2503 18.8908 14.4787C18.8908 14.4831 19.0709 14.7905 19.0928 15.212C19.1236 15.7873 18.8469 16.2967 18.2672 16.7315C18.0608 16.8896 17.9774 17.1619 18.0652 17.4078C18.0652 17.4122 18.2541 17.9918 17.9467 18.5408C17.6524 19.0678 16.9981 19.4454 16.0056 19.6562C15.2108 19.8275 14.1305 19.8582 12.8043 19.7528C12.7867 19.7528 12.7647 19.7528 12.7428 19.7528C9.91907 19.8143 7.06461 19.4454 7.03387 19.441H7.02948L6.58594 19.3883C6.61229 19.2654 6.62547 19.1336 6.62547 19.0019V11.8614C6.62547 11.6725 6.59473 11.4881 6.54203 11.3168C6.62107 11.0226 6.84065 10.3683 7.35884 9.81054C9.33061 8.24718 11.2585 2.97302 11.3419 2.74467C11.377 2.65245 11.3858 2.55144 11.3683 2.45044C11.2936 1.95859 11.3199 1.35696 11.4253 1.17691C11.6581 1.1813 12.2861 1.24718 12.6637 1.76976C13.1117 2.38896 13.0941 3.49561 12.611 4.96236C11.8733 7.19762 11.8118 8.37453 12.3959 8.89272C12.6857 9.15182 13.0721 9.16499 13.3532 9.06399C13.6211 9.00251 13.8758 8.94981 14.1173 8.91029C14.1349 8.9059 14.1568 8.90151 14.1744 8.89711C15.5226 8.60289 17.9379 8.42284 18.7767 9.18695C19.4881 9.83689 18.9831 10.6976 18.926 10.7898C18.7635 11.0358 18.8118 11.3563 19.0314 11.554C19.0358 11.5583 19.4969 11.9931 19.5188 12.5772C19.5364 12.968 19.3519 13.3676 18.9699 13.7629Z" fill="#676767"/>
</g>
<defs>
<clipPath id="clip0_401_1825">
<rect width="21" height="21" fill="white"/>
</clipPath>
</defs>
</svg>
