<svg width="210" height="60" viewBox="0 0 210 60" fill="none" xmlns="http://www.w3.org/2000/svg">
<g clip-path="url(#clip0_443_1216)">
<path d="M105.738 40.9889L107.779 38.1067H106.241L104.884 40.1354L103.507 38.1067H101.987L104.03 40.9981L101.853 44.0399H103.373L104.884 41.8695L106.385 44.0399H107.914L105.738 40.9889ZM97.0623 42.9281H95.7049V41.3266H97.0623C97.5665 41.3266 97.944 41.639 97.944 42.1278C97.944 42.6259 97.5666 42.9282 97.0623 42.9282V42.9281ZM97.2337 40.2149H95.705V38.1068H94.4283V44.0399H97.2339C98.5381 44.0399 99.2482 43.1678 99.2482 42.1276C99.2482 41.0954 98.5287 40.2147 97.2339 40.2147L97.2337 40.2149ZM99.7518 44.0399H101.039V38.1068H99.7518V44.0399ZM91.0535 42.9452H89.4071V41.5673H91.0535C91.5571 41.5673 91.8262 41.8872 91.8262 42.2605C91.8262 42.6885 91.5384 42.9453 91.0535 42.9453V42.9452ZM89.4071 39.1917H91.0076C91.4393 39.1917 91.7091 39.4668 91.7091 39.8417C91.7091 40.2149 91.4393 40.4818 91.0076 40.4818H89.4071V39.1917ZM91.9787 40.9798C92.5455 40.8648 93.0134 40.3659 93.0134 39.6187C93.0134 38.827 92.4288 38.1068 91.2874 38.1068H88.1304V44.0399H91.3857C92.5277 44.0399 93.1303 43.3282 93.1303 42.4393C93.1303 41.6914 92.6175 41.0777 91.9789 40.9796L91.9787 40.9798ZM83.9682 43.027C82.861 43.027 82.1517 42.181 82.1517 41.0778C82.1517 39.9657 82.861 39.1298 83.9682 39.1298C85.0743 39.1298 85.7939 39.9656 85.7939 41.0778C85.7939 42.181 85.0743 43.027 83.9682 43.027ZM83.9682 38.0098C82.1603 38.0098 80.8382 39.2905 80.8382 41.0779C80.8382 42.8666 82.1603 44.1464 83.9682 44.1464C85.7846 44.1464 87.1066 42.8666 87.1066 41.0779C87.1066 39.2905 85.7844 38.0098 83.9682 38.0098ZM78.5385 40.4376H75.7048V38.1068H74.4281V44.0399H75.7048V41.5496H78.5385V44.0399H79.8241V38.1068H78.5385V40.4376ZM69.509 40.8194H68.1508V39.218H69.509C70.0126 39.218 70.3907 39.5208 70.3907 40.0191C70.3907 40.5086 70.0127 40.8195 69.509 40.8195V40.8194ZM69.6797 38.1068H66.8732V44.0399H68.1509V41.9318H69.6797C70.9747 41.9318 71.694 41.0507 71.694 40.0189C71.694 38.9788 70.9837 38.1067 69.6797 38.1067V38.1068ZM61.0765 41.9404V38.1068H59.7988V44.0399H61.0306L63.8914 40.0637V44.0399H65.1685V38.1068H63.855L61.0765 41.9404ZM55.0124 41.6915L53.5561 38.1068H51.7656V44.0399H53.0433V39.8857L54.7342 44.0399H55.2915L56.9831 39.8857V44.0399H58.2677V38.1068H56.47L55.0122 41.6915H55.0124Z" fill="#0082C9"/>
<path d="M128.92 47.6927L126.141 51.527V47.6927H124.864V53.6258H126.096L128.957 49.6495V53.6258H130.234V47.6927H128.92ZM127.553 47.4166C128.201 47.4166 128.767 47.1144 129.127 46.6339L128.624 46.2161C128.371 46.563 128.002 46.7681 127.553 46.7681C127.085 46.7681 126.717 46.5537 126.474 46.2161L125.97 46.6339C126.339 47.1143 126.914 47.4166 127.553 47.4166ZM119.403 53.6258H123.648V52.5131H120.68V51.1709H123.586V50.0591H120.68V48.8037H123.648V47.6927H119.403V53.6258ZM113.706 48.8036H115.459V53.6258H116.745V48.8036H118.49V47.6926H113.706V48.8036H113.706ZM110.677 48.7156C111.298 48.7156 111.837 49.0983 112.089 49.5787L113.186 49.0449C112.765 48.3054 111.999 47.5948 110.677 47.5948C108.878 47.5948 107.485 48.84 107.485 50.6633C107.485 52.4869 108.878 53.7323 110.677 53.7323C111.999 53.7323 112.755 53.0112 113.186 52.2743L112.089 51.7491C111.837 52.238 111.298 52.612 110.677 52.612C109.589 52.612 108.798 51.7855 108.798 50.6634C108.798 49.5425 109.589 48.7159 110.677 48.7159V48.7156ZM103.697 52.6118C102.59 52.6118 101.879 51.7668 101.879 50.6632C101.879 49.5514 102.59 48.7156 103.697 48.7156C104.802 48.7156 105.522 49.5514 105.522 50.6632C105.522 51.7667 104.802 52.6118 103.697 52.6118ZM103.697 47.5947C101.888 47.5947 100.567 48.8751 100.567 50.6632C100.567 52.4514 101.888 53.7322 103.697 53.7322C105.512 53.7322 106.834 52.4514 106.834 50.6632C106.834 48.8751 105.512 47.5947 103.697 47.5947ZM98.2663 50.0228H95.4326V47.6926H94.1556V53.6257H95.4326V51.1351H98.2663V53.6257H99.5516V47.6926H98.2663V50.0228ZM93.1748 47.6926H91.5931L89.6957 50.0767V47.6926H88.4094V50.0767L86.5018 47.6926H84.9286L87.3118 50.4769L84.7758 53.6257H86.3404L88.1569 51.2501L88.4094 51.5529V53.6257H89.6957V51.5529L89.9474 51.2501L91.763 53.6257H93.3283L90.7923 50.4769L93.1747 47.6926H93.1748ZM81.4604 52.6118C80.355 52.6118 79.6448 51.7668 79.6448 50.6632C79.6448 49.5514 80.355 48.7156 81.4604 48.7156C82.5676 48.7156 83.2862 49.5514 83.2862 50.6632C83.2862 51.7667 82.5676 52.6118 81.4604 52.6118ZM81.4604 47.5947C79.6536 47.5947 78.3314 48.8751 78.3314 50.6632C78.3314 52.4514 79.6536 53.7322 81.4604 53.7322C83.2777 53.7322 84.5998 52.4514 84.5998 50.6632C84.5998 48.8751 83.2777 47.5947 81.4604 47.5947ZM73.873 51.2771L72.4161 47.6925H70.6261V53.6256H71.9024V49.4719L73.5933 53.6256H74.1514L75.8423 49.4719V53.6256H77.1278V47.6925H75.3292L73.8731 51.2771H73.873ZM67.7708 50.5653C68.4271 50.4497 69.0749 49.9608 69.0749 49.2146C69.0749 48.227 68.1037 47.6037 66.7004 47.6037C65.6488 47.6037 64.7935 48.0039 64.3087 48.5469L64.9471 49.3386C65.3696 48.9375 65.9902 48.7241 66.5742 48.7241C67.2585 48.7241 67.7979 48.9552 67.7979 49.4273C67.7979 49.8628 67.2859 50.0588 66.5742 50.0588H65.3611V51.1707H66.5742C67.4737 51.1707 67.897 51.3843 67.897 51.8554C67.897 52.3002 67.438 52.6118 66.6467 52.6118C66.062 52.6118 65.3072 52.3628 64.8925 51.9356L64.2276 52.7814C64.6679 53.3143 65.594 53.7322 66.7004 53.7322C68.131 53.7322 69.1653 53.0111 69.1653 51.9896C69.1653 51.0998 68.3734 50.6278 67.7708 50.5653ZM60.6761 52.6118C59.5705 52.6118 58.8596 51.7668 58.8596 50.6632C58.8596 49.5514 59.5705 48.7156 60.6761 48.7156C61.7823 48.7156 62.5017 49.5514 62.5017 50.6632C62.5017 51.7667 61.7823 52.6118 60.6761 52.6118ZM60.6761 47.5947C58.8683 47.5947 57.5461 48.8751 57.5461 50.6632C57.5461 52.4514 58.8683 53.7322 60.6761 53.7322C62.4922 53.7322 63.8145 52.4514 63.8145 50.6632C63.8145 48.8751 62.4922 47.5947 60.6761 47.5947ZM54.6889 52.5316H53.0433V51.1522H54.6889C55.1936 51.1522 55.463 51.4727 55.463 51.8468C55.463 52.2742 55.1748 52.5316 54.6889 52.5316ZM53.0433 48.7781H54.6446C55.0764 48.7781 55.3461 49.0542 55.3461 49.4274C55.3461 49.8007 55.0766 50.0673 54.6446 50.0673H53.0433V48.7782V48.7781ZM55.615 50.5654C56.1828 50.4498 56.6497 49.9527 56.6497 49.2046C56.6497 48.4134 56.065 47.6927 54.923 47.6927H51.7656V53.6258H55.022C56.1647 53.6258 56.7658 52.9133 56.7658 52.0251C56.7658 51.2772 56.2544 50.6633 55.6151 50.5654H55.615Z" fill="#0082C9"/>
<path d="M50.7658 18.3804C50.7658 15.7257 48.5892 13.5728 45.9045 13.5728C43.2194 13.5728 41.043 15.7256 41.043 18.3804C41.043 21.0358 43.2194 23.1879 45.9045 23.1879C48.5891 23.1879 50.7658 21.0358 50.7658 18.3804Z" fill="#E63A34"/>
<path d="M42.3066 15.1462L26.7662 6.27124C26.5509 6.9366 26.1954 7.53898 25.7315 8.04234L41.2721 16.9171C41.4865 16.2525 41.8427 15.6495 42.3065 15.1462H42.3066ZM17.2719 38.1064C17.2719 40.7628 19.4483 42.9155 22.1332 42.9155C24.8182 42.9155 26.994 40.7628 26.994 38.1064C26.994 37.2999 26.7928 36.5395 26.4373 35.8728L42.9311 22.1835C42.3816 21.7632 41.9262 21.2288 41.5995 20.6176L25.1075 34.3052C24.2849 33.6744 23.2543 33.2989 22.1334 33.2989C19.4486 33.2989 17.272 35.4516 17.272 38.1063L17.2719 38.1064ZM41.372 38.1064C41.372 48.5996 32.7415 57.1359 22.1332 57.1359C11.526 57.1359 2.89533 48.5996 2.89533 38.1064C2.89533 27.6146 11.5258 19.0784 22.1332 19.0784V16.214C16.2228 16.214 10.6643 18.4917 6.48278 22.626C2.30308 26.761 0 32.2585 0 38.1063C0 43.9541 2.3032 49.4516 6.48278 53.5876C10.6644 57.7236 16.2228 60.0003 22.1332 60.0003C28.0456 60.0003 33.6044 57.7234 37.7853 53.5876C41.9653 49.4523 44.2681 43.9548 44.2681 38.1063H41.372V38.1064Z" fill="#0082C9"/>
<path d="M26.9953 4.80744C26.9953 2.1526 24.8187 0 22.1339 0C19.4492 0 17.2734 2.1526 17.2734 4.80744C17.2734 7.46277 19.4492 9.61575 22.1339 9.61575C24.8185 9.61575 26.9953 7.46289 26.9953 4.80744Z" fill="#33AD6A"/>
<path d="M184.521 50.8784V48.0541H182.805V53.6255H184.397L186.257 50.826V53.6255H187.975V48.0541H186.382L184.521 50.8784H184.521ZM174.621 50.3069C174.621 50.509 174.517 50.9006 173.993 50.9006H173.384V49.4257H174.066C174.249 49.4257 174.621 49.5743 174.621 50.0086V50.3068V50.3069ZM174.252 48.0541H171.571V53.6255H173.384V52.2571H174.252C175.425 52.2571 176.382 51.6202 176.382 50.4822V49.8313C176.382 48.6932 175.425 48.0542 174.252 48.0542L174.252 48.0541ZM199.92 51.0016C199.92 51.8504 199.694 51.974 199.37 52.1204C199.227 52.1852 198.845 52.1713 198.845 52.1713V53.6254H199.556C201.082 53.6254 201.645 52.7496 201.667 50.782C201.672 50.337 201.664 49.8982 201.667 49.5074H202.684V53.6254H204.497V48.0539H199.92V51.0015L199.92 51.0016ZM169.136 51.7525C169.136 52.1203 168.832 52.4227 168.459 52.4227H168.304C167.931 52.4227 167.625 52.1203 167.625 51.7525V49.9453C167.625 49.5767 167.931 49.2744 168.304 49.2744H168.459C168.832 49.2744 169.136 49.5766 169.136 49.9453V51.7525ZM168.824 47.9629H167.938C166.765 47.9629 165.806 48.7894 165.806 50.0718V51.6269C165.806 52.9155 166.765 53.736 167.938 53.736H168.824C169.997 53.736 170.957 52.907 170.957 51.6269V50.0718C170.957 48.7218 169.997 47.9629 168.824 47.9629ZM193.943 48.0539H191.982L191.026 50.1603H190.579V48.0539H188.766V53.6254H190.579V51.6454H191.024L192.001 53.6254H194.081L192.544 50.8143L193.943 48.0539H193.943ZM196.19 51.5106H198.232V50.1873H196.19V49.5073H198.417V48.0539H194.377V53.6254H198.582V52.1713H196.189V51.5107L196.19 51.5106ZM207.679 52.2531H206.998V51.0371H207.606C208.118 51.0371 208.236 51.4088 208.236 51.6501C208.236 52.149 207.82 52.2533 207.679 52.2533V52.2531ZM207.866 49.6792H206.998V48.0541H205.186V53.6255H207.866C209.038 53.6255 209.999 52.9866 209.999 51.849V51.4558C209.999 50.3188 209.038 49.6794 207.866 49.6794V49.6792ZM180.201 50.1165H178.654V48.0541H176.842V53.6255H178.654V51.6455H180.201V53.6255H182.013V48.0541H180.201V50.1165ZM163.378 50.1165H161.833V48.0541H160.02V53.6255H161.833V51.6455H163.378V53.6255H165.19V48.0541H163.378V50.1165Z" fill="#676766"/>
<path d="M176.203 28.4229L193.102 39.6965V17.5444L176.203 6.27075V28.4229Z" fill="#005D9E"/>
<path d="M176.202 6.27039C166.871 6.27039 159.305 13.7526 159.305 22.9844C159.305 32.2139 166.871 39.6983 176.202 39.6983V6.27026V6.27039Z" fill="#0082C9"/>
<path d="M193.102 39.6966C202.433 39.6966 210 32.2129 210 22.9835C210 13.7524 202.433 6.27026 193.102 6.27026V39.6966Z" fill="#0082C9"/>
<path d="M144.715 6.15967H145.542V53.6263H144.715V6.15967Z" fill="#0082C9"/>
</g>
<defs>
<clipPath id="clip0_443_1216">
<rect width="210" height="60" fill="white"/>
</clipPath>
</defs>
</svg>
