<svg width="127" height="480" viewBox="0 0 127 480" fill="none" xmlns="http://www.w3.org/2000/svg">
<path fill-rule="evenodd" clip-rule="evenodd" d="M145.892 230.414L46.6738 140.927V223.816L145.892 313.302V230.414Z" fill="#009C95"/>
<path d="M173.233 79.1784L101.955 142.197L99.9893 139.981L171.268 76.9624L173.233 79.1784Z" fill="#0080C8"/>
<path fill-rule="evenodd" clip-rule="evenodd" d="M100.81 135.873C101.869 135.868 102.906 136.178 103.789 136.763C104.672 137.348 105.361 138.183 105.77 139.16C106.179 140.138 106.288 141.215 106.085 142.255C105.881 143.295 105.374 144.252 104.626 145.003C103.879 145.754 102.926 146.266 101.888 146.475C100.85 146.683 99.773 146.579 98.7942 146.174C97.8153 145.77 96.9784 145.084 96.3896 144.203C95.8007 143.322 95.4863 142.286 95.4863 141.226C95.4863 139.811 96.0465 138.453 97.0442 137.45C98.042 136.447 99.3961 135.88 100.81 135.873Z" fill="#0080C8"/>
<path d="M112.329 378.288L149.623 346.268L161.465 299.209L193.062 274.883L194.878 277.224L164.103 300.927L152.285 347.887L114.27 380.554L112.329 378.288Z" fill="#0080C8"/>
<path fill-rule="evenodd" clip-rule="evenodd" d="M79.0659 252.449L0 181.139V321.743L79.0659 393.028V252.449Z" fill="#D4EDFC"/>
<path fill-rule="evenodd" clip-rule="evenodd" d="M61.0039 332.848L114.22 284.843V379.483L61.0039 427.513V332.848Z" fill="#0080C8"/>
<path fill-rule="evenodd" clip-rule="evenodd" d="M41.5977 320.05L79.0656 286.237V393.028L72.3483 386.978L41.5977 359.24V320.05Z" fill="#78D3FF"/>
<path d="M61.501 425.073L180.946 318.207L182.936 320.398L63.4664 427.289L61.501 425.073Z" fill="#0080C8"/>
<path d="M62.8201 425.173L72.3737 432.642L120.167 388.995L143.752 411.329L201.919 359.116L203.885 361.332L143.702 415.387L120.117 393.028L72.4981 436.502L61.0039 427.513L62.8201 425.173Z" fill="#0080C8"/>
</svg>
