<svg width="127" height="480" viewBox="0 0 127 480" fill="none" xmlns="http://www.w3.org/2000/svg">
<path fill-rule="evenodd" clip-rule="evenodd" d="M-133 179.944L-21.5907 76.4395L61.8041 148.098L-49.6047 251.603L-133 179.944Z" fill="#78D3FF"/>
<path fill-rule="evenodd" clip-rule="evenodd" d="M22.4209 261.463L108.528 183.828V336.906L22.4209 414.541V261.463Z" fill="#D4EDFC"/>
<path d="M-53.9833 232.979L59.9382 127.158V325.005C21.7902 360.461 -16.3578 395.883 -54.5059 431.273V233.427L-54.0331 232.979H-53.9833ZM56.9528 133.981L-51.4954 234.721V424.451L56.9528 323.685V133.981Z" fill="#0080C8"/>
<path d="M-137.378 160.224L-24.9741 55.8232L60.6848 129.474C22.8353 164.615 -15.0391 199.78 -52.9383 234.97L-138.597 161.345L-137.378 160.224ZM-24.8994 59.7573L-134.144 161.22L-53.0129 230.937L56.1568 129.474L-24.9492 59.7573H-24.8994Z" fill="#0080C8"/>
<path fill-rule="evenodd" clip-rule="evenodd" d="M57.2266 318.207C58.4469 318.207 59.6398 318.569 60.6545 319.248C61.6692 319.926 62.46 320.891 62.927 322.019C63.394 323.147 63.5162 324.389 63.2781 325.587C63.04 326.785 62.4524 327.885 61.5895 328.749C60.7266 329.612 59.6272 330.2 58.4303 330.438C57.2335 330.677 55.9929 330.554 54.8655 330.087C53.7381 329.62 52.7744 328.828 52.0964 327.813C51.4185 326.797 51.0566 325.603 51.0566 324.382C51.0566 322.745 51.7066 321.174 52.8637 320.016C54.0208 318.858 55.5902 318.207 57.2266 318.207Z" fill="#0080C8"/>
<path d="M40.3084 179.272L32.9938 185.795V304.936L40.3084 298.388V179.272ZM33.367 181.488L43.3187 172.624V299.732L30.0332 311.559V184.575L33.3919 181.587L33.367 181.488Z" fill="#0080C8"/>
<path d="M18.5642 198.792L11.3741 205.316V324.457L18.6886 317.908V198.792H18.5642ZM13.9117 198.942L21.5497 192.144V319.128L8.26416 331.155V203.996L13.9117 199.016V198.942Z" fill="#0080C8"/>
<path fill-rule="evenodd" clip-rule="evenodd" d="M60.187 123.747C61.4074 123.747 62.6002 124.109 63.6149 124.788C64.6295 125.466 65.4204 126.431 65.8874 127.559C66.3544 128.688 66.4765 129.929 66.2385 131.127C66.0004 132.325 65.4128 133.425 64.5499 134.289C63.687 135.152 62.5876 135.74 61.3908 135.979C60.1939 136.217 58.9534 136.094 57.8259 135.627C56.6985 135.16 55.7348 134.368 55.0569 133.353C54.3789 132.337 54.0171 131.143 54.0171 129.922C54.0171 128.285 54.6671 126.714 55.8242 125.556C56.9813 124.398 58.5507 123.747 60.187 123.747Z" fill="#0080C8"/>
<path d="M-101.95 187.239L-92.5957 148.621L69.8402 4.5813L71.8305 6.7973L-89.9087 150.24L-99.0891 187.936L-101.95 187.239Z" fill="#0080C8"/>
<path fill-rule="evenodd" clip-rule="evenodd" d="M70.8351 5.46137e-05C71.963 6.53761e-05 73.0655 0.335116 74.0029 0.96275C74.9404 1.59038 75.6706 2.48237 76.1011 3.52569C76.5316 4.56902 76.6429 5.71673 76.4211 6.82345C76.1992 7.93018 75.6542 8.94609 74.8549 9.7425C74.0556 10.5389 73.0381 11.08 71.9313 11.2972C70.8245 11.5144 69.6781 11.3979 68.6375 10.9625C67.5969 10.5271 66.7089 9.79243 66.0858 8.8515C65.4628 7.91057 65.1328 6.80575 65.1377 5.67699C65.1377 4.92938 65.2853 4.18914 65.572 3.49876C65.8586 2.80837 66.2787 2.18143 66.808 1.65395C67.3374 1.12647 67.9656 0.708826 68.6567 0.425002C69.3478 0.141178 70.0881 -0.00322436 70.8351 5.46137e-05Z" fill="#0080C8"/>
<path d="M56.2066 64.6374L-15.0721 127.656L-17.0376 125.44L54.2412 62.3965L56.2066 64.6374Z" fill="#0080C8"/>
<path fill-rule="evenodd" clip-rule="evenodd" d="M55.2365 58.5872C56.2206 58.5872 57.1827 58.8792 58.0009 59.4264C58.8192 59.9736 59.4569 60.7513 59.8335 61.6613C60.2101 62.5712 60.3087 63.5725 60.1167 64.5384C59.9247 65.5044 59.4508 66.3917 58.7549 67.0882C58.0591 67.7846 57.1724 68.2589 56.2072 68.451C55.242 68.6432 54.2415 68.5446 53.3323 68.1676C52.4231 67.7907 51.6461 67.1525 51.0993 66.3336C50.5526 65.5146 50.2607 64.5518 50.2607 63.5669C50.2607 62.2462 50.785 60.9796 51.7181 60.0457C52.6513 59.1118 53.9169 58.5872 55.2365 58.5872Z" fill="#0080C8"/>
<path d="M58.7446 129.549L69.1938 88.2913L122.759 41.7305L124.699 43.9714L71.8559 89.9346L61.6306 130.271L58.7446 129.549Z" fill="#0080C8"/>
<path fill-rule="evenodd" clip-rule="evenodd" d="M121.266 37.7717C122.393 37.7717 123.494 38.1062 124.431 38.7327C125.368 39.3592 126.098 40.2497 126.529 41.2916C126.961 42.3334 127.073 43.4799 126.854 44.5859C126.634 45.692 126.091 46.7079 125.294 47.5054C124.498 48.3028 123.482 48.8458 122.377 49.0658C121.272 49.2858 120.126 49.1729 119.085 48.7414C118.044 48.3098 117.155 47.579 116.529 46.6413C115.902 45.7037 115.568 44.6013 115.568 43.4736C115.568 41.9614 116.169 40.5111 117.237 39.4418C118.306 38.3725 119.755 37.7717 121.266 37.7717Z" fill="#0080C8"/>
</svg>
