<svg width="67" height="480" viewBox="0 0 67 480" fill="none" xmlns="http://www.w3.org/2000/svg">
<path fill-rule="evenodd" clip-rule="evenodd" d="M-79.2129 230.414L20.1044 140.927V223.816L-79.2129 313.302V230.414Z" fill="#009C95"/>
<path fill-rule="evenodd" clip-rule="evenodd" d="M-12.3203 252.449L66.8247 181.139V321.743L-12.3203 393.028V252.449Z" fill="#D4EDFC"/>
<path fill-rule="evenodd" clip-rule="evenodd" d="M5.76001 332.848L-47.5097 284.843V379.483L5.76001 427.513V332.848Z" fill="#0080C8"/>
<path fill-rule="evenodd" clip-rule="evenodd" d="M25.1851 320.049L-12.3204 286.237V393.028L-5.59631 386.978L25.1851 359.24V320.049Z" fill="#78D3FF"/>
<path d="M5.26196 425.073L-114.302 318.208L-116.295 320.399L3.29454 427.289L5.26196 425.073Z" fill="#0080C8"/>
<path d="M3.94202 425.172L-5.62113 432.642L-53.4618 388.994L-77.0708 411.329L-135.296 359.116L-137.264 361.332L-77.021 415.387L-53.4119 393.028L-5.74565 436.501L5.76001 427.513L3.94202 425.172Z" fill="#0080C8"/>
</svg>
