<svg width="9" height="9" viewBox="0 0 9 9" fill="none" xmlns="http://www.w3.org/2000/svg">
<g clip-path="url(#clip0_401_1834)">
<path d="M2.01439 8.81796C1.91579 8.81796 1.81787 8.78719 1.7343 8.72677C1.57863 8.61395 1.50592 8.42003 1.54828 8.23292L2.12728 5.68245L0.163697 3.96043C0.0193602 3.83443 -0.0357788 3.63488 0.0234802 3.4523C0.0827392 3.27006 0.243968 3.14104 0.43486 3.12339L3.03292 2.88752L4.0601 0.483719C4.13584 0.307109 4.30833 0.193054 4.49997 0.193054C4.69162 0.193054 4.86411 0.307109 4.93985 0.483307L5.96703 2.88752L8.56468 3.12339C8.75598 3.14062 8.91721 3.27006 8.97647 3.4523C9.03573 3.63454 8.98093 3.83443 8.8366 3.96043L6.87301 5.6821L7.45201 8.23251C7.49444 8.42003 7.42166 8.61395 7.26606 8.72642C7.11081 8.8389 6.90378 8.84755 6.74028 8.74929L4.49997 7.4105L2.25967 8.75004C2.18393 8.79502 2.09954 8.81796 2.01439 8.81796ZM4.49997 6.83377C4.58512 6.83377 4.66944 6.85664 4.74525 6.90162L6.85955 8.16618L6.31311 5.75894C6.27411 5.58762 6.33227 5.40874 6.46465 5.29283L8.31871 3.66681L5.86575 3.44406C5.68914 3.42792 5.53725 3.31689 5.46824 3.15415L4.49997 0.885691L3.53054 3.1545C3.46229 3.31614 3.3104 3.42717 3.1342 3.44331L0.680891 3.66606L2.53488 5.29208C2.66768 5.40833 2.72577 5.58686 2.68643 5.7586L2.14039 8.16576L4.2547 6.90162C4.33044 6.85664 4.41483 6.83377 4.49997 6.83377ZM3.01307 2.93401C3.01307 2.93401 3.01307 2.93442 3.01266 2.93476L3.01307 2.93401ZM5.98612 2.93291L5.98653 2.93366C5.98653 2.93325 5.98653 2.93325 5.98612 2.93291Z" fill="#676767"/>
</g>
<defs>
<clipPath id="clip0_401_1834">
<rect width="9" height="9" fill="white"/>
</clipPath>
</defs>
</svg>
