<svg width="80" height="80" viewBox="0 0 80 80" fill="none" xmlns="http://www.w3.org/2000/svg">
<path d="M16.6673 9.3335C12.623 9.3335 9.33398 12.6225 9.33398 16.6668C9.33398 20.7112 12.623 24.0002 16.6673 24.0002C20.7117 24.0002 24.0007 20.7112 24.0007 16.6668C24.0007 12.6225 20.7117 9.3335 16.6673 9.3335ZM16.6673 21.5557C13.9711 21.5557 11.7784 19.3631 11.7784 16.6668C11.7784 13.9706 13.9711 11.7779 16.6673 11.7779C19.3635 11.7779 21.5562 13.9706 21.5562 16.6668C21.5562 19.3631 19.3635 21.5557 16.6673 21.5557Z" fill="#0080C9"/>
<path d="M72.0007 60.3433L70.1837 58.6667L60.8124 67.3137L59.1509 65.7807L57.334 67.4572L60.8124 70.6667L72.0007 60.3433Z" fill="#0080C9"/>
<path d="M53.334 14.6667H56.0006V17.3334H53.334V14.6667Z" fill="#0080C9"/>
<path d="M49.334 14.6667H52.0006V17.3334H49.334V14.6667Z" fill="#0080C9"/>
<path d="M30.0222 46.2184H49.9791C52.0422 46.2184 53.7211 44.5386 53.7211 42.4744V41.2263H69.9361C74.7495 41.2263 78.6673 37.3076 78.6673 32.4902V23.7541C78.6673 18.9368 74.7495 15.018 69.9361 15.018H66.1942V13.77C66.1942 11.7058 64.5153 10.0259 62.4523 10.0259H42.4953C40.4322 10.0259 38.7533 11.7058 38.7533 13.77V15.018H31.3131V12.8614L28.0389 11.9666C27.9317 11.6796 27.8119 11.3938 27.6822 11.1117L29.3673 8.1589L24.4928 3.28165L21.5429 4.96647C21.2598 4.83668 20.9754 4.71687 20.6885 4.60954L19.793 1.3335H12.8991L12.0035 4.60954C11.7166 4.71687 11.4322 4.83543 11.1503 4.96647L8.19919 3.28165L3.32469 8.1589L5.00857 11.1117C4.87884 11.3938 4.7591 11.6796 4.65183 11.9666L1.37764 12.8614V19.758L4.65183 20.654C4.7591 20.9411 4.87884 21.2269 5.00857 21.5089L3.32345 24.4617L8.19794 29.3377L11.1491 27.6529C11.431 27.7827 11.7154 27.9025 12.0022 28.0098L12.8978 31.2859H19.7917L20.6873 28.0098C20.9729 27.9025 21.2585 27.7827 21.5417 27.6529L24.4916 29.3365L29.3661 24.4605L27.681 21.5077C27.8107 21.2256 27.9304 20.9398 28.0377 20.6528L31.3119 19.7567V17.514H38.7533V18.762C38.7533 20.8263 40.4322 22.5061 42.4953 22.5061H62.4523C64.5153 22.5061 66.1942 20.8263 66.1942 18.762V17.514H69.9361C73.375 17.514 76.1727 20.3133 76.1727 23.7541V32.4902C76.1727 35.931 73.375 38.7303 69.9361 38.7303H53.7211V37.4823C53.7211 35.4181 52.0422 33.7382 49.9791 33.7382H30.0222C27.9591 33.7382 26.2802 35.4181 26.2802 37.4823V38.7303H10.0652C5.25179 38.7303 1.33398 42.6503 1.33398 47.4664V57.4506C1.33398 62.2666 5.25179 66.1867 10.0652 66.1867H13.8071V67.4347C13.8071 69.4989 15.486 71.1787 17.549 71.1787H37.506C39.5691 71.1787 41.248 69.4989 41.248 67.4347V66.1867H51.2901C51.9225 73.1731 57.8023 78.6668 64.9469 78.6668C72.5118 78.6668 78.6673 72.5079 78.6673 64.9386C78.6673 57.3694 72.5118 51.2105 64.9469 51.2105C57.8023 51.2105 51.9225 56.7042 51.2901 63.6906H41.248V62.4426C41.248 60.3784 39.5691 58.6986 37.506 58.6986H17.549C15.486 58.6986 13.8071 60.3784 13.8071 62.4426V63.6906H10.0652C6.62633 63.6906 3.82861 60.8913 3.82861 57.4506V47.4664C3.82861 44.0256 6.62633 41.2263 10.0652 41.2263H26.2802V42.4744C26.2802 44.5386 27.9591 46.2184 30.0222 46.2184ZM28.8185 17.8535L26.0831 18.6023L25.8823 19.2575C25.7027 19.8353 25.4632 20.4107 25.1689 20.9673L24.8471 21.5738L26.2565 24.0436L24.0762 26.2264L21.6065 24.8174L21.0016 25.1382C20.4465 25.4327 19.8715 25.6723 19.2928 25.8508L18.6392 26.053L17.8896 28.7899H14.805L14.0553 26.053L13.4017 25.8508C12.8255 25.6723 12.2505 25.4339 11.6929 25.1382L11.0867 24.8174L8.61829 26.2264L6.43549 24.0436L7.84495 21.5738L7.52315 20.9673C7.22878 20.4107 6.98805 19.8353 6.80968 19.2575L6.60887 18.6023L3.87351 17.8535V14.7659L6.60887 14.0183L6.81093 13.3631C6.9893 12.7853 7.22878 12.21 7.52315 11.6546L7.84495 11.0468L6.43549 8.57698L8.61579 6.3942L11.0842 7.80321L11.6904 7.48247C12.2505 7.18669 12.8255 6.94583 13.3992 6.76861L14.0528 6.56643L14.8025 3.82953H17.8871L18.6367 6.56643L19.2903 6.76861C19.8665 6.94707 20.4416 7.18669 20.9991 7.48247L21.604 7.80321L24.0737 6.3942L26.254 8.57698L24.8446 11.0468L25.1664 11.6533C25.4607 12.2087 25.7015 12.784 25.8786 13.3619L26.0807 14.0171L28.816 14.7646V17.8535H28.8185ZM63.6996 18.762C63.6996 19.4497 63.1408 20.0101 62.4523 20.0101H42.4953C41.8068 20.0101 41.248 19.4497 41.248 18.762V13.77C41.248 13.0823 41.8068 12.522 42.4953 12.522H62.4523C63.1408 12.522 63.6996 13.0823 63.6996 13.77V18.762ZM64.9469 53.7065C71.1373 53.7065 76.1727 58.7447 76.1727 64.9386C76.1727 71.1326 71.1373 76.1708 64.9469 76.1708C58.7565 76.1708 53.7211 71.1326 53.7211 64.9386C53.7211 58.7447 58.7565 53.7065 64.9469 53.7065ZM16.3017 62.4426C16.3017 61.7537 16.8605 61.1946 17.549 61.1946H37.506C38.1945 61.1946 38.7533 61.7537 38.7533 62.4426V67.4347C38.7533 68.1236 38.1945 68.6827 37.506 68.6827H17.549C16.8605 68.6827 16.3017 68.1236 16.3017 67.4347V62.4426ZM28.7748 37.4823C28.7748 36.7946 29.3336 36.2343 30.0222 36.2343H49.9791C50.6677 36.2343 51.2265 36.7946 51.2265 37.4823V42.4744C51.2265 43.1633 50.6677 43.7224 49.9791 43.7224H30.0222C29.3336 43.7224 28.7748 43.1633 28.7748 42.4744V37.4823Z" fill="#0080C9"/>
<path d="M41.334 38.6667H44.0007V41.3334H41.334V38.6667Z" fill="#0080C9"/>
<path d="M36 38.667H38.6667V41.3337H36V38.667Z" fill="#0080C9"/>
<path d="M24 64H26.6667V66.6667H24V64Z" fill="#0080C9"/>
<path d="M29.334 64.0002H32.0007V66.6669H29.334V64.0002Z" fill="#0080C9"/>
</svg>
